{"glyphs":{"0":{"ha":556,"x_min":42,"x_max":514,"o":"m 118 256 l 414 701 l 438 592 l 142 157 l 118 256 m 278 -15 q 153 32 206 -15 q 71 178 100 79 q 42 428 42 276 q 71 676 42 576 q 153 825 100 775 q 278 875 206 875 q 403 825 350 875 q 485 676 456 775 q 514 428 514 576 q 485 178 514 276 q 403 32 456 79 q 278 -15 350 -15 m 278 100 q 340 136 315 100 q 376 244 364 172 q 388 428 388 317 q 375 608 388 535 q 339 718 363 681 q 278 756 315 756 q 217 718 242 756 q 181 608 193 681 q 168 428 168 535 q 181 244 168 317 q 218 136 193 172 q 278 100 243 100 z "},"1":{"ha":556,"x_min":78,"x_max":361,"o":"m 226 0 l 226 696 l 104 643 l 78 744 l 264 867 l 361 867 l 361 0 l 226 0 z "},"2":{"ha":556,"x_min":47,"x_max":499,"o":"m 65 103 q 175 244 126 182 q 260 356 224 306 q 319 451 296 407 q 355 538 343 496 q 367 628 367 581 q 361 681 367 658 q 344 720 356 704 q 317 744 333 736 q 278 753 300 753 q 239 747 257 753 q 205 731 221 742 q 174 700 189 719 q 160 671 163 681 q 161 650 158 661 l 154 640 l 143 646 l 47 704 q 105 797 71 758 q 183 855 139 835 q 282 875 228 875 q 392 846 344 875 q 468 761 440 817 q 496 626 496 706 q 484 524 496 572 q 450 430 472 476 q 396 335 428 383 q 324 235 364 288 q 238 121 285 182 l 436 121 q 469 124 460 121 q 488 133 479 126 l 499 133 l 499 121 l 499 0 l 65 0 l 65 103 z "},"3":{"ha":556,"x_min":47,"x_max":492,"o":"m 263 -15 q 140 13 197 -15 q 47 92 83 40 l 124 179 l 132 189 l 140 182 q 144 162 140 172 q 161 135 147 151 q 203 108 179 118 q 254 99 226 99 q 312 115 289 99 q 347 165 335 132 q 360 244 360 197 q 349 321 360 290 q 315 369 338 351 q 260 393 293 388 q 183 393 228 399 l 183 506 q 263 515 232 504 q 312 546 294 526 q 335 592 329 565 q 342 647 342 618 q 336 694 342 674 q 319 730 331 715 q 293 752 308 744 q 258 760 278 760 q 218 753 238 760 q 181 731 199 746 q 149 694 164 717 l 64 767 q 156 849 103 822 q 265 875 208 875 q 372 849 325 875 q 445 774 418 822 q 472 656 472 725 q 458 569 472 608 q 421 503 444 531 q 367 461 397 476 q 430 417 401 446 q 475 344 458 388 q 492 239 492 300 q 464 106 492 164 q 385 17 436 49 q 263 -15 333 -15 l 263 -15 z "},"4":{"ha":556,"x_min":49,"x_max":533,"o":"m 322 0 l 322 203 l 49 203 l 49 304 l 353 867 l 451 867 l 451 322 l 533 322 l 533 201 l 451 201 l 451 0 l 322 0 m 179 322 l 324 322 l 324 597 l 179 322 z "},"5":{"ha":556,"x_min":57,"x_max":511,"o":"m 279 -15 q 148 17 207 -15 q 57 118 89 49 l 151 190 l 161 197 l 168 189 q 169 169 167 179 q 185 142 172 160 q 225 113 203 122 q 275 103 247 103 q 319 115 300 103 q 353 151 339 128 q 374 206 367 174 q 382 275 382 238 q 375 351 382 318 q 354 408 368 385 q 321 443 340 431 q 276 456 301 456 q 235 449 254 456 q 199 428 215 442 q 169 392 183 414 l 86 413 l 110 865 l 479 865 l 479 746 l 226 746 l 215 539 q 245 556 229 549 q 279 567 261 563 q 314 571 297 571 q 395 552 358 571 q 458 497 432 533 q 497 407 483 461 q 511 281 511 353 q 482 119 511 186 q 401 19 453 53 q 279 -15 349 -15 l 279 -15 z "},"6":{"ha":556,"x_min":58,"x_max":504,"o":"m 289 -15 q 163 33 215 -15 q 85 172 111 81 q 58 396 58 264 q 91 663 58 556 q 183 824 124 769 q 321 878 242 878 q 416 856 369 878 q 496 790 463 835 l 424 701 l 417 692 l 408 699 q 402 717 407 708 q 382 740 397 726 q 366 749 375 746 q 348 753 357 751 q 329 756 339 756 q 294 749 313 756 q 259 728 276 743 q 227 684 242 713 q 203 610 213 656 q 190 500 193 565 q 226 535 206 521 q 269 558 246 550 q 315 565 292 565 q 390 547 356 565 q 450 494 425 529 q 490 406 475 458 q 504 282 504 353 q 477 127 504 194 q 402 22 450 60 q 289 -15 354 -15 l 289 -15 m 292 104 q 327 116 311 104 q 355 150 343 128 q 372 205 367 172 q 378 281 378 238 q 372 355 378 324 q 353 407 365 386 q 324 438 340 428 q 292 447 308 447 q 261 441 275 447 q 235 424 247 435 q 212 397 222 413 q 193 363 201 382 q 197 258 190 306 q 216 176 203 211 q 249 123 229 142 q 292 104 268 104 l 292 104 z "},"7":{"ha":556,"x_min":72,"x_max":493,"o":"m 135 0 q 200 251 168 129 q 267 496 232 374 q 340 742 303 618 l 72 742 l 72 865 l 493 865 l 493 783 q 432 590 461 686 q 376 398 403 494 q 324 203 349 301 q 275 0 300 104 l 135 0 z "},"8":{"ha":556,"x_min":50,"x_max":507,"o":"m 278 -15 q 157 15 208 -15 q 78 99 106 46 q 50 221 50 151 q 66 322 50 276 q 111 403 82 368 q 179 464 140 439 q 128 517 150 488 q 94 583 106 547 q 82 660 82 619 q 107 773 82 724 q 177 850 132 822 q 285 878 222 878 q 393 851 349 878 q 460 776 438 824 q 483 668 483 729 q 478 604 483 635 q 460 547 472 574 q 431 497 449 519 q 392 458 414 475 q 442 415 421 439 q 478 361 464 390 q 500 299 493 332 q 507 225 507 265 q 479 100 507 154 q 400 15 451 46 q 278 -15 349 -15 m 281 106 q 334 120 313 106 q 367 163 356 135 q 378 231 378 190 q 369 287 378 261 q 347 334 361 313 q 311 372 332 356 q 264 400 290 389 q 229 372 244 388 q 203 335 214 356 q 186 290 192 314 q 181 235 181 265 q 193 165 181 194 q 228 121 206 136 q 281 106 250 106 m 299 511 q 325 540 314 524 q 344 576 336 557 q 356 617 351 596 q 360 660 360 639 q 350 711 360 689 q 323 746 340 733 q 282 758 306 758 q 240 746 257 758 q 215 712 224 733 q 207 664 207 690 q 213 614 207 636 q 232 573 219 592 q 261 539 244 554 q 299 511 278 524 z "},"9":{"ha":556,"x_min":54,"x_max":500,"o":"m 250 -15 q 145 4 194 -15 q 58 65 96 24 l 126 165 l 133 176 l 143 171 q 149 150 144 160 q 169 125 154 140 q 204 109 186 114 q 243 104 222 104 q 301 129 276 104 q 342 199 325 154 q 367 304 358 244 q 375 433 375 364 q 366 628 376 557 q 333 728 356 699 q 275 757 311 757 q 235 747 253 757 q 206 715 218 736 q 187 660 193 693 q 181 583 181 628 q 188 516 181 544 q 208 468 194 488 q 239 439 221 449 q 278 429 257 429 q 331 437 308 429 q 371 464 353 444 q 404 517 389 483 l 415 397 q 377 351 399 371 q 328 322 356 332 q 267 311 301 311 q 183 330 222 311 q 116 384 144 349 q 71 470 88 419 q 54 586 54 521 q 72 707 54 653 q 119 799 89 761 q 190 856 150 836 q 278 875 231 875 q 402 831 353 875 q 476 702 451 788 q 500 488 500 617 q 472 206 500 317 q 388 41 443 94 q 250 -15 332 -12 l 250 -15 z "},"A":{"ha":556,"x_min":14,"x_max":543,"o":"m 406 206 l 139 206 l 157 310 l 385 310 l 406 206 m 278 574 l 147 0 l 14 0 l 242 875 l 314 875 l 543 0 l 406 0 l 278 574 z "},"Á":{"ha":556,"x_min":14,"x_max":543,"o":"m 406 206 l 139 206 l 157 310 l 385 310 l 406 206 m 278 574 l 147 0 l 14 0 l 242 875 l 314 875 l 543 0 l 406 0 l 278 574 z "},"Ă":{"ha":556,"x_min":14,"x_max":543,"o":"m 406 206 l 139 206 l 157 310 l 385 310 l 406 206 m 278 574 l 147 0 l 14 0 l 242 875 l 314 875 l 543 0 l 406 0 l 278 574 z "},"Ắ":{"ha":556,"x_min":14,"x_max":543,"o":"m 406 206 l 139 206 l 157 310 l 385 310 l 406 206 m 278 574 l 147 0 l 14 0 l 242 875 l 314 875 l 543 0 l 406 0 l 278 574 z "},"Ặ":{"ha":556,"x_min":14,"x_max":543,"o":"m 406 206 l 139 206 l 157 310 l 385 310 l 406 206 m 278 574 l 147 0 l 14 0 l 242 875 l 314 875 l 543 0 l 406 0 l 278 574 z "},"Ằ":{"ha":556,"x_min":14,"x_max":543,"o":"m 406 206 l 139 206 l 157 310 l 385 310 l 406 206 m 278 574 l 147 0 l 14 0 l 242 875 l 314 875 l 543 0 l 406 0 l 278 574 z "},"Ẳ":{"ha":556,"x_min":14,"x_max":543,"o":"m 406 206 l 139 206 l 157 310 l 385 310 l 406 206 m 278 574 l 147 0 l 14 0 l 242 875 l 314 875 l 543 0 l 406 0 l 278 574 m 392 1235 q 381 1190 392 1208 q 357 1155 371 1171 q 332 1122 343 1139 q 321 1082 321 1104 l 321 1068 l 233 1068 l 233 1106 q 243 1141 233 1125 q 267 1171 253 1157 q 291 1198 281 1185 q 301 1224 301 1211 q 292 1249 301 1240 q 268 1258 282 1258 q 234 1249 249 1258 q 210 1215 219 1239 l 165 1293 q 217 1333 188 1321 q 278 1346 247 1346 q 338 1332 313 1346 q 378 1294 364 1318 q 392 1235 392 1269 z "},"Ẵ":{"ha":556,"x_min":14,"x_max":543,"o":"m 406 206 l 139 206 l 157 310 l 385 310 l 406 206 m 278 574 l 147 0 l 14 0 l 242 875 l 314 875 l 543 0 l 406 0 l 278 574 m 356 1300 l 425 1264 q 380 1187 406 1215 q 324 1158 354 1158 q 283 1169 300 1158 q 253 1193 267 1179 q 227 1217 239 1207 q 203 1228 215 1228 q 178 1213 189 1228 q 160 1176 167 1199 l 90 1210 q 133 1288 104 1258 q 193 1318 163 1318 q 233 1308 215 1318 q 266 1283 251 1297 q 292 1260 281 1269 q 315 1250 304 1250 q 337 1263 328 1250 q 356 1300 346 1275 z "},"Â":{"ha":556,"x_min":14,"x_max":543,"o":"m 406 206 l 139 206 l 157 310 l 385 310 l 406 206 m 278 574 l 147 0 l 14 0 l 242 875 l 314 875 l 543 0 l 406 0 l 278 574 m 129 901 l 83 971 l 263 1111 l 297 1111 l 472 974 l 425 901 l 281 993 l 129 901 z "},"Ấ":{"ha":556,"x_min":14,"x_max":615,"o":"m 406 206 l 139 206 l 157 310 l 385 310 l 406 206 m 278 574 l 147 0 l 14 0 l 242 875 l 314 875 l 543 0 l 406 0 l 278 574 z "},"Ậ":{"ha":556,"x_min":14,"x_max":543,"o":"m 406 206 l 139 206 l 157 310 l 385 310 l 406 206 m 278 574 l 147 0 l 14 0 l 242 875 l 314 875 l 543 0 l 406 0 l 278 574 m 129 901 l 83 971 l 263 1111 l 297 1111 l 472 974 l 425 901 l 281 993 l 129 901 z "},"Ầ":{"ha":556,"x_min":14,"x_max":543,"o":"m 406 206 l 139 206 l 157 310 l 385 310 l 406 206 m 278 574 l 147 0 l 14 0 l 242 875 l 314 875 l 543 0 l 406 0 l 278 574 z "},"Ẩ":{"ha":556,"x_min":14,"x_max":544,"o":"m 406 206 l 139 206 l 157 310 l 385 310 l 406 206 m 278 574 l 147 0 l 14 0 l 242 875 l 314 875 l 543 0 l 406 0 l 278 574 z "},"Ẫ":{"ha":556,"x_min":14,"x_max":543,"o":"m 406 206 l 139 206 l 157 310 l 385 310 l 406 206 m 278 574 l 147 0 l 14 0 l 242 875 l 314 875 l 543 0 l 406 0 l 278 574 z "},"Ȁ":{"ha":556,"x_min":14,"x_max":543,"o":"m 406 206 l 139 206 l 157 310 l 385 310 l 406 206 m 278 574 l 147 0 l 14 0 l 242 875 l 314 875 l 543 0 l 406 0 l 278 574 z "},"Ä":{"ha":556,"x_min":14,"x_max":543,"o":"m 406 206 l 139 206 l 157 310 l 385 310 l 406 206 m 278 574 l 147 0 l 14 0 l 242 875 l 314 875 l 543 0 l 406 0 l 278 574 z "},"Ạ":{"ha":556,"x_min":14,"x_max":543,"o":"m 406 206 l 139 206 l 157 310 l 385 310 l 406 206 m 278 574 l 147 0 l 14 0 l 242 875 l 314 875 l 543 0 l 406 0 l 278 574 z "},"À":{"ha":556,"x_min":14,"x_max":543,"o":"m 406 206 l 139 206 l 157 310 l 385 310 l 406 206 m 278 574 l 147 0 l 14 0 l 242 875 l 314 875 l 543 0 l 406 0 l 278 574 z "},"Ả":{"ha":556,"x_min":14,"x_max":543,"o":"m 406 206 l 139 206 l 157 310 l 385 310 l 406 206 m 278 574 l 147 0 l 14 0 l 242 875 l 314 875 l 543 0 l 406 0 l 278 574 m 401 1115 q 391 1070 401 1089 q 367 1035 381 1051 q 342 1002 353 1019 q 331 963 331 985 l 331 949 l 243 949 l 243 986 q 253 1022 243 1006 q 276 1051 263 1038 q 301 1078 290 1065 q 311 1104 311 1092 q 301 1130 311 1121 q 278 1139 292 1139 q 244 1129 258 1139 q 219 1096 229 1119 l 175 1174 q 227 1214 197 1201 q 288 1226 257 1226 q 348 1213 322 1226 q 388 1174 374 1199 q 401 1115 401 1150 z "},"Ȃ":{"ha":556,"x_min":14,"x_max":543,"o":"m 406 206 l 139 206 l 157 310 l 385 310 l 406 206 m 278 574 l 147 0 l 14 0 l 242 875 l 314 875 l 543 0 l 406 0 l 278 574 m 196 958 l 110 997 q 180 1097 136 1064 q 278 1131 224 1131 q 378 1097 333 1131 q 449 997 422 1064 l 363 958 q 327 1025 347 1003 q 278 1047 307 1047 q 244 1037 260 1047 q 217 1007 229 1026 q 196 958 206 988 z "},"Ā":{"ha":556,"x_min":14,"x_max":543,"o":"m 406 206 l 139 206 l 157 310 l 385 310 l 406 206 m 278 574 l 147 0 l 14 0 l 242 875 l 314 875 l 543 0 l 406 0 l 278 574 z "},"Ą":{"ha":556,"x_min":14,"x_max":543,"o":"m 406 206 l 139 206 l 157 310 l 385 310 l 406 206 m 278 574 l 147 0 l 14 0 l 242 875 l 314 875 l 543 0 l 406 0 l 278 574 m 500 -208 l 450 -331 q 367 -290 400 -314 q 319 -237 335 -267 q 303 -175 303 -207 q 320 -103 303 -140 q 372 -31 338 -67 q 456 38 407 6 l 503 0 q 460 -49 478 -25 q 434 -94 443 -72 q 425 -133 425 -115 q 444 -178 425 -160 q 500 -208 463 -197 z "},"Å":{"ha":556,"x_min":14,"x_max":543,"o":"m 406 206 l 139 206 l 157 310 l 385 310 l 406 206 m 278 574 l 147 0 l 14 0 l 242 875 l 314 875 l 543 0 l 406 0 l 278 574 z "},"Ǻ":{"ha":556,"x_min":14,"x_max":543,"o":"m 406 206 l 139 206 l 157 310 l 385 310 l 406 206 m 278 574 l 147 0 l 14 0 l 242 875 l 314 875 l 543 0 l 406 0 l 278 574 z "},"Ã":{"ha":556,"x_min":14,"x_max":543,"o":"m 406 206 l 139 206 l 157 310 l 385 310 l 406 206 m 278 574 l 147 0 l 14 0 l 242 875 l 314 875 l 543 0 l 406 0 l 278 574 z "},"Æ":{"ha":556,"x_min":4,"x_max":553,"o":"m 4 0 l 218 865 l 553 865 l 553 746 l 390 746 l 390 511 l 525 511 l 525 390 l 390 390 l 390 119 l 550 119 l 550 0 l 269 0 l 269 222 l 179 222 l 128 0 l 4 0 m 200 340 l 269 340 l 281 708 l 279 708 l 200 340 z "},"Ǽ":{"ha":556,"x_min":4,"x_max":553,"o":"m 4 0 l 218 865 l 553 865 l 553 746 l 390 746 l 390 511 l 525 511 l 525 390 l 390 390 l 390 119 l 550 119 l 550 0 l 269 0 l 269 222 l 179 222 l 128 0 l 4 0 m 200 340 l 269 340 l 281 708 l 279 708 l 200 340 z "},"B":{"ha":556,"x_min":42,"x_max":522,"o":"m 42 0 l 42 865 l 253 865 q 355 851 310 865 q 431 811 400 838 q 479 744 463 785 q 496 650 496 704 q 485 566 496 604 q 451 501 474 528 q 397 461 429 475 q 447 428 424 449 q 488 380 471 407 q 513 319 504 353 q 522 247 522 286 q 506 142 522 189 q 455 65 489 96 q 370 17 421 33 q 251 0 319 0 l 42 0 m 175 122 l 265 122 q 329 136 303 122 q 370 178 356 150 q 385 253 385 207 q 371 331 385 297 q 327 383 357 364 q 247 401 297 401 l 175 401 l 175 122 m 175 519 l 243 519 q 315 534 289 519 q 353 575 342 549 q 364 638 364 601 q 358 682 364 663 q 338 715 351 701 q 304 738 325 729 q 254 746 283 746 l 175 746 l 175 519 z "},"C":{"ha":556,"x_min":35,"x_max":532,"o":"m 313 -15 q 206 9 256 -15 q 117 85 156 33 q 57 222 79 138 q 35 428 35 307 q 51 611 35 535 q 97 739 68 688 q 163 820 126 790 q 240 863 200 850 q 319 875 281 875 q 451 838 397 875 q 532 733 504 800 l 460 646 l 451 636 l 443 644 q 442 668 443 656 q 429 700 440 681 q 380 742 406 731 q 326 754 354 754 q 266 735 294 754 q 215 678 238 717 q 181 579 193 640 q 168 433 168 518 q 180 290 168 351 q 213 188 192 229 q 261 127 233 147 q 321 107 289 107 q 371 117 349 107 q 413 149 393 128 q 447 199 432 169 l 522 108 q 434 14 485 43 q 313 -15 383 -15 l 313 -15 z "},"Ć":{"ha":556,"x_min":35,"x_max":532,"o":"m 313 -15 q 206 9 256 -15 q 117 85 156 33 q 57 222 79 138 q 35 428 35 307 q 51 611 35 535 q 97 739 68 688 q 163 820 126 790 q 240 863 200 850 q 319 875 281 875 q 451 838 397 875 q 532 733 504 800 l 460 646 l 451 636 l 443 644 q 442 668 443 656 q 429 700 440 681 q 380 742 406 731 q 326 754 354 754 q 266 735 294 754 q 215 678 238 717 q 181 579 193 640 q 168 433 168 518 q 180 290 168 351 q 213 188 192 229 q 261 127 233 147 q 321 107 289 107 q 371 117 349 107 q 413 149 393 128 q 447 199 432 169 l 522 108 q 434 14 485 43 q 313 -15 383 -15 l 313 -15 z "},"Č":{"ha":556,"x_min":35,"x_max":532,"o":"m 313 -15 q 206 9 256 -15 q 117 85 156 33 q 57 222 79 138 q 35 428 35 307 q 51 611 35 535 q 97 739 68 688 q 163 820 126 790 q 240 863 200 850 q 319 875 281 875 q 451 838 397 875 q 532 733 504 800 l 460 646 l 451 636 l 443 644 q 442 668 443 656 q 429 700 440 681 q 380 742 406 731 q 326 754 354 754 q 266 735 294 754 q 215 678 238 717 q 181 579 193 640 q 168 433 168 518 q 180 290 168 351 q 213 188 192 229 q 261 127 233 147 q 321 107 289 107 q 371 117 349 107 q 413 149 393 128 q 447 199 432 169 l 522 108 q 434 14 485 43 q 313 -15 383 -15 l 313 -15 z "},"Ç":{"ha":556,"x_min":35,"x_max":532,"o":"m 313 -15 q 206 9 256 -15 q 117 85 156 33 q 57 222 79 138 q 35 428 35 307 q 51 611 35 535 q 97 739 68 688 q 163 820 126 790 q 240 863 200 850 q 319 875 281 875 q 451 838 397 875 q 532 733 504 800 l 460 646 l 451 636 l 443 644 q 442 668 443 656 q 429 700 440 681 q 380 742 406 731 q 326 754 354 754 q 266 735 294 754 q 215 678 238 717 q 181 579 193 640 q 168 433 168 518 q 180 290 168 351 q 213 188 192 229 q 261 127 233 147 q 321 107 289 107 q 371 117 349 107 q 413 149 393 128 q 447 199 432 169 l 522 108 q 434 14 485 43 q 313 -15 383 -15 l 313 -15 z "},"Ḉ":{"ha":556,"x_min":35,"x_max":532,"o":"m 313 -15 q 206 9 256 -15 q 117 85 156 33 q 57 222 79 138 q 35 428 35 307 q 51 611 35 535 q 97 739 68 688 q 163 820 126 790 q 240 863 200 850 q 319 875 281 875 q 451 838 397 875 q 532 733 504 800 l 460 646 l 451 636 l 443 644 q 442 668 443 656 q 429 700 440 681 q 380 742 406 731 q 326 754 354 754 q 266 735 294 754 q 215 678 238 717 q 181 579 193 640 q 168 433 168 518 q 180 290 168 351 q 213 188 192 229 q 261 127 233 147 q 321 107 289 107 q 371 117 349 107 q 413 149 393 128 q 447 199 432 169 l 522 108 q 434 14 485 43 q 313 -15 383 -15 l 313 -15 z "},"Ĉ":{"ha":556,"x_min":35,"x_max":532,"o":"m 313 -15 q 206 9 256 -15 q 117 85 156 33 q 57 222 79 138 q 35 428 35 307 q 51 611 35 535 q 97 739 68 688 q 163 820 126 790 q 240 863 200 850 q 319 875 281 875 q 451 838 397 875 q 532 733 504 800 l 460 646 l 451 636 l 443 644 q 442 668 443 656 q 429 700 440 681 q 380 742 406 731 q 326 754 354 754 q 266 735 294 754 q 215 678 238 717 q 181 579 193 640 q 168 433 168 518 q 180 290 168 351 q 213 188 192 229 q 261 127 233 147 q 321 107 289 107 q 371 117 349 107 q 413 149 393 128 q 447 199 432 169 l 522 108 q 434 14 485 43 q 313 -15 383 -15 l 313 -15 m 151 901 l 106 971 l 285 1111 l 319 1111 l 494 974 l 447 901 l 303 993 l 151 901 z "},"Ċ":{"ha":556,"x_min":35,"x_max":532,"o":"m 313 -15 q 206 9 256 -15 q 117 85 156 33 q 57 222 79 138 q 35 428 35 307 q 51 611 35 535 q 97 739 68 688 q 163 820 126 790 q 240 863 200 850 q 319 875 281 875 q 451 838 397 875 q 532 733 504 800 l 460 646 l 451 636 l 443 644 q 442 668 443 656 q 429 700 440 681 q 380 742 406 731 q 326 754 354 754 q 266 735 294 754 q 215 678 238 717 q 181 579 193 640 q 168 433 168 518 q 180 290 168 351 q 213 188 192 229 q 261 127 233 147 q 321 107 289 107 q 371 117 349 107 q 413 149 393 128 q 447 199 432 169 l 522 108 q 434 14 485 43 q 313 -15 383 -15 l 313 -15 z "},"D":{"ha":556,"x_min":46,"x_max":526,"o":"m 46 -1 l 46 865 l 225 865 q 328 853 285 865 q 401 815 371 840 q 454 751 432 790 q 494 666 478 714 q 518 560 510 618 q 526 428 526 501 q 506 245 525 325 q 449 110 488 165 q 352 27 411 56 q 211 -1 293 -1 l 46 -1 m 178 117 l 215 117 q 319 153 279 117 q 376 259 358 190 q 394 424 394 328 q 379 597 394 525 q 327 708 364 668 q 226 747 290 747 l 178 747 l 178 117 z "},"Ð":{"ha":556,"x_min":18,"x_max":538,"o":"m 60 0 l 60 400 l 18 400 l 18 515 l 60 515 l 60 865 l 238 865 q 329 853 289 865 q 400 818 369 840 q 452 769 431 796 q 488 714 474 742 q 514 645 503 686 q 531 550 525 604 q 538 428 538 496 q 519 238 538 318 q 462 104 500 157 q 365 26 424 51 q 225 0 306 0 l 60 0 m 189 119 l 226 119 q 328 153 289 119 q 388 255 368 188 q 407 424 407 322 q 390 597 407 526 q 334 704 372 668 q 233 740 296 740 l 189 740 l 189 515 l 285 515 l 285 400 l 189 400 l 189 119 z "},"Ď":{"ha":556,"x_min":46,"x_max":526,"o":"m 46 -1 l 46 865 l 225 865 q 328 853 285 865 q 401 815 371 840 q 454 751 432 790 q 494 666 478 714 q 518 560 510 618 q 526 428 526 501 q 506 245 525 325 q 449 110 488 165 q 352 27 411 56 q 211 -1 293 -1 l 46 -1 m 178 117 l 215 117 q 319 153 279 117 q 376 259 358 190 q 394 424 394 328 q 379 597 394 525 q 327 708 364 668 q 226 747 290 747 l 178 747 l 178 117 z "},"Đ":{"ha":556,"x_min":18,"x_max":538,"o":"m 60 0 l 60 400 l 18 400 l 18 515 l 60 515 l 60 865 l 238 865 q 329 853 289 865 q 400 818 369 840 q 452 769 431 796 q 488 714 474 742 q 514 645 503 686 q 531 550 525 604 q 538 428 538 496 q 519 238 538 318 q 462 104 500 157 q 365 26 424 51 q 225 0 306 0 l 60 0 m 189 119 l 226 119 q 328 153 289 119 q 388 255 368 188 q 407 424 407 322 q 390 597 407 526 q 334 704 372 668 q 233 740 296 740 l 189 740 l 189 515 l 285 515 l 285 400 l 189 400 l 189 119 z "},"Ḍ":{"ha":556,"x_min":46,"x_max":526,"o":"m 46 -1 l 46 865 l 225 865 q 328 853 285 865 q 401 815 371 840 q 454 751 432 790 q 494 666 478 714 q 518 560 510 618 q 526 428 526 501 q 506 245 525 325 q 449 110 488 165 q 352 27 411 56 q 211 -1 293 -1 l 46 -1 m 178 117 l 215 117 q 319 153 279 117 q 376 259 358 190 q 394 424 394 328 q 379 597 394 525 q 327 708 364 668 q 226 747 290 747 l 178 747 l 178 117 z "},"Ḏ":{"ha":556,"x_min":46,"x_max":526,"o":"m 46 -1 l 46 865 l 225 865 q 328 853 285 865 q 401 815 371 840 q 454 751 432 790 q 494 666 478 714 q 518 560 510 618 q 526 428 526 501 q 506 245 525 325 q 449 110 488 165 q 352 27 411 56 q 211 -1 293 -1 l 46 -1 m 178 117 l 215 117 q 319 153 279 117 q 376 259 358 190 q 394 424 394 328 q 379 597 394 525 q 327 708 364 668 q 226 747 290 747 l 178 747 l 178 117 z "},"E":{"ha":556,"x_min":57,"x_max":506,"o":"m 57 0 l 57 867 l 506 867 l 506 746 l 188 746 l 188 511 l 447 511 l 447 390 l 188 390 l 188 121 l 503 121 l 503 0 l 57 0 z "},"É":{"ha":556,"x_min":57,"x_max":506,"o":"m 57 0 l 57 867 l 506 867 l 506 746 l 188 746 l 188 511 l 447 511 l 447 390 l 188 390 l 188 121 l 503 121 l 503 0 l 57 0 z "},"Ĕ":{"ha":556,"x_min":57,"x_max":506,"o":"m 57 0 l 57 867 l 506 867 l 506 746 l 188 746 l 188 511 l 447 511 l 447 390 l 188 390 l 188 121 l 503 121 l 503 0 l 57 0 z "},"Ě":{"ha":556,"x_min":57,"x_max":506,"o":"m 57 0 l 57 867 l 506 867 l 506 746 l 188 746 l 188 511 l 447 511 l 447 390 l 188 390 l 188 121 l 503 121 l 503 0 l 57 0 z "},"Ḝ":{"ha":556,"x_min":57,"x_max":506,"o":"m 57 0 l 57 867 l 506 867 l 506 746 l 188 746 l 188 511 l 447 511 l 447 390 l 188 390 l 188 121 l 503 121 l 503 0 l 57 0 z "},"Ê":{"ha":556,"x_min":57,"x_max":506,"o":"m 57 0 l 57 867 l 506 867 l 506 746 l 188 746 l 188 511 l 447 511 l 447 390 l 188 390 l 188 121 l 503 121 l 503 0 l 57 0 m 144 901 l 99 971 l 278 1111 l 313 1111 l 488 974 l 440 901 l 296 993 l 144 901 z "},"Ế":{"ha":556,"x_min":57,"x_max":631,"o":"m 57 0 l 57 867 l 506 867 l 506 746 l 188 746 l 188 511 l 447 511 l 447 390 l 188 390 l 188 121 l 503 121 l 503 0 l 57 0 z "},"Ệ":{"ha":556,"x_min":57,"x_max":506,"o":"m 57 0 l 57 867 l 506 867 l 506 746 l 188 746 l 188 511 l 447 511 l 447 390 l 188 390 l 188 121 l 503 121 l 503 0 l 57 0 m 144 901 l 99 971 l 278 1111 l 313 1111 l 488 974 l 440 901 l 296 993 l 144 901 z "},"Ề":{"ha":556,"x_min":57,"x_max":506,"o":"m 57 0 l 57 867 l 506 867 l 506 746 l 188 746 l 188 511 l 447 511 l 447 390 l 188 390 l 188 121 l 503 121 l 503 0 l 57 0 z "},"Ể":{"ha":556,"x_min":57,"x_max":560,"o":"m 57 0 l 57 867 l 506 867 l 506 746 l 188 746 l 188 511 l 447 511 l 447 390 l 188 390 l 188 121 l 503 121 l 503 0 l 57 0 z "},"Ễ":{"ha":556,"x_min":57,"x_max":506,"o":"m 57 0 l 57 867 l 506 867 l 506 746 l 188 746 l 188 511 l 447 511 l 447 390 l 188 390 l 188 121 l 503 121 l 503 0 l 57 0 z "},"Ȅ":{"ha":556,"x_min":57,"x_max":506,"o":"m 57 0 l 57 867 l 506 867 l 506 746 l 188 746 l 188 511 l 447 511 l 447 390 l 188 390 l 188 121 l 503 121 l 503 0 l 57 0 z "},"Ë":{"ha":556,"x_min":57,"x_max":506,"o":"m 57 0 l 57 867 l 506 867 l 506 746 l 188 746 l 188 511 l 447 511 l 447 390 l 188 390 l 188 121 l 503 121 l 503 0 l 57 0 z "},"Ė":{"ha":556,"x_min":57,"x_max":506,"o":"m 57 0 l 57 867 l 506 867 l 506 746 l 188 746 l 188 511 l 447 511 l 447 390 l 188 390 l 188 121 l 503 121 l 503 0 l 57 0 z "},"Ẹ":{"ha":556,"x_min":57,"x_max":506,"o":"m 57 0 l 57 867 l 506 867 l 506 746 l 188 746 l 188 511 l 447 511 l 447 390 l 188 390 l 188 121 l 503 121 l 503 0 l 57 0 z "},"È":{"ha":556,"x_min":57,"x_max":506,"o":"m 57 0 l 57 867 l 506 867 l 506 746 l 188 746 l 188 511 l 447 511 l 447 390 l 188 390 l 188 121 l 503 121 l 503 0 l 57 0 z "},"Ẻ":{"ha":556,"x_min":57,"x_max":506,"o":"m 57 0 l 57 867 l 506 867 l 506 746 l 188 746 l 188 511 l 447 511 l 447 390 l 188 390 l 188 121 l 503 121 l 503 0 l 57 0 m 417 1115 q 406 1070 417 1089 q 382 1035 396 1051 q 357 1002 368 1019 q 346 963 346 985 l 346 949 l 258 949 l 258 986 q 268 1022 258 1006 q 292 1051 278 1038 q 316 1078 306 1065 q 326 1104 326 1092 q 317 1130 326 1121 q 293 1139 307 1139 q 259 1129 274 1139 q 235 1096 244 1119 l 190 1174 q 242 1214 213 1201 q 303 1226 272 1226 q 363 1213 338 1226 q 403 1174 389 1199 q 417 1115 417 1150 z "},"Ȇ":{"ha":556,"x_min":57,"x_max":506,"o":"m 57 0 l 57 867 l 506 867 l 506 746 l 188 746 l 188 511 l 447 511 l 447 390 l 188 390 l 188 121 l 503 121 l 503 0 l 57 0 m 211 958 l 125 997 q 195 1097 151 1064 q 293 1131 239 1131 q 393 1097 349 1131 q 464 997 438 1064 l 378 958 q 342 1025 363 1003 q 293 1047 322 1047 q 260 1037 275 1047 q 233 1007 244 1026 q 211 958 221 988 z "},"Ē":{"ha":556,"x_min":57,"x_max":506,"o":"m 57 0 l 57 867 l 506 867 l 506 746 l 188 746 l 188 511 l 447 511 l 447 390 l 188 390 l 188 121 l 503 121 l 503 0 l 57 0 z "},"Ḗ":{"ha":556,"x_min":57,"x_max":506,"o":"m 57 0 l 57 867 l 506 867 l 506 746 l 188 746 l 188 511 l 447 511 l 447 390 l 188 390 l 188 121 l 503 121 l 503 0 l 57 0 z "},"Ḕ":{"ha":556,"x_min":57,"x_max":506,"o":"m 57 0 l 57 867 l 506 867 l 506 746 l 188 746 l 188 511 l 447 511 l 447 390 l 188 390 l 188 121 l 503 121 l 503 0 l 57 0 z "},"Ę":{"ha":556,"x_min":57,"x_max":506,"o":"m 57 0 l 57 867 l 506 867 l 506 746 l 188 746 l 188 511 l 447 511 l 447 390 l 188 390 l 188 121 l 503 121 l 503 0 l 57 0 m 438 -208 l 388 -331 q 305 -290 338 -314 q 256 -237 272 -267 q 240 -175 240 -207 q 258 -103 240 -140 q 310 -31 275 -67 q 393 38 344 6 l 440 0 q 398 -49 415 -25 q 372 -94 381 -72 q 363 -133 363 -115 q 381 -178 363 -160 q 438 -208 400 -197 z "},"Ẽ":{"ha":556,"x_min":57,"x_max":506,"o":"m 57 0 l 57 867 l 506 867 l 506 746 l 188 746 l 188 511 l 447 511 l 447 390 l 188 390 l 188 121 l 503 121 l 503 0 l 57 0 z "},"Ƹ":{"ha":556,"x_min":56,"x_max":497,"o":"m 297 -22 q 169 12 224 -22 q 85 105 115 46 q 56 240 56 164 q 76 363 56 308 q 132 455 96 417 q 218 514 168 493 q 328 535 268 535 l 374 535 l 374 418 q 283 410 319 419 q 226 378 247 400 q 194 323 204 356 q 185 247 185 290 q 201 165 185 197 q 246 117 218 132 q 307 103 274 103 q 370 112 344 103 q 417 142 396 121 q 432 168 429 158 q 433 188 435 178 l 440 197 l 450 189 l 497 74 q 409 1 458 24 q 297 -22 360 -22 l 297 -22 m 78 754 l 78 865 l 457 865 l 457 740 l 231 740 l 374 535 l 265 499 l 78 754 z "},"F":{"ha":556,"x_min":74,"x_max":503,"o":"m 74 0 l 74 867 l 503 867 l 503 746 l 197 746 l 197 526 l 444 526 l 444 407 l 197 407 l 197 0 l 74 0 z "},"G":{"ha":556,"x_min":29,"x_max":524,"o":"m 307 -15 q 157 37 219 -15 q 62 188 94 89 q 29 426 29 288 q 47 615 29 538 q 94 744 64 693 q 160 825 124 796 q 235 866 197 854 q 307 878 274 878 q 396 862 354 878 q 470 816 438 846 q 521 744 503 786 l 450 656 l 442 646 l 432 653 q 428 676 431 664 q 414 707 426 688 q 387 733 401 722 q 354 749 372 743 q 311 756 336 756 q 265 746 288 756 q 224 713 243 736 q 192 654 206 690 q 170 566 178 618 q 163 443 163 514 q 173 294 163 357 q 202 188 183 231 q 247 126 221 146 q 306 106 274 106 q 331 108 318 106 q 356 113 344 110 q 380 124 368 117 q 401 142 392 132 l 401 319 l 296 319 l 296 442 l 524 442 l 524 72 q 419 5 474 25 q 307 -15 364 -15 l 307 -15 z "},"Ğ":{"ha":556,"x_min":29,"x_max":524,"o":"m 307 -15 q 157 37 219 -15 q 62 188 94 89 q 29 426 29 288 q 47 615 29 538 q 94 744 64 693 q 160 825 124 796 q 235 866 197 854 q 307 878 274 878 q 396 862 354 878 q 470 816 438 846 q 521 744 503 786 l 450 656 l 442 646 l 432 653 q 428 676 431 664 q 414 707 426 688 q 387 733 401 722 q 354 749 372 743 q 311 756 336 756 q 265 746 288 756 q 224 713 243 736 q 192 654 206 690 q 170 566 178 618 q 163 443 163 514 q 173 294 163 357 q 202 188 183 231 q 247 126 221 146 q 306 106 274 106 q 331 108 318 106 q 356 113 344 110 q 380 124 368 117 q 401 142 392 132 l 401 319 l 296 319 l 296 442 l 524 442 l 524 72 q 419 5 474 25 q 307 -15 364 -15 l 307 -15 z "},"Ǧ":{"ha":556,"x_min":29,"x_max":524,"o":"m 307 -15 q 157 37 219 -15 q 62 188 94 89 q 29 426 29 288 q 47 615 29 538 q 94 744 64 693 q 160 825 124 796 q 235 866 197 854 q 307 878 274 878 q 396 862 354 878 q 470 816 438 846 q 521 744 503 786 l 450 656 l 442 646 l 432 653 q 428 676 431 664 q 414 707 426 688 q 387 733 401 722 q 354 749 372 743 q 311 756 336 756 q 265 746 288 756 q 224 713 243 736 q 192 654 206 690 q 170 566 178 618 q 163 443 163 514 q 173 294 163 357 q 202 188 183 231 q 247 126 221 146 q 306 106 274 106 q 331 108 318 106 q 356 113 344 110 q 380 124 368 117 q 401 142 392 132 l 401 319 l 296 319 l 296 442 l 524 442 l 524 72 q 419 5 474 25 q 307 -15 364 -15 l 307 -15 z "},"Ĝ":{"ha":556,"x_min":29,"x_max":524,"o":"m 307 -15 q 157 37 219 -15 q 62 188 94 89 q 29 426 29 288 q 47 615 29 538 q 94 744 64 693 q 160 825 124 796 q 235 866 197 854 q 307 878 274 878 q 396 862 354 878 q 470 816 438 846 q 521 744 503 786 l 450 656 l 442 646 l 432 653 q 428 676 431 664 q 414 707 426 688 q 387 733 401 722 q 354 749 372 743 q 311 756 336 756 q 265 746 288 756 q 224 713 243 736 q 192 654 206 690 q 170 566 178 618 q 163 443 163 514 q 173 294 163 357 q 202 188 183 231 q 247 126 221 146 q 306 106 274 106 q 331 108 318 106 q 356 113 344 110 q 380 124 368 117 q 401 142 392 132 l 401 319 l 296 319 l 296 442 l 524 442 l 524 72 q 419 5 474 25 q 307 -15 364 -15 l 307 -15 m 151 901 l 106 971 l 285 1111 l 319 1111 l 494 974 l 447 901 l 303 993 l 151 901 z "},"Ģ":{"ha":556,"x_min":29,"x_max":524,"o":"m 307 -15 q 157 37 219 -15 q 62 188 94 89 q 29 426 29 288 q 47 615 29 538 q 94 744 64 693 q 160 825 124 796 q 235 866 197 854 q 307 878 274 878 q 396 862 354 878 q 470 816 438 846 q 521 744 503 786 l 450 656 l 442 646 l 432 653 q 428 676 431 664 q 414 707 426 688 q 387 733 401 722 q 354 749 372 743 q 311 756 336 756 q 265 746 288 756 q 224 713 243 736 q 192 654 206 690 q 170 566 178 618 q 163 443 163 514 q 173 294 163 357 q 202 188 183 231 q 247 126 221 146 q 306 106 274 106 q 331 108 318 106 q 356 113 344 110 q 380 124 368 117 q 401 142 392 132 l 401 319 l 296 319 l 296 442 l 524 442 l 524 72 q 419 5 474 25 q 307 -15 364 -15 l 307 -15 m 281 -399 l 213 -344 q 259 -280 242 -312 q 276 -224 276 -247 q 265 -192 276 -207 q 241 -159 253 -176 q 229 -115 229 -142 q 253 -56 229 -76 q 310 -35 278 -35 q 374 -63 350 -35 q 399 -143 399 -92 q 385 -225 399 -183 q 346 -310 372 -267 q 281 -399 319 -353 z "},"Ġ":{"ha":556,"x_min":29,"x_max":524,"o":"m 307 -15 q 157 37 219 -15 q 62 188 94 89 q 29 426 29 288 q 47 615 29 538 q 94 744 64 693 q 160 825 124 796 q 235 866 197 854 q 307 878 274 878 q 396 862 354 878 q 470 816 438 846 q 521 744 503 786 l 450 656 l 442 646 l 432 653 q 428 676 431 664 q 414 707 426 688 q 387 733 401 722 q 354 749 372 743 q 311 756 336 756 q 265 746 288 756 q 224 713 243 736 q 192 654 206 690 q 170 566 178 618 q 163 443 163 514 q 173 294 163 357 q 202 188 183 231 q 247 126 221 146 q 306 106 274 106 q 331 108 318 106 q 356 113 344 110 q 380 124 368 117 q 401 142 392 132 l 401 319 l 296 319 l 296 442 l 524 442 l 524 72 q 419 5 474 25 q 307 -15 364 -15 l 307 -15 z "},"Ḡ":{"ha":556,"x_min":29,"x_max":524,"o":"m 307 -15 q 157 37 219 -15 q 62 188 94 89 q 29 426 29 288 q 47 615 29 538 q 94 744 64 693 q 160 825 124 796 q 235 866 197 854 q 307 878 274 878 q 396 862 354 878 q 470 816 438 846 q 521 744 503 786 l 450 656 l 442 646 l 432 653 q 428 676 431 664 q 414 707 426 688 q 387 733 401 722 q 354 749 372 743 q 311 756 336 756 q 265 746 288 756 q 224 713 243 736 q 192 654 206 690 q 170 566 178 618 q 163 443 163 514 q 173 294 163 357 q 202 188 183 231 q 247 126 221 146 q 306 106 274 106 q 331 108 318 106 q 356 113 344 110 q 380 124 368 117 q 401 142 392 132 l 401 319 l 296 319 l 296 442 l 524 442 l 524 72 q 419 5 474 25 q 307 -15 364 -15 l 307 -15 z "},"H":{"ha":556,"x_min":42,"x_max":518,"o":"m 42 865 l 176 865 l 188 865 l 188 854 q 179 835 181 846 q 178 801 178 825 l 178 513 l 372 513 l 372 865 l 507 865 l 518 865 l 518 854 q 510 836 511 846 q 508 803 508 826 l 508 0 l 371 0 l 371 393 l 178 393 l 178 0 l 42 0 l 42 865 z "},"Ħ":{"ha":556,"x_min":6,"x_max":547,"o":"m 6 674 l 6 790 l 547 790 l 547 674 l 6 674 m 42 865 l 176 865 l 188 865 l 188 854 q 179 835 181 846 q 178 801 178 825 l 178 513 l 372 513 l 372 865 l 507 865 l 518 865 l 518 854 q 510 836 511 846 q 508 803 508 826 l 508 0 l 371 0 l 371 393 l 178 393 l 178 0 l 42 0 l 42 865 z "},"Ḫ":{"ha":556,"x_min":42,"x_max":526,"o":"m 42 865 l 176 865 l 188 865 l 188 854 q 179 835 181 846 q 178 801 178 825 l 178 513 l 372 513 l 372 865 l 507 865 l 518 865 l 518 854 q 510 836 511 846 q 508 803 508 826 l 508 0 l 371 0 l 371 393 l 178 393 l 178 0 l 42 0 l 42 865 z "},"Ĥ":{"ha":556,"x_min":42,"x_max":518,"o":"m 42 865 l 176 865 l 188 865 l 188 854 q 179 835 181 846 q 178 801 178 825 l 178 513 l 372 513 l 372 865 l 507 865 l 518 865 l 518 854 q 510 836 511 846 q 508 803 508 826 l 508 0 l 371 0 l 371 393 l 178 393 l 178 0 l 42 0 l 42 865 m 156 901 l 110 971 l 289 1111 l 324 1111 l 499 974 l 451 901 l 307 993 l 156 901 z "},"Ḥ":{"ha":556,"x_min":42,"x_max":518,"o":"m 42 865 l 176 865 l 188 865 l 188 854 q 179 835 181 846 q 178 801 178 825 l 178 513 l 372 513 l 372 865 l 507 865 l 518 865 l 518 854 q 510 836 511 846 q 508 803 508 826 l 508 0 l 371 0 l 371 393 l 178 393 l 178 0 l 42 0 l 42 865 z "},"I":{"ha":556,"x_min":76,"x_max":472,"o":"m 76 0 l 76 119 l 207 119 l 207 744 l 82 744 l 82 865 l 467 865 l 467 744 l 336 744 l 336 119 l 472 119 l 472 0 l 76 0 z "},"Í":{"ha":556,"x_min":76,"x_max":472,"o":"m 76 0 l 76 119 l 207 119 l 207 744 l 82 744 l 82 865 l 467 865 l 467 744 l 336 744 l 336 119 l 472 119 l 472 0 l 76 0 z "},"Ĭ":{"ha":556,"x_min":76,"x_max":472,"o":"m 76 0 l 76 119 l 207 119 l 207 744 l 82 744 l 82 865 l 467 865 l 467 744 l 336 744 l 336 119 l 472 119 l 472 0 l 76 0 z "},"Î":{"ha":556,"x_min":76,"x_max":472,"o":"m 76 0 l 76 119 l 207 119 l 207 744 l 82 744 l 82 865 l 467 865 l 467 744 l 336 744 l 336 119 l 472 119 l 472 0 l 76 0 m 122 901 l 76 971 l 256 1111 l 290 1111 l 465 974 l 418 901 l 274 993 l 122 901 z "},"Ȉ":{"ha":556,"x_min":60,"x_max":472,"o":"m 76 0 l 76 119 l 207 119 l 207 744 l 82 744 l 82 865 l 467 865 l 467 744 l 336 744 l 336 119 l 472 119 l 472 0 l 76 0 z "},"Ï":{"ha":556,"x_min":76,"x_max":472,"o":"m 76 0 l 76 119 l 207 119 l 207 744 l 82 744 l 82 865 l 467 865 l 467 744 l 336 744 l 336 119 l 472 119 l 472 0 l 76 0 z "},"Ḯ":{"ha":556,"x_min":76,"x_max":472,"o":"m 76 0 l 76 119 l 207 119 l 207 744 l 82 744 l 82 865 l 467 865 l 467 744 l 336 744 l 336 119 l 472 119 l 472 0 l 76 0 z "},"İ":{"ha":556,"x_min":76,"x_max":472,"o":"m 76 0 l 76 119 l 207 119 l 207 744 l 82 744 l 82 865 l 467 865 l 467 744 l 336 744 l 336 119 l 472 119 l 472 0 l 76 0 z "},"Ị":{"ha":556,"x_min":76,"x_max":472,"o":"m 76 0 l 76 119 l 207 119 l 207 744 l 82 744 l 82 865 l 467 865 l 467 744 l 336 744 l 336 119 l 472 119 l 472 0 l 76 0 z "},"Ì":{"ha":556,"x_min":76,"x_max":472,"o":"m 76 0 l 76 119 l 207 119 l 207 744 l 82 744 l 82 865 l 467 865 l 467 744 l 336 744 l 336 119 l 472 119 l 472 0 l 76 0 z "},"Ỉ":{"ha":556,"x_min":76,"x_max":472,"o":"m 76 0 l 76 119 l 207 119 l 207 744 l 82 744 l 82 865 l 467 865 l 467 744 l 336 744 l 336 119 l 472 119 l 472 0 l 76 0 m 394 1115 q 384 1070 394 1089 q 360 1035 374 1051 q 335 1002 346 1019 q 324 963 324 985 l 324 949 l 236 949 l 236 986 q 246 1022 236 1006 q 269 1051 256 1038 q 294 1078 283 1065 q 304 1104 304 1092 q 294 1130 304 1121 q 271 1139 285 1139 q 237 1129 251 1139 q 213 1096 222 1119 l 168 1174 q 220 1214 190 1201 q 281 1226 250 1226 q 341 1213 315 1226 q 381 1174 367 1199 q 394 1115 394 1150 z "},"Ȋ":{"ha":556,"x_min":76,"x_max":472,"o":"m 76 0 l 76 119 l 207 119 l 207 744 l 82 744 l 82 865 l 467 865 l 467 744 l 336 744 l 336 119 l 472 119 l 472 0 l 76 0 m 189 958 l 103 997 q 173 1097 129 1064 q 271 1131 217 1131 q 371 1097 326 1131 q 442 997 415 1064 l 356 958 q 320 1025 340 1003 q 271 1047 300 1047 q 238 1037 253 1047 q 210 1007 222 1026 q 189 958 199 988 z "},"Ī":{"ha":556,"x_min":76,"x_max":472,"o":"m 76 0 l 76 119 l 207 119 l 207 744 l 82 744 l 82 865 l 467 865 l 467 744 l 336 744 l 336 119 l 472 119 l 472 0 l 76 0 z "},"Į":{"ha":556,"x_min":76,"x_max":479,"o":"m 76 0 l 76 119 l 207 119 l 207 744 l 82 744 l 82 865 l 467 865 l 467 744 l 336 744 l 336 119 l 472 119 l 472 0 l 76 0 m 476 -208 l 426 -331 q 344 -290 376 -314 q 295 -237 311 -267 q 279 -175 279 -207 q 297 -103 279 -140 q 349 -31 314 -67 q 432 38 383 6 l 479 0 q 437 -49 454 -25 q 410 -94 419 -72 q 401 -133 401 -115 q 420 -178 401 -160 q 476 -208 439 -197 z "},"Ĩ":{"ha":556,"x_min":76,"x_max":472,"o":"m 76 0 l 76 119 l 207 119 l 207 744 l 82 744 l 82 865 l 467 865 l 467 744 l 336 744 l 336 119 l 472 119 l 472 0 l 76 0 z "},"J":{"ha":556,"x_min":35,"x_max":519,"o":"m 213 -18 q 114 3 161 -18 q 35 68 67 24 l 93 188 l 99 200 l 108 194 q 115 170 113 183 q 133 140 118 157 q 166 120 149 126 q 203 114 183 114 q 249 133 231 114 q 276 192 267 151 q 286 300 286 233 l 286 746 l 158 746 l 158 865 l 519 865 l 519 746 l 421 746 l 421 293 q 405 150 421 210 q 360 53 389 90 q 293 -1 331 17 q 213 -18 256 -18 l 213 -18 z "},"Ĵ":{"ha":556,"x_min":35,"x_max":547,"o":"m 213 -18 q 114 3 161 -18 q 35 68 67 24 l 93 188 l 99 200 l 108 194 q 115 170 113 183 q 133 140 118 157 q 166 120 149 126 q 203 114 183 114 q 249 133 231 114 q 276 192 267 151 q 286 300 286 233 l 286 746 l 158 746 l 158 865 l 519 865 l 519 746 l 421 746 l 421 293 q 405 150 421 210 q 360 53 389 90 q 293 -1 331 17 q 213 -18 256 -18 l 213 -18 m 204 901 l 158 971 l 338 1111 l 372 1111 l 547 974 l 500 901 l 356 993 l 204 901 z "},"K":{"ha":556,"x_min":42,"x_max":544,"o":"m 214 381 l 174 318 l 175 0 l 42 0 l 42 865 l 174 865 l 186 865 l 186 854 q 177 836 179 846 q 175 803 175 826 l 175 521 l 388 872 q 410 869 397 871 q 435 867 422 868 q 460 866 449 867 q 481 865 472 865 l 531 865 l 306 492 l 544 0 l 397 -6 l 214 381 z "},"Ķ":{"ha":556,"x_min":42,"x_max":544,"o":"m 214 381 l 174 318 l 175 0 l 42 0 l 42 865 l 174 865 l 186 865 l 186 854 q 177 836 179 846 q 175 803 175 826 l 175 521 l 388 872 q 410 869 397 871 q 435 867 422 868 q 460 866 449 867 q 481 865 472 865 l 531 865 l 306 492 l 544 0 l 397 -6 l 214 381 m 250 -399 l 182 -344 q 228 -280 211 -312 q 246 -224 246 -247 q 234 -192 246 -207 q 210 -159 222 -176 q 199 -115 199 -142 q 223 -56 199 -76 q 279 -35 247 -35 q 344 -63 319 -35 q 368 -143 368 -92 q 355 -225 368 -183 q 315 -310 342 -267 q 250 -399 289 -353 z "},"Ƙ":{"ha":556,"x_min":44,"x_max":533,"o":"m 44 865 l 179 865 l 192 865 l 192 854 q 181 836 183 846 q 179 803 179 826 l 179 543 q 264 701 226 638 q 335 802 301 764 q 402 856 369 840 q 471 872 435 872 q 503 869 488 872 q 529 858 519 865 l 528 722 l 528 708 l 519 708 q 506 724 513 717 q 481 736 499 732 q 475 736 478 736 q 468 736 472 736 q 433 724 451 736 q 391 685 414 713 q 338 608 368 657 q 269 485 307 560 q 179 307 231 411 l 179 0 l 44 0 l 44 865 m 178 429 l 257 558 l 533 1 l 388 -7 l 178 429 z "},"L":{"ha":556,"x_min":61,"x_max":507,"o":"m 61 865 l 196 865 l 208 865 l 208 854 q 199 836 201 846 q 197 803 197 826 l 197 122 l 507 122 l 507 0 l 61 0 l 61 865 z "},"Ǉ":{"ha":556,"x_min":53,"x_max":517,"o":"m 318 -240 q 230 -220 271 -240 q 157 -161 189 -200 l 233 -57 q 242 -70 242 -65 q 244 -80 243 -75 q 251 -94 244 -85 q 265 -107 257 -100 q 285 -119 274 -114 q 313 -124 297 -124 q 353 -104 338 -124 q 377 -40 369 -85 q 385 81 385 6 l 385 747 l 282 747 l 282 865 l 517 865 l 517 754 l 517 754 l 517 71 q 502 -74 517 -14 q 460 -169 488 -133 q 397 -223 433 -206 q 318 -240 361 -240 m 53 0 l 53 865 l 197 865 q 194 853 197 856 q 189 845 192 851 q 186 817 186 839 l 186 119 l 314 119 l 314 0 l 53 0 z "},"Ĺ":{"ha":556,"x_min":61,"x_max":507,"o":"m 61 865 l 196 865 l 208 865 l 208 854 q 199 836 201 846 q 197 803 197 826 l 197 122 l 507 122 l 507 0 l 61 0 l 61 865 z "},"Ľ":{"ha":556,"x_min":61,"x_max":507,"o":"m 383 560 l 322 608 q 363 666 349 638 q 378 715 378 694 q 367 745 378 732 q 347 774 357 758 q 336 814 336 790 q 358 866 336 847 q 410 885 381 885 q 465 859 443 885 q 488 788 488 833 q 476 715 488 753 q 441 640 464 678 q 383 560 418 601 m 61 865 l 196 865 l 208 865 l 208 854 q 199 836 201 846 q 197 803 197 826 l 197 122 l 507 122 l 507 0 l 61 0 l 61 865 z "},"Ļ":{"ha":556,"x_min":61,"x_max":507,"o":"m 61 865 l 196 865 l 208 865 l 208 854 q 199 836 201 846 q 197 803 197 826 l 197 122 l 507 122 l 507 0 l 61 0 l 61 865 m 264 -399 l 196 -344 q 242 -280 225 -312 q 260 -224 260 -247 q 248 -192 260 -207 q 224 -159 236 -176 q 213 -115 213 -142 q 237 -56 213 -76 q 293 -35 261 -35 q 358 -63 333 -35 q 382 -143 382 -92 q 369 -225 382 -183 q 329 -310 356 -267 q 264 -399 303 -353 z "},"Ŀ":{"ha":556,"x_min":61,"x_max":507,"o":"m 61 865 l 196 865 l 208 865 l 208 854 q 199 836 201 846 q 197 803 197 826 l 197 122 l 507 122 l 507 0 l 61 0 l 61 865 m 353 372 q 289 399 315 372 q 263 464 263 425 q 289 528 263 501 q 353 556 315 556 q 417 528 390 556 q 444 464 444 501 q 418 399 444 426 q 353 372 392 372 z "},"Ḷ":{"ha":556,"x_min":61,"x_max":507,"o":"m 61 865 l 196 865 l 208 865 l 208 854 q 199 836 201 846 q 197 803 197 826 l 197 122 l 507 122 l 507 0 l 61 0 l 61 865 z "},"ǈ":{"ha":556,"x_min":65,"x_max":519,"o":"m 65 0 l 65 865 l 206 865 q 202 844 206 851 q 199 817 199 836 l 199 124 l 310 124 l 310 0 l 65 0 m 292 -246 q 240 -238 265 -246 q 192 -215 214 -231 q 151 -179 169 -200 l 226 -58 q 231 -68 231 -62 q 233 -80 232 -74 q 240 -94 235 -86 q 257 -110 244 -101 q 267 -115 263 -112 q 278 -119 272 -118 q 293 -121 285 -121 q 326 -112 311 -121 q 353 -87 342 -104 q 370 -42 364 -69 q 376 26 376 -14 l 376 529 l 264 529 l 264 647 l 504 647 l 504 32 q 488 -94 504 -42 q 444 -181 472 -147 q 376 -230 415 -214 q 292 -246 338 -246 m 435 758 q 374 783 399 758 q 349 843 349 808 q 373 903 349 879 q 435 928 397 928 q 494 903 468 928 q 519 843 519 878 q 494 783 519 808 q 435 758 469 758 z "},"Ḻ":{"ha":556,"x_min":61,"x_max":507,"o":"m 61 865 l 196 865 l 208 865 l 208 854 q 199 836 201 846 q 197 803 197 826 l 197 122 l 507 122 l 507 0 l 61 0 l 61 865 z "},"Ł":{"ha":556,"x_min":14,"x_max":511,"o":"m 71 0 l 71 308 l 14 286 l 14 415 l 71 439 l 71 865 l 215 865 q 219 863 218 864 q 219 860 219 863 q 214 847 219 854 q 207 817 208 840 l 207 494 l 357 556 q 377 565 368 560 q 394 576 386 569 l 394 435 l 207 360 l 207 122 l 511 122 l 511 0 l 71 0 z "},"M":{"ha":556,"x_min":35,"x_max":525,"o":"m 35 0 l 35 865 l 149 865 l 279 501 l 413 867 l 525 867 l 525 0 l 410 0 l 411 597 l 303 300 l 250 300 l 149 594 l 150 0 l 35 0 z "},"Ṃ":{"ha":556,"x_min":35,"x_max":525,"o":"m 35 0 l 35 865 l 149 865 l 279 501 l 413 867 l 525 867 l 525 0 l 410 0 l 411 597 l 303 300 l 250 300 l 149 594 l 150 0 l 35 0 z "},"N":{"ha":556,"x_min":42,"x_max":525,"o":"m 42 865 l 175 865 l 399 319 l 393 865 l 511 865 l 525 865 l 525 854 q 515 836 517 846 q 513 803 513 826 l 513 0 l 396 0 l 161 583 l 161 0 l 42 0 l 42 865 z "},"Ń":{"ha":556,"x_min":42,"x_max":525,"o":"m 42 865 l 175 865 l 399 319 l 393 865 l 511 865 l 525 865 l 525 854 q 515 836 517 846 q 513 803 513 826 l 513 0 l 396 0 l 161 583 l 161 0 l 42 0 l 42 865 z "},"Ň":{"ha":556,"x_min":42,"x_max":525,"o":"m 42 865 l 175 865 l 399 319 l 393 865 l 511 865 l 525 865 l 525 854 q 515 836 517 846 q 513 803 513 826 l 513 0 l 396 0 l 161 583 l 161 0 l 42 0 l 42 865 z "},"Ņ":{"ha":556,"x_min":42,"x_max":525,"o":"m 42 865 l 175 865 l 399 319 l 393 865 l 511 865 l 525 865 l 525 854 q 515 836 517 846 q 513 803 513 826 l 513 0 l 396 0 l 161 583 l 161 0 l 42 0 l 42 865 m 264 -399 l 196 -344 q 242 -280 225 -312 q 260 -224 260 -247 q 248 -192 260 -207 q 224 -159 236 -176 q 213 -115 213 -142 q 237 -56 213 -76 q 293 -35 261 -35 q 358 -63 333 -35 q 382 -143 382 -92 q 369 -225 382 -183 q 329 -310 356 -267 q 264 -399 303 -353 z "},"Ṅ":{"ha":556,"x_min":42,"x_max":525,"o":"m 42 865 l 175 865 l 399 319 l 393 865 l 511 865 l 525 865 l 525 854 q 515 836 517 846 q 513 803 513 826 l 513 0 l 396 0 l 161 583 l 161 0 l 42 0 l 42 865 z "},"Ṇ":{"ha":556,"x_min":42,"x_max":525,"o":"m 42 865 l 175 865 l 399 319 l 393 865 l 511 865 l 525 865 l 525 854 q 515 836 517 846 q 513 803 513 826 l 513 0 l 396 0 l 161 583 l 161 0 l 42 0 l 42 865 z "},"Ŋ":{"ha":556,"x_min":40,"x_max":525,"o":"m 403 865 l 525 865 q 521 841 525 850 q 517 814 517 832 l 517 0 q 493 -152 517 -93 q 428 -240 469 -211 q 336 -268 386 -268 q 274 -257 306 -268 q 213 -222 242 -246 l 267 -103 q 281 -110 276 -104 q 290 -124 286 -117 q 303 -136 294 -131 q 331 -142 313 -142 q 369 -126 354 -142 q 391 -75 383 -110 q 399 13 399 -40 l 160 583 l 160 0 l 40 0 l 40 865 l 167 865 l 403 319 l 403 865 z "},"Ṉ":{"ha":556,"x_min":42,"x_max":525,"o":"m 42 865 l 175 865 l 399 319 l 393 865 l 511 865 l 525 865 l 525 854 q 515 836 517 846 q 513 803 513 826 l 513 0 l 396 0 l 161 583 l 161 0 l 42 0 l 42 865 z "},"Ñ":{"ha":556,"x_min":42,"x_max":525,"o":"m 42 865 l 175 865 l 399 319 l 393 865 l 511 865 l 525 865 l 525 854 q 515 836 517 846 q 513 803 513 826 l 513 0 l 396 0 l 161 583 l 161 0 l 42 0 l 42 865 z "},"O":{"ha":556,"x_min":22,"x_max":536,"o":"m 279 -15 q 137 31 194 -15 q 51 176 79 78 q 22 431 22 275 q 51 681 22 582 q 137 827 79 779 q 279 875 194 875 q 422 827 365 875 q 508 681 479 779 q 536 431 536 582 q 508 176 536 275 q 422 31 479 78 q 279 -15 365 -15 m 279 104 q 347 136 319 104 q 388 240 374 168 q 403 432 403 311 q 388 616 403 544 q 347 722 374 688 q 279 756 319 756 q 212 722 240 756 q 169 616 183 688 q 154 432 154 544 q 169 240 154 311 q 212 136 183 168 q 279 104 240 104 z "},"Ó":{"ha":556,"x_min":22,"x_max":536,"o":"m 279 -15 q 137 31 194 -15 q 51 176 79 78 q 22 431 22 275 q 51 681 22 582 q 137 827 79 779 q 279 875 194 875 q 422 827 365 875 q 508 681 479 779 q 536 431 536 582 q 508 176 536 275 q 422 31 479 78 q 279 -15 365 -15 m 279 104 q 347 136 319 104 q 388 240 374 168 q 403 432 403 311 q 388 616 403 544 q 347 722 374 688 q 279 756 319 756 q 212 722 240 756 q 169 616 183 688 q 154 432 154 544 q 169 240 154 311 q 212 136 183 168 q 279 104 240 104 z "},"Ŏ":{"ha":556,"x_min":22,"x_max":536,"o":"m 279 -15 q 137 31 194 -15 q 51 176 79 78 q 22 431 22 275 q 51 681 22 582 q 137 827 79 779 q 279 875 194 875 q 422 827 365 875 q 508 681 479 779 q 536 431 536 582 q 508 176 536 275 q 422 31 479 78 q 279 -15 365 -15 m 279 104 q 347 136 319 104 q 388 240 374 168 q 403 432 403 311 q 388 616 403 544 q 347 722 374 688 q 279 756 319 756 q 212 722 240 756 q 169 616 183 688 q 154 432 154 544 q 169 240 154 311 q 212 136 183 168 q 279 104 240 104 z "},"Ô":{"ha":556,"x_min":22,"x_max":536,"o":"m 279 -15 q 137 31 194 -15 q 51 176 79 78 q 22 431 22 275 q 51 681 22 582 q 137 827 79 779 q 279 875 194 875 q 422 827 365 875 q 508 681 479 779 q 536 431 536 582 q 508 176 536 275 q 422 31 479 78 q 279 -15 365 -15 m 279 104 q 347 136 319 104 q 388 240 374 168 q 403 432 403 311 q 388 616 403 544 q 347 722 374 688 q 279 756 319 756 q 212 722 240 756 q 169 616 183 688 q 154 432 154 544 q 169 240 154 311 q 212 136 183 168 q 279 104 240 104 m 129 904 l 83 974 l 263 1114 l 297 1114 l 472 976 l 425 904 l 281 996 l 129 904 z "},"Ố":{"ha":556,"x_min":22,"x_max":617,"o":"m 279 -15 q 137 31 194 -15 q 51 176 79 78 q 22 431 22 275 q 51 681 22 582 q 137 827 79 779 q 279 875 194 875 q 422 827 365 875 q 508 681 479 779 q 536 431 536 582 q 508 176 536 275 q 422 31 479 78 q 279 -15 365 -15 m 279 104 q 347 136 319 104 q 388 240 374 168 q 403 432 403 311 q 388 616 403 544 q 347 722 374 688 q 279 756 319 756 q 212 722 240 756 q 169 616 183 688 q 154 432 154 544 q 169 240 154 311 q 212 136 183 168 q 279 104 240 104 z "},"Ộ":{"ha":556,"x_min":22,"x_max":536,"o":"m 279 -15 q 137 31 194 -15 q 51 176 79 78 q 22 431 22 275 q 51 681 22 582 q 137 827 79 779 q 279 875 194 875 q 422 827 365 875 q 508 681 479 779 q 536 431 536 582 q 508 176 536 275 q 422 31 479 78 q 279 -15 365 -15 m 279 104 q 347 136 319 104 q 388 240 374 168 q 403 432 403 311 q 388 616 403 544 q 347 722 374 688 q 279 756 319 756 q 212 722 240 756 q 169 616 183 688 q 154 432 154 544 q 169 240 154 311 q 212 136 183 168 q 279 104 240 104 m 129 904 l 83 974 l 263 1114 l 297 1114 l 472 976 l 425 904 l 281 996 l 129 904 z "},"Ồ":{"ha":556,"x_min":22,"x_max":536,"o":"m 279 -15 q 137 31 194 -15 q 51 176 79 78 q 22 431 22 275 q 51 681 22 582 q 137 827 79 779 q 279 875 194 875 q 422 827 365 875 q 508 681 479 779 q 536 431 536 582 q 508 176 536 275 q 422 31 479 78 q 279 -15 365 -15 m 279 104 q 347 136 319 104 q 388 240 374 168 q 403 432 403 311 q 388 616 403 544 q 347 722 374 688 q 279 756 319 756 q 212 722 240 756 q 169 616 183 688 q 154 432 154 544 q 169 240 154 311 q 212 136 183 168 q 279 104 240 104 z "},"Ổ":{"ha":556,"x_min":22,"x_max":544,"o":"m 279 -15 q 137 31 194 -15 q 51 176 79 78 q 22 431 22 275 q 51 681 22 582 q 137 827 79 779 q 279 875 194 875 q 422 827 365 875 q 508 681 479 779 q 536 431 536 582 q 508 176 536 275 q 422 31 479 78 q 279 -15 365 -15 m 279 104 q 347 136 319 104 q 388 240 374 168 q 403 432 403 311 q 388 616 403 544 q 347 722 374 688 q 279 756 319 756 q 212 722 240 756 q 169 616 183 688 q 154 432 154 544 q 169 240 154 311 q 212 136 183 168 q 279 104 240 104 z "},"Ỗ":{"ha":556,"x_min":22,"x_max":536,"o":"m 279 -15 q 137 31 194 -15 q 51 176 79 78 q 22 431 22 275 q 51 681 22 582 q 137 827 79 779 q 279 875 194 875 q 422 827 365 875 q 508 681 479 779 q 536 431 536 582 q 508 176 536 275 q 422 31 479 78 q 279 -15 365 -15 m 279 104 q 347 136 319 104 q 388 240 374 168 q 403 432 403 311 q 388 616 403 544 q 347 722 374 688 q 279 756 319 756 q 212 722 240 756 q 169 616 183 688 q 154 432 154 544 q 169 240 154 311 q 212 136 183 168 q 279 104 240 104 z "},"Ȍ":{"ha":556,"x_min":22,"x_max":536,"o":"m 279 -15 q 137 31 194 -15 q 51 176 79 78 q 22 431 22 275 q 51 681 22 582 q 137 827 79 779 q 279 875 194 875 q 422 827 365 875 q 508 681 479 779 q 536 431 536 582 q 508 176 536 275 q 422 31 479 78 q 279 -15 365 -15 m 279 104 q 347 136 319 104 q 388 240 374 168 q 403 432 403 311 q 388 616 403 544 q 347 722 374 688 q 279 756 319 756 q 212 722 240 756 q 169 616 183 688 q 154 432 154 544 q 169 240 154 311 q 212 136 183 168 q 279 104 240 104 z "},"Ö":{"ha":556,"x_min":22,"x_max":536,"o":"m 279 -15 q 137 31 194 -15 q 51 176 79 78 q 22 431 22 275 q 51 681 22 582 q 137 827 79 779 q 279 875 194 875 q 422 827 365 875 q 508 681 479 779 q 536 431 536 582 q 508 176 536 275 q 422 31 479 78 q 279 -15 365 -15 m 279 104 q 347 136 319 104 q 388 240 374 168 q 403 432 403 311 q 388 616 403 544 q 347 722 374 688 q 279 756 319 756 q 212 722 240 756 q 169 616 183 688 q 154 432 154 544 q 169 240 154 311 q 212 136 183 168 q 279 104 240 104 z "},"Ȫ":{"ha":556,"x_min":22,"x_max":536,"o":"m 279 -15 q 137 31 194 -15 q 51 176 79 78 q 22 431 22 275 q 51 681 22 582 q 137 827 79 779 q 279 875 194 875 q 422 827 365 875 q 508 681 479 779 q 536 431 536 582 q 508 176 536 275 q 422 31 479 78 q 279 -15 365 -15 m 279 104 q 347 136 319 104 q 388 240 374 168 q 403 432 403 311 q 388 616 403 544 q 347 722 374 688 q 279 756 319 756 q 212 722 240 756 q 169 616 183 688 q 154 432 154 544 q 169 240 154 311 q 212 136 183 168 q 279 104 240 104 z "},"Ȱ":{"ha":556,"x_min":22,"x_max":536,"o":"m 279 -15 q 137 31 194 -15 q 51 176 79 78 q 22 431 22 275 q 51 681 22 582 q 137 827 79 779 q 279 875 194 875 q 422 827 365 875 q 508 681 479 779 q 536 431 536 582 q 508 176 536 275 q 422 31 479 78 q 279 -15 365 -15 m 279 104 q 347 136 319 104 q 388 240 374 168 q 403 432 403 311 q 388 616 403 544 q 347 722 374 688 q 279 756 319 756 q 212 722 240 756 q 169 616 183 688 q 154 432 154 544 q 169 240 154 311 q 212 136 183 168 q 279 104 240 104 z "},"Ọ":{"ha":556,"x_min":22,"x_max":536,"o":"m 279 -15 q 137 31 194 -15 q 51 176 79 78 q 22 431 22 275 q 51 681 22 582 q 137 827 79 779 q 279 875 194 875 q 422 827 365 875 q 508 681 479 779 q 536 431 536 582 q 508 176 536 275 q 422 31 479 78 q 279 -15 365 -15 m 279 104 q 347 136 319 104 q 388 240 374 168 q 403 432 403 311 q 388 616 403 544 q 347 722 374 688 q 279 756 319 756 q 212 722 240 756 q 169 616 183 688 q 154 432 154 544 q 169 240 154 311 q 212 136 183 168 q 279 104 240 104 z "},"Ò":{"ha":556,"x_min":22,"x_max":536,"o":"m 279 -15 q 137 31 194 -15 q 51 176 79 78 q 22 431 22 275 q 51 681 22 582 q 137 827 79 779 q 279 875 194 875 q 422 827 365 875 q 508 681 479 779 q 536 431 536 582 q 508 176 536 275 q 422 31 479 78 q 279 -15 365 -15 m 279 104 q 347 136 319 104 q 388 240 374 168 q 403 432 403 311 q 388 616 403 544 q 347 722 374 688 q 279 756 319 756 q 212 722 240 756 q 169 616 183 688 q 154 432 154 544 q 169 240 154 311 q 212 136 183 168 q 279 104 240 104 z "},"Ỏ":{"ha":556,"x_min":22,"x_max":536,"o":"m 279 -15 q 137 31 194 -15 q 51 176 79 78 q 22 431 22 275 q 51 681 22 582 q 137 827 79 779 q 279 875 194 875 q 422 827 365 875 q 508 681 479 779 q 536 431 536 582 q 508 176 536 275 q 422 31 479 78 q 279 -15 365 -15 m 279 104 q 347 136 319 104 q 388 240 374 168 q 403 432 403 311 q 388 616 403 544 q 347 722 374 688 q 279 756 319 756 q 212 722 240 756 q 169 616 183 688 q 154 432 154 544 q 169 240 154 311 q 212 136 183 168 q 279 104 240 104 m 403 1118 q 392 1073 403 1092 q 368 1038 382 1054 q 343 1005 354 1022 q 332 965 332 988 l 332 951 l 244 951 l 244 989 q 254 1024 244 1008 q 278 1054 264 1040 q 302 1081 292 1068 q 313 1107 313 1094 q 303 1133 313 1124 q 279 1142 293 1142 q 245 1132 260 1142 q 221 1099 231 1122 l 176 1176 q 228 1217 199 1204 q 289 1229 258 1229 q 349 1215 324 1229 q 389 1177 375 1201 q 403 1118 403 1153 z "},"Ơ":{"ha":556,"x_min":22,"x_max":542,"o":"m 279 -15 q 137 31 194 -15 q 51 176 79 78 q 22 431 22 275 q 51 681 22 582 q 137 827 79 779 q 279 875 194 875 q 422 827 365 875 q 508 681 479 779 q 536 431 536 582 q 508 176 536 275 q 422 31 479 78 q 279 -15 365 -15 m 279 104 q 347 136 319 104 q 388 240 374 168 q 403 432 403 311 q 388 616 403 544 q 347 722 374 688 q 279 756 319 756 q 212 722 240 756 q 169 616 183 688 q 154 432 154 544 q 169 240 154 311 q 212 136 183 168 q 279 104 240 104 m 439 713 l 425 807 q 447 819 440 807 q 456 859 454 831 q 458 938 458 888 l 542 938 q 534 811 542 861 q 505 737 526 761 q 439 713 483 713 z "},"Ớ":{"ha":556,"x_min":22,"x_max":542,"o":"m 279 -15 q 137 31 194 -15 q 51 176 79 78 q 22 431 22 275 q 51 681 22 582 q 137 827 79 779 q 279 875 194 875 q 422 827 365 875 q 508 681 479 779 q 536 431 536 582 q 508 176 536 275 q 422 31 479 78 q 279 -15 365 -15 m 279 104 q 347 136 319 104 q 388 240 374 168 q 403 432 403 311 q 388 616 403 544 q 347 722 374 688 q 279 756 319 756 q 212 722 240 756 q 169 616 183 688 q 154 432 154 544 q 169 240 154 311 q 212 136 183 168 q 279 104 240 104 m 439 713 l 425 807 q 447 819 440 807 q 456 859 454 831 q 458 938 458 888 l 542 938 q 534 811 542 861 q 505 737 526 761 q 439 713 483 713 z "},"Ợ":{"ha":556,"x_min":22,"x_max":542,"o":"m 279 -15 q 137 31 194 -15 q 51 176 79 78 q 22 431 22 275 q 51 681 22 582 q 137 827 79 779 q 279 875 194 875 q 422 827 365 875 q 508 681 479 779 q 536 431 536 582 q 508 176 536 275 q 422 31 479 78 q 279 -15 365 -15 m 279 104 q 347 136 319 104 q 388 240 374 168 q 403 432 403 311 q 388 616 403 544 q 347 722 374 688 q 279 756 319 756 q 212 722 240 756 q 169 616 183 688 q 154 432 154 544 q 169 240 154 311 q 212 136 183 168 q 279 104 240 104 m 439 713 l 425 807 q 447 819 440 807 q 456 859 454 831 q 458 938 458 888 l 542 938 q 534 811 542 861 q 505 737 526 761 q 439 713 483 713 z "},"Ờ":{"ha":556,"x_min":22,"x_max":542,"o":"m 279 -15 q 137 31 194 -15 q 51 176 79 78 q 22 431 22 275 q 51 681 22 582 q 137 827 79 779 q 279 875 194 875 q 422 827 365 875 q 508 681 479 779 q 536 431 536 582 q 508 176 536 275 q 422 31 479 78 q 279 -15 365 -15 m 279 104 q 347 136 319 104 q 388 240 374 168 q 403 432 403 311 q 388 616 403 544 q 347 722 374 688 q 279 756 319 756 q 212 722 240 756 q 169 616 183 688 q 154 432 154 544 q 169 240 154 311 q 212 136 183 168 q 279 104 240 104 m 439 713 l 425 807 q 447 819 440 807 q 456 859 454 831 q 458 938 458 888 l 542 938 q 534 811 542 861 q 505 737 526 761 q 439 713 483 713 z "},"Ở":{"ha":556,"x_min":22,"x_max":542,"o":"m 279 -15 q 137 31 194 -15 q 51 176 79 78 q 22 431 22 275 q 51 681 22 582 q 137 827 79 779 q 279 875 194 875 q 422 827 365 875 q 508 681 479 779 q 536 431 536 582 q 508 176 536 275 q 422 31 479 78 q 279 -15 365 -15 m 279 104 q 347 136 319 104 q 388 240 374 168 q 403 432 403 311 q 388 616 403 544 q 347 722 374 688 q 279 756 319 756 q 212 722 240 756 q 169 616 183 688 q 154 432 154 544 q 169 240 154 311 q 212 136 183 168 q 279 104 240 104 m 439 713 l 425 807 q 447 819 440 807 q 456 859 454 831 q 458 938 458 888 l 542 938 q 534 811 542 861 q 505 737 526 761 q 439 713 483 713 m 403 1118 q 392 1073 403 1092 q 368 1038 382 1054 q 343 1005 354 1022 q 332 965 332 988 l 332 951 l 244 951 l 244 989 q 254 1024 244 1008 q 278 1054 264 1040 q 302 1081 292 1068 q 313 1107 313 1094 q 303 1133 313 1124 q 279 1142 293 1142 q 245 1132 260 1142 q 221 1099 231 1122 l 176 1176 q 228 1217 199 1204 q 289 1229 258 1229 q 349 1215 324 1229 q 389 1177 375 1201 q 403 1118 403 1153 z "},"Ỡ":{"ha":556,"x_min":22,"x_max":542,"o":"m 279 -15 q 137 31 194 -15 q 51 176 79 78 q 22 431 22 275 q 51 681 22 582 q 137 827 79 779 q 279 875 194 875 q 422 827 365 875 q 508 681 479 779 q 536 431 536 582 q 508 176 536 275 q 422 31 479 78 q 279 -15 365 -15 m 279 104 q 347 136 319 104 q 388 240 374 168 q 403 432 403 311 q 388 616 403 544 q 347 722 374 688 q 279 756 319 756 q 212 722 240 756 q 169 616 183 688 q 154 432 154 544 q 169 240 154 311 q 212 136 183 168 q 279 104 240 104 m 439 713 l 425 807 q 447 819 440 807 q 456 859 454 831 q 458 938 458 888 l 542 938 q 534 811 542 861 q 505 737 526 761 q 439 713 483 713 z "},"Ő":{"ha":556,"x_min":22,"x_max":536,"o":"m 279 -15 q 137 31 194 -15 q 51 176 79 78 q 22 431 22 275 q 51 681 22 582 q 137 827 79 779 q 279 875 194 875 q 422 827 365 875 q 508 681 479 779 q 536 431 536 582 q 508 176 536 275 q 422 31 479 78 q 279 -15 365 -15 m 279 104 q 347 136 319 104 q 388 240 374 168 q 403 432 403 311 q 388 616 403 544 q 347 722 374 688 q 279 756 319 756 q 212 722 240 756 q 169 616 183 688 q 154 432 154 544 q 169 240 154 311 q 212 136 183 168 q 279 104 240 104 z "},"Ȏ":{"ha":556,"x_min":22,"x_max":536,"o":"m 279 -15 q 137 31 194 -15 q 51 176 79 78 q 22 431 22 275 q 51 681 22 582 q 137 827 79 779 q 279 875 194 875 q 422 827 365 875 q 508 681 479 779 q 536 431 536 582 q 508 176 536 275 q 422 31 479 78 q 279 -15 365 -15 m 279 104 q 347 136 319 104 q 388 240 374 168 q 403 432 403 311 q 388 616 403 544 q 347 722 374 688 q 279 756 319 756 q 212 722 240 756 q 169 616 183 688 q 154 432 154 544 q 169 240 154 311 q 212 136 183 168 q 279 104 240 104 m 196 961 l 110 1000 q 180 1100 136 1067 q 278 1133 224 1133 q 378 1100 333 1133 q 449 1000 422 1067 l 363 961 q 327 1028 347 1006 q 278 1050 307 1050 q 244 1040 260 1050 q 217 1010 229 1029 q 196 961 206 990 z "},"Ō":{"ha":556,"x_min":22,"x_max":536,"o":"m 279 -15 q 137 31 194 -15 q 51 176 79 78 q 22 431 22 275 q 51 681 22 582 q 137 827 79 779 q 279 875 194 875 q 422 827 365 875 q 508 681 479 779 q 536 431 536 582 q 508 176 536 275 q 422 31 479 78 q 279 -15 365 -15 m 279 104 q 347 136 319 104 q 388 240 374 168 q 403 432 403 311 q 388 616 403 544 q 347 722 374 688 q 279 756 319 756 q 212 722 240 756 q 169 616 183 688 q 154 432 154 544 q 169 240 154 311 q 212 136 183 168 q 279 104 240 104 z "},"Ṓ":{"ha":556,"x_min":22,"x_max":536,"o":"m 279 -15 q 137 31 194 -15 q 51 176 79 78 q 22 431 22 275 q 51 681 22 582 q 137 827 79 779 q 279 875 194 875 q 422 827 365 875 q 508 681 479 779 q 536 431 536 582 q 508 176 536 275 q 422 31 479 78 q 279 -15 365 -15 m 279 104 q 347 136 319 104 q 388 240 374 168 q 403 432 403 311 q 388 616 403 544 q 347 722 374 688 q 279 756 319 756 q 212 722 240 756 q 169 616 183 688 q 154 432 154 544 q 169 240 154 311 q 212 136 183 168 q 279 104 240 104 z "},"Ṑ":{"ha":556,"x_min":22,"x_max":536,"o":"m 279 -15 q 137 31 194 -15 q 51 176 79 78 q 22 431 22 275 q 51 681 22 582 q 137 827 79 779 q 279 875 194 875 q 422 827 365 875 q 508 681 479 779 q 536 431 536 582 q 508 176 536 275 q 422 31 479 78 q 279 -15 365 -15 m 279 104 q 347 136 319 104 q 388 240 374 168 q 403 432 403 311 q 388 616 403 544 q 347 722 374 688 q 279 756 319 756 q 212 722 240 756 q 169 616 183 688 q 154 432 154 544 q 169 240 154 311 q 212 136 183 168 q 279 104 240 104 z "},"Ǫ":{"ha":556,"x_min":22,"x_max":536,"o":"m 279 -15 q 137 31 194 -15 q 51 176 79 78 q 22 431 22 275 q 51 681 22 582 q 137 827 79 779 q 279 875 194 875 q 422 827 365 875 q 508 681 479 779 q 536 431 536 582 q 508 176 536 275 q 422 31 479 78 q 279 -15 365 -15 m 279 104 q 347 136 319 104 q 388 240 374 168 q 403 432 403 311 q 388 616 403 544 q 347 722 374 688 q 279 756 319 756 q 212 722 240 756 q 169 616 183 688 q 154 432 154 544 q 169 240 154 311 q 212 136 183 168 q 279 104 240 104 m 394 -190 l 344 -312 q 262 -272 294 -296 q 213 -219 229 -249 q 197 -157 197 -189 q 215 -85 197 -122 q 267 -12 232 -49 q 350 56 301 24 l 397 18 q 355 -31 372 -7 q 328 -76 338 -54 q 319 -115 319 -97 q 338 -160 319 -142 q 394 -190 357 -179 z "},"Ø":{"ha":556,"x_min":22,"x_max":536,"o":"m 107 -69 l 38 -37 l 446 947 l 513 913 l 107 -69 m 279 -15 q 137 31 194 -15 q 51 176 79 78 q 22 431 22 275 q 51 681 22 582 q 137 827 79 779 q 279 875 194 875 q 422 827 365 875 q 508 681 479 779 q 536 431 536 582 q 508 176 536 275 q 422 31 479 78 q 279 -15 365 -15 m 279 104 q 347 136 319 104 q 388 240 374 168 q 403 432 403 311 q 388 616 403 544 q 347 722 374 688 q 279 756 319 756 q 212 722 240 756 q 169 616 183 688 q 154 432 154 544 q 169 240 154 311 q 212 136 183 168 q 279 104 240 104 z "},"Ǿ":{"ha":556,"x_min":22,"x_max":536,"o":"m 107 -69 l 38 -37 l 446 947 l 513 913 l 107 -69 m 279 -15 q 137 31 194 -15 q 51 176 79 78 q 22 431 22 275 q 51 681 22 582 q 137 827 79 779 q 279 875 194 875 q 422 827 365 875 q 508 681 479 779 q 536 431 536 582 q 508 176 536 275 q 422 31 479 78 q 279 -15 365 -15 m 279 104 q 347 136 319 104 q 388 240 374 168 q 403 432 403 311 q 388 616 403 544 q 347 722 374 688 q 279 756 319 756 q 212 722 240 756 q 169 616 183 688 q 154 432 154 544 q 169 240 154 311 q 212 136 183 168 q 279 104 240 104 z "},"Õ":{"ha":556,"x_min":22,"x_max":536,"o":"m 279 -15 q 137 31 194 -15 q 51 176 79 78 q 22 431 22 275 q 51 681 22 582 q 137 827 79 779 q 279 875 194 875 q 422 827 365 875 q 508 681 479 779 q 536 431 536 582 q 508 176 536 275 q 422 31 479 78 q 279 -15 365 -15 m 279 104 q 347 136 319 104 q 388 240 374 168 q 403 432 403 311 q 388 616 403 544 q 347 722 374 688 q 279 756 319 756 q 212 722 240 756 q 169 616 183 688 q 154 432 154 544 q 169 240 154 311 q 212 136 183 168 q 279 104 240 104 z "},"Ṍ":{"ha":556,"x_min":22,"x_max":536,"o":"m 279 -15 q 137 31 194 -15 q 51 176 79 78 q 22 431 22 275 q 51 681 22 582 q 137 827 79 779 q 279 875 194 875 q 422 827 365 875 q 508 681 479 779 q 536 431 536 582 q 508 176 536 275 q 422 31 479 78 q 279 -15 365 -15 m 279 104 q 347 136 319 104 q 388 240 374 168 q 403 432 403 311 q 388 616 403 544 q 347 722 374 688 q 279 756 319 756 q 212 722 240 756 q 169 616 183 688 q 154 432 154 544 q 169 240 154 311 q 212 136 183 168 q 279 104 240 104 z "},"Ṏ":{"ha":556,"x_min":22,"x_max":536,"o":"m 279 -15 q 137 31 194 -15 q 51 176 79 78 q 22 431 22 275 q 51 681 22 582 q 137 827 79 779 q 279 875 194 875 q 422 827 365 875 q 508 681 479 779 q 536 431 536 582 q 508 176 536 275 q 422 31 479 78 q 279 -15 365 -15 m 279 104 q 347 136 319 104 q 388 240 374 168 q 403 432 403 311 q 388 616 403 544 q 347 722 374 688 q 279 756 319 756 q 212 722 240 756 q 169 616 183 688 q 154 432 154 544 q 169 240 154 311 q 212 136 183 168 q 279 104 240 104 z "},"Ȭ":{"ha":556,"x_min":22,"x_max":536,"o":"m 279 -15 q 137 31 194 -15 q 51 176 79 78 q 22 431 22 275 q 51 681 22 582 q 137 827 79 779 q 279 875 194 875 q 422 827 365 875 q 508 681 479 779 q 536 431 536 582 q 508 176 536 275 q 422 31 479 78 q 279 -15 365 -15 m 279 104 q 347 136 319 104 q 388 240 374 168 q 403 432 403 311 q 388 616 403 544 q 347 722 374 688 q 279 756 319 756 q 212 722 240 756 q 169 616 183 688 q 154 432 154 544 q 169 240 154 311 q 212 136 183 168 q 279 104 240 104 m 381 1161 l 450 1125 q 405 1048 431 1076 q 349 1019 379 1019 q 308 1030 325 1019 q 278 1054 292 1040 q 252 1078 264 1068 q 228 1089 240 1089 q 203 1074 214 1089 q 185 1038 192 1060 l 115 1071 q 158 1149 129 1119 q 218 1179 188 1179 q 258 1169 240 1179 q 291 1144 276 1158 q 317 1121 306 1131 q 340 1111 329 1111 q 362 1124 353 1111 q 381 1161 371 1136 z "},"Œ":{"ha":556,"x_min":6,"x_max":546,"o":"m 192 -10 q 116 14 150 -10 q 57 90 82 38 q 19 226 32 142 q 6 433 6 311 q 28 687 6 589 q 92 831 50 785 q 194 878 135 878 q 232 868 213 878 q 265 840 251 858 l 265 867 l 546 867 l 546 747 l 385 747 l 385 511 l 521 511 l 521 390 l 385 390 l 385 119 l 543 119 l 543 0 l 264 0 l 264 25 q 230 -1 250 8 q 192 -10 210 -10 m 211 113 q 244 134 232 113 q 260 194 257 156 l 260 664 q 241 734 254 708 q 203 760 228 760 q 174 744 188 760 q 152 693 161 729 q 138 594 143 657 q 132 435 132 532 q 140 255 132 326 q 166 148 149 183 q 211 113 183 113 z "},"P":{"ha":556,"x_min":53,"x_max":522,"o":"m 53 0 l 53 865 l 285 865 q 418 834 365 865 q 497 746 471 803 q 522 613 522 689 q 508 512 522 558 q 463 432 493 465 q 390 380 433 399 q 290 361 347 361 l 188 361 l 188 0 l 53 0 m 188 483 l 281 483 q 338 499 315 483 q 374 544 361 515 q 386 611 386 574 q 374 681 386 653 q 338 725 361 710 q 282 740 315 740 l 188 740 l 188 483 z "},"Þ":{"ha":556,"x_min":54,"x_max":528,"o":"m 54 0 l 54 865 l 197 865 q 200 863 200 864 q 200 860 200 861 q 195 848 200 856 q 189 822 190 840 l 189 714 l 292 714 q 424 680 372 714 q 502 588 476 646 q 528 457 528 531 q 502 327 528 383 q 424 238 476 271 q 292 206 372 206 l 189 206 l 189 0 l 54 0 m 189 324 l 285 324 q 347 341 324 324 q 382 388 371 358 q 393 454 393 418 q 381 522 393 492 q 346 571 369 551 q 283 590 322 590 l 189 590 l 189 324 z "},"Q":{"ha":556,"x_min":22,"x_max":535,"o":"m 426 -200 q 335 -192 374 -201 q 272 -161 297 -183 q 235 -101 247 -139 q 221 -8 222 -64 q 117 60 161 8 q 47 203 72 113 q 22 431 22 294 q 43 644 22 558 q 100 782 64 731 q 182 856 136 833 q 279 878 228 878 q 380 854 333 878 q 461 779 426 831 q 515 642 496 728 q 535 432 535 557 q 522 248 535 326 q 483 117 508 169 q 424 35 458 65 q 344 -8 389 4 q 352 -51 346 -33 q 372 -78 358 -68 q 408 -87 386 -87 l 493 -82 l 490 -200 l 426 -200 m 282 107 q 329 124 307 107 q 368 178 351 140 q 394 274 385 215 q 404 417 404 333 q 394 580 404 514 q 366 685 383 646 q 326 740 349 724 q 279 757 304 757 q 227 738 250 757 q 188 681 204 719 q 164 583 172 642 q 156 447 156 525 q 171 253 156 329 q 215 142 186 178 q 282 107 243 107 z "},"R":{"ha":556,"x_min":51,"x_max":529,"o":"m 51 0 l 51 865 l 265 865 q 404 835 350 865 q 484 749 458 806 q 510 614 510 693 q 495 510 510 557 q 452 430 481 464 q 383 379 424 396 l 529 0 l 393 0 l 256 364 l 186 364 l 186 0 l 51 0 m 186 483 l 275 483 q 349 515 322 483 q 375 611 375 547 q 363 681 375 653 q 329 725 351 710 q 275 740 307 740 l 186 740 l 186 483 z "},"Ŕ":{"ha":556,"x_min":51,"x_max":529,"o":"m 51 0 l 51 865 l 265 865 q 404 835 350 865 q 484 749 458 806 q 510 614 510 693 q 495 510 510 557 q 452 430 481 464 q 383 379 424 396 l 529 0 l 393 0 l 256 364 l 186 364 l 186 0 l 51 0 m 186 483 l 275 483 q 349 515 322 483 q 375 611 375 547 q 363 681 375 653 q 329 725 351 710 q 275 740 307 740 l 186 740 l 186 483 z "},"Ř":{"ha":556,"x_min":51,"x_max":529,"o":"m 51 0 l 51 865 l 265 865 q 404 835 350 865 q 484 749 458 806 q 510 614 510 693 q 495 510 510 557 q 452 430 481 464 q 383 379 424 396 l 529 0 l 393 0 l 256 364 l 186 364 l 186 0 l 51 0 m 186 483 l 275 483 q 349 515 322 483 q 375 611 375 547 q 363 681 375 653 q 329 725 351 710 q 275 740 307 740 l 186 740 l 186 483 z "},"Ŗ":{"ha":556,"x_min":51,"x_max":529,"o":"m 51 0 l 51 865 l 265 865 q 404 835 350 865 q 484 749 458 806 q 510 614 510 693 q 495 510 510 557 q 452 430 481 464 q 383 379 424 396 l 529 0 l 393 0 l 256 364 l 186 364 l 186 0 l 51 0 m 186 483 l 275 483 q 349 515 322 483 q 375 611 375 547 q 363 681 375 653 q 329 725 351 710 q 275 740 307 740 l 186 740 l 186 483 m 264 -399 l 196 -344 q 242 -280 225 -312 q 260 -224 260 -247 q 248 -192 260 -207 q 224 -159 236 -176 q 213 -115 213 -142 q 237 -56 213 -76 q 293 -35 261 -35 q 358 -63 333 -35 q 382 -143 382 -92 q 369 -225 382 -183 q 329 -310 356 -267 q 264 -399 303 -353 z "},"Ȑ":{"ha":556,"x_min":51,"x_max":529,"o":"m 51 0 l 51 865 l 265 865 q 404 835 350 865 q 484 749 458 806 q 510 614 510 693 q 495 510 510 557 q 452 430 481 464 q 383 379 424 396 l 529 0 l 393 0 l 256 364 l 186 364 l 186 0 l 51 0 m 186 483 l 275 483 q 349 515 322 483 q 375 611 375 547 q 363 681 375 653 q 329 725 351 710 q 275 740 307 740 l 186 740 l 186 483 z "},"Ṛ":{"ha":556,"x_min":51,"x_max":529,"o":"m 51 0 l 51 865 l 265 865 q 404 835 350 865 q 484 749 458 806 q 510 614 510 693 q 495 510 510 557 q 452 430 481 464 q 383 379 424 396 l 529 0 l 393 0 l 256 364 l 186 364 l 186 0 l 51 0 m 186 483 l 275 483 q 349 515 322 483 q 375 611 375 547 q 363 681 375 653 q 329 725 351 710 q 275 740 307 740 l 186 740 l 186 483 z "},"Ȓ":{"ha":556,"x_min":51,"x_max":529,"o":"m 51 0 l 51 865 l 265 865 q 404 835 350 865 q 484 749 458 806 q 510 614 510 693 q 495 510 510 557 q 452 430 481 464 q 383 379 424 396 l 529 0 l 393 0 l 256 364 l 186 364 l 186 0 l 51 0 m 186 483 l 275 483 q 349 515 322 483 q 375 611 375 547 q 363 681 375 653 q 329 725 351 710 q 275 740 307 740 l 186 740 l 186 483 m 194 958 l 108 997 q 178 1097 135 1064 q 276 1131 222 1131 q 376 1097 332 1131 q 447 997 421 1064 l 361 958 q 326 1025 346 1003 q 276 1047 306 1047 q 243 1037 258 1047 q 216 1007 228 1026 q 194 958 204 988 z "},"Ṟ":{"ha":556,"x_min":51,"x_max":529,"o":"m 51 0 l 51 865 l 265 865 q 404 835 350 865 q 484 749 458 806 q 510 614 510 693 q 495 510 510 557 q 452 430 481 464 q 383 379 424 396 l 529 0 l 393 0 l 256 364 l 186 364 l 186 0 l 51 0 m 186 483 l 275 483 q 349 515 322 483 q 375 611 375 547 q 363 681 375 653 q 329 725 351 710 q 275 740 307 740 l 186 740 l 186 483 z "},"S":{"ha":556,"x_min":39,"x_max":514,"o":"m 268 -15 q 139 8 197 -15 q 39 78 81 31 l 99 206 l 104 218 l 115 214 q 122 190 119 204 q 139 160 124 176 q 197 122 165 136 q 267 107 229 107 q 314 115 293 107 q 350 138 335 122 q 374 176 365 154 q 382 229 382 199 q 379 263 382 246 q 369 294 376 279 q 347 325 361 310 q 310 357 332 340 q 253 393 288 374 q 142 468 183 429 q 84 553 101 507 q 67 656 67 599 q 94 774 67 724 q 172 851 122 824 q 286 878 222 878 q 369 867 331 878 q 439 834 407 856 q 496 781 471 813 l 431 671 l 425 660 l 415 665 q 409 690 411 676 q 393 721 407 703 q 348 751 372 743 q 293 758 324 758 q 254 751 272 758 q 224 732 236 744 q 205 702 211 719 q 199 663 199 685 q 201 627 199 643 q 213 596 204 611 q 237 565 221 581 q 278 533 253 550 q 339 496 303 517 q 423 442 389 469 q 477 383 457 414 q 506 317 497 353 q 514 240 514 282 q 486 112 514 169 q 404 19 458 54 q 268 -15 350 -15 l 268 -15 z "},"Ś":{"ha":556,"x_min":39,"x_max":514,"o":"m 268 -15 q 139 8 197 -15 q 39 78 81 31 l 99 206 l 104 218 l 115 214 q 122 190 119 204 q 139 160 124 176 q 197 122 165 136 q 267 107 229 107 q 314 115 293 107 q 350 138 335 122 q 374 176 365 154 q 382 229 382 199 q 379 263 382 246 q 369 294 376 279 q 347 325 361 310 q 310 357 332 340 q 253 393 288 374 q 142 468 183 429 q 84 553 101 507 q 67 656 67 599 q 94 774 67 724 q 172 851 122 824 q 286 878 222 878 q 369 867 331 878 q 439 834 407 856 q 496 781 471 813 l 431 671 l 425 660 l 415 665 q 409 690 411 676 q 393 721 407 703 q 348 751 372 743 q 293 758 324 758 q 254 751 272 758 q 224 732 236 744 q 205 702 211 719 q 199 663 199 685 q 201 627 199 643 q 213 596 204 611 q 237 565 221 581 q 278 533 253 550 q 339 496 303 517 q 423 442 389 469 q 477 383 457 414 q 506 317 497 353 q 514 240 514 282 q 486 112 514 169 q 404 19 458 54 q 268 -15 350 -15 l 268 -15 z "},"Ṥ":{"ha":556,"x_min":39,"x_max":514,"o":"m 268 -15 q 139 8 197 -15 q 39 78 81 31 l 99 206 l 104 218 l 115 214 q 122 190 119 204 q 139 160 124 176 q 197 122 165 136 q 267 107 229 107 q 314 115 293 107 q 350 138 335 122 q 374 176 365 154 q 382 229 382 199 q 379 263 382 246 q 369 294 376 279 q 347 325 361 310 q 310 357 332 340 q 253 393 288 374 q 142 468 183 429 q 84 553 101 507 q 67 656 67 599 q 94 774 67 724 q 172 851 122 824 q 286 878 222 878 q 369 867 331 878 q 439 834 407 856 q 496 781 471 813 l 431 671 l 425 660 l 415 665 q 409 690 411 676 q 393 721 407 703 q 348 751 372 743 q 293 758 324 758 q 254 751 272 758 q 224 732 236 744 q 205 702 211 719 q 199 663 199 685 q 201 627 199 643 q 213 596 204 611 q 237 565 221 581 q 278 533 253 550 q 339 496 303 517 q 423 442 389 469 q 477 383 457 414 q 506 317 497 353 q 514 240 514 282 q 486 112 514 169 q 404 19 458 54 q 268 -15 350 -15 l 268 -15 z "},"Š":{"ha":556,"x_min":39,"x_max":514,"o":"m 268 -15 q 139 8 197 -15 q 39 78 81 31 l 99 206 l 104 218 l 115 214 q 122 190 119 204 q 139 160 124 176 q 197 122 165 136 q 267 107 229 107 q 314 115 293 107 q 350 138 335 122 q 374 176 365 154 q 382 229 382 199 q 379 263 382 246 q 369 294 376 279 q 347 325 361 310 q 310 357 332 340 q 253 393 288 374 q 142 468 183 429 q 84 553 101 507 q 67 656 67 599 q 94 774 67 724 q 172 851 122 824 q 286 878 222 878 q 369 867 331 878 q 439 834 407 856 q 496 781 471 813 l 431 671 l 425 660 l 415 665 q 409 690 411 676 q 393 721 407 703 q 348 751 372 743 q 293 758 324 758 q 254 751 272 758 q 224 732 236 744 q 205 702 211 719 q 199 663 199 685 q 201 627 199 643 q 213 596 204 611 q 237 565 221 581 q 278 533 253 550 q 339 496 303 517 q 423 442 389 469 q 477 383 457 414 q 506 317 497 353 q 514 240 514 282 q 486 112 514 169 q 404 19 458 54 q 268 -15 350 -15 l 268 -15 z "},"Ṧ":{"ha":556,"x_min":39,"x_max":514,"o":"m 268 -15 q 139 8 197 -15 q 39 78 81 31 l 99 206 l 104 218 l 115 214 q 122 190 119 204 q 139 160 124 176 q 197 122 165 136 q 267 107 229 107 q 314 115 293 107 q 350 138 335 122 q 374 176 365 154 q 382 229 382 199 q 379 263 382 246 q 369 294 376 279 q 347 325 361 310 q 310 357 332 340 q 253 393 288 374 q 142 468 183 429 q 84 553 101 507 q 67 656 67 599 q 94 774 67 724 q 172 851 122 824 q 286 878 222 878 q 369 867 331 878 q 439 834 407 856 q 496 781 471 813 l 431 671 l 425 660 l 415 665 q 409 690 411 676 q 393 721 407 703 q 348 751 372 743 q 293 758 324 758 q 254 751 272 758 q 224 732 236 744 q 205 702 211 719 q 199 663 199 685 q 201 627 199 643 q 213 596 204 611 q 237 565 221 581 q 278 533 253 550 q 339 496 303 517 q 423 442 389 469 q 477 383 457 414 q 506 317 497 353 q 514 240 514 282 q 486 112 514 169 q 404 19 458 54 q 268 -15 350 -15 l 268 -15 z "},"Ş":{"ha":556,"x_min":39,"x_max":514,"o":"m 268 -15 q 139 8 197 -15 q 39 78 81 31 l 99 206 l 104 218 l 115 214 q 122 190 119 204 q 139 160 124 176 q 197 122 165 136 q 267 107 229 107 q 314 115 293 107 q 350 138 335 122 q 374 176 365 154 q 382 229 382 199 q 379 263 382 246 q 369 294 376 279 q 347 325 361 310 q 310 357 332 340 q 253 393 288 374 q 142 468 183 429 q 84 553 101 507 q 67 656 67 599 q 94 774 67 724 q 172 851 122 824 q 286 878 222 878 q 369 867 331 878 q 439 834 407 856 q 496 781 471 813 l 431 671 l 425 660 l 415 665 q 409 690 411 676 q 393 721 407 703 q 348 751 372 743 q 293 758 324 758 q 254 751 272 758 q 224 732 236 744 q 205 702 211 719 q 199 663 199 685 q 201 627 199 643 q 213 596 204 611 q 237 565 221 581 q 278 533 253 550 q 339 496 303 517 q 423 442 389 469 q 477 383 457 414 q 506 317 497 353 q 514 240 514 282 q 486 112 514 169 q 404 19 458 54 q 268 -15 350 -15 l 268 -15 z "},"Ŝ":{"ha":556,"x_min":39,"x_max":514,"o":"m 268 -15 q 139 8 197 -15 q 39 78 81 31 l 99 206 l 104 218 l 115 214 q 122 190 119 204 q 139 160 124 176 q 197 122 165 136 q 267 107 229 107 q 314 115 293 107 q 350 138 335 122 q 374 176 365 154 q 382 229 382 199 q 379 263 382 246 q 369 294 376 279 q 347 325 361 310 q 310 357 332 340 q 253 393 288 374 q 142 468 183 429 q 84 553 101 507 q 67 656 67 599 q 94 774 67 724 q 172 851 122 824 q 286 878 222 878 q 369 867 331 878 q 439 834 407 856 q 496 781 471 813 l 431 671 l 425 660 l 415 665 q 409 690 411 676 q 393 721 407 703 q 348 751 372 743 q 293 758 324 758 q 254 751 272 758 q 224 732 236 744 q 205 702 211 719 q 199 663 199 685 q 201 627 199 643 q 213 596 204 611 q 237 565 221 581 q 278 533 253 550 q 339 496 303 517 q 423 442 389 469 q 477 383 457 414 q 506 317 497 353 q 514 240 514 282 q 486 112 514 169 q 404 19 458 54 q 268 -15 350 -15 l 268 -15 m 135 901 l 89 971 l 268 1111 l 303 1111 l 478 974 l 431 901 l 286 993 l 135 901 z "},"Ș":{"ha":556,"x_min":39,"x_max":514,"o":"m 268 -15 q 139 8 197 -15 q 39 78 81 31 l 99 206 l 104 218 l 115 214 q 122 190 119 204 q 139 160 124 176 q 197 122 165 136 q 267 107 229 107 q 314 115 293 107 q 350 138 335 122 q 374 176 365 154 q 382 229 382 199 q 379 263 382 246 q 369 294 376 279 q 347 325 361 310 q 310 357 332 340 q 253 393 288 374 q 142 468 183 429 q 84 553 101 507 q 67 656 67 599 q 94 774 67 724 q 172 851 122 824 q 286 878 222 878 q 369 867 331 878 q 439 834 407 856 q 496 781 471 813 l 431 671 l 425 660 l 415 665 q 409 690 411 676 q 393 721 407 703 q 348 751 372 743 q 293 758 324 758 q 254 751 272 758 q 224 732 236 744 q 205 702 211 719 q 199 663 199 685 q 201 627 199 643 q 213 596 204 611 q 237 565 221 581 q 278 533 253 550 q 339 496 303 517 q 423 442 389 469 q 477 383 457 414 q 506 317 497 353 q 514 240 514 282 q 486 112 514 169 q 404 19 458 54 q 268 -15 350 -15 l 268 -15 m 265 -399 l 197 -344 q 244 -280 226 -312 q 261 -224 261 -247 q 249 -192 261 -207 q 226 -159 238 -176 q 214 -115 214 -142 q 238 -56 214 -76 q 294 -35 263 -35 q 359 -63 335 -35 q 383 -143 383 -92 q 370 -225 383 -183 q 331 -310 357 -267 q 265 -399 304 -353 z "},"Ṡ":{"ha":556,"x_min":39,"x_max":514,"o":"m 268 -15 q 139 8 197 -15 q 39 78 81 31 l 99 206 l 104 218 l 115 214 q 122 190 119 204 q 139 160 124 176 q 197 122 165 136 q 267 107 229 107 q 314 115 293 107 q 350 138 335 122 q 374 176 365 154 q 382 229 382 199 q 379 263 382 246 q 369 294 376 279 q 347 325 361 310 q 310 357 332 340 q 253 393 288 374 q 142 468 183 429 q 84 553 101 507 q 67 656 67 599 q 94 774 67 724 q 172 851 122 824 q 286 878 222 878 q 369 867 331 878 q 439 834 407 856 q 496 781 471 813 l 431 671 l 425 660 l 415 665 q 409 690 411 676 q 393 721 407 703 q 348 751 372 743 q 293 758 324 758 q 254 751 272 758 q 224 732 236 744 q 205 702 211 719 q 199 663 199 685 q 201 627 199 643 q 213 596 204 611 q 237 565 221 581 q 278 533 253 550 q 339 496 303 517 q 423 442 389 469 q 477 383 457 414 q 506 317 497 353 q 514 240 514 282 q 486 112 514 169 q 404 19 458 54 q 268 -15 350 -15 l 268 -15 z "},"Ṣ":{"ha":556,"x_min":39,"x_max":514,"o":"m 268 -15 q 139 8 197 -15 q 39 78 81 31 l 99 206 l 104 218 l 115 214 q 122 190 119 204 q 139 160 124 176 q 197 122 165 136 q 267 107 229 107 q 314 115 293 107 q 350 138 335 122 q 374 176 365 154 q 382 229 382 199 q 379 263 382 246 q 369 294 376 279 q 347 325 361 310 q 310 357 332 340 q 253 393 288 374 q 142 468 183 429 q 84 553 101 507 q 67 656 67 599 q 94 774 67 724 q 172 851 122 824 q 286 878 222 878 q 369 867 331 878 q 439 834 407 856 q 496 781 471 813 l 431 671 l 425 660 l 415 665 q 409 690 411 676 q 393 721 407 703 q 348 751 372 743 q 293 758 324 758 q 254 751 272 758 q 224 732 236 744 q 205 702 211 719 q 199 663 199 685 q 201 627 199 643 q 213 596 204 611 q 237 565 221 581 q 278 533 253 550 q 339 496 303 517 q 423 442 389 469 q 477 383 457 414 q 506 317 497 353 q 514 240 514 282 q 486 112 514 169 q 404 19 458 54 q 268 -15 350 -15 l 268 -15 z "},"Ṩ":{"ha":556,"x_min":39,"x_max":514,"o":"m 268 -15 q 139 8 197 -15 q 39 78 81 31 l 99 206 l 104 218 l 115 214 q 122 190 119 204 q 139 160 124 176 q 197 122 165 136 q 267 107 229 107 q 314 115 293 107 q 350 138 335 122 q 374 176 365 154 q 382 229 382 199 q 379 263 382 246 q 369 294 376 279 q 347 325 361 310 q 310 357 332 340 q 253 393 288 374 q 142 468 183 429 q 84 553 101 507 q 67 656 67 599 q 94 774 67 724 q 172 851 122 824 q 286 878 222 878 q 369 867 331 878 q 439 834 407 856 q 496 781 471 813 l 431 671 l 425 660 l 415 665 q 409 690 411 676 q 393 721 407 703 q 348 751 372 743 q 293 758 324 758 q 254 751 272 758 q 224 732 236 744 q 205 702 211 719 q 199 663 199 685 q 201 627 199 643 q 213 596 204 611 q 237 565 221 581 q 278 533 253 550 q 339 496 303 517 q 423 442 389 469 q 477 383 457 414 q 506 317 497 353 q 514 240 514 282 q 486 112 514 169 q 404 19 458 54 q 268 -15 350 -15 l 268 -15 z "},"ẞ":{"ha":556,"x_min":46,"x_max":522,"o":"m 328 -15 q 263 -6 292 -15 q 213 21 235 4 l 249 133 q 267 119 258 125 q 286 110 276 113 q 308 107 296 107 q 342 117 326 107 q 368 147 357 128 q 385 196 379 167 q 392 261 392 225 q 381 344 392 307 q 342 403 369 381 q 267 425 315 425 l 236 425 l 236 544 l 354 692 q 344 755 353 728 q 319 797 336 782 q 272 813 301 813 q 235 803 253 813 q 206 774 218 794 q 185 723 193 754 q 178 649 178 692 l 178 0 l 46 0 l 46 629 q 64 772 46 714 q 113 866 82 831 q 183 917 143 901 q 269 932 224 932 q 383 900 336 932 q 453 810 429 868 q 478 672 478 751 l 297 461 l 269 542 q 413 506 357 542 q 495 404 468 469 q 522 251 522 339 q 509 137 522 186 q 470 53 496 88 q 408 2 444 19 q 328 -15 372 -15 z "},"Ə":{"ha":556,"x_min":22,"x_max":536,"o":"m 279 -15 q 137 31 194 -15 q 51 176 79 78 q 22 431 22 275 q 51 681 22 582 q 137 827 79 779 q 279 875 194 875 q 422 827 365 875 q 508 681 479 779 q 536 431 536 582 q 508 176 536 275 q 422 31 479 78 q 279 -15 365 -15 m 279 104 q 347 136 319 104 q 388 240 374 168 q 403 432 403 311 q 388 616 403 544 q 347 722 374 688 q 279 756 319 756 q 212 722 240 756 q 169 616 183 688 q 154 432 154 544 q 169 240 154 311 q 212 136 183 168 q 279 104 240 104 z "},"T":{"ha":556,"x_min":26,"x_max":528,"o":"m 207 0 l 207 743 l 26 743 l 26 867 l 528 867 l 528 743 l 338 743 l 338 0 l 207 0 z "},"Ŧ":{"ha":556,"x_min":26,"x_max":528,"o":"m 207 0 l 207 743 l 26 743 l 26 867 l 528 867 l 528 743 l 338 743 l 338 0 l 207 0 m 81 386 l 81 489 l 461 489 l 461 386 l 81 386 z "},"Ť":{"ha":556,"x_min":26,"x_max":528,"o":"m 207 0 l 207 743 l 26 743 l 26 867 l 528 867 l 528 743 l 338 743 l 338 0 l 207 0 z "},"Ţ":{"ha":556,"x_min":26,"x_max":528,"o":"m 207 0 l 207 743 l 26 743 l 26 867 l 528 867 l 528 743 l 338 743 l 338 0 l 207 0 z "},"Ț":{"ha":556,"x_min":26,"x_max":528,"o":"m 207 0 l 207 743 l 26 743 l 26 867 l 528 867 l 528 743 l 338 743 l 338 0 l 207 0 m 264 -399 l 196 -344 q 242 -280 225 -312 q 260 -224 260 -247 q 248 -192 260 -207 q 224 -159 236 -176 q 213 -115 213 -142 q 237 -56 213 -76 q 293 -35 261 -35 q 358 -63 333 -35 q 382 -143 382 -92 q 369 -225 382 -183 q 329 -310 356 -267 q 264 -399 303 -353 z "},"Ṭ":{"ha":556,"x_min":26,"x_max":528,"o":"m 207 0 l 207 743 l 26 743 l 26 867 l 528 867 l 528 743 l 338 743 l 338 0 l 207 0 z "},"Ṯ":{"ha":556,"x_min":26,"x_max":528,"o":"m 207 0 l 207 743 l 26 743 l 26 867 l 528 867 l 528 743 l 338 743 l 338 0 l 207 0 z "},"U":{"ha":556,"x_min":42,"x_max":515,"o":"m 278 -17 q 99 63 157 -17 q 42 290 42 142 l 42 865 l 175 865 l 188 865 l 188 854 q 178 836 181 846 q 176 803 176 826 l 176 289 q 199 150 176 197 q 279 103 221 103 q 361 153 339 103 q 383 293 383 203 l 383 865 l 515 865 l 515 294 q 488 116 515 185 q 406 15 460 47 q 278 -17 353 -17 l 278 -17 z "},"Ú":{"ha":556,"x_min":42,"x_max":515,"o":"m 278 -17 q 99 63 157 -17 q 42 290 42 142 l 42 865 l 175 865 l 188 865 l 188 854 q 178 836 181 846 q 176 803 176 826 l 176 289 q 199 150 176 197 q 279 103 221 103 q 361 153 339 103 q 383 293 383 203 l 383 865 l 515 865 l 515 294 q 488 116 515 185 q 406 15 460 47 q 278 -17 353 -17 l 278 -17 z "},"Ŭ":{"ha":556,"x_min":42,"x_max":515,"o":"m 278 -17 q 99 63 157 -17 q 42 290 42 142 l 42 865 l 175 865 l 188 865 l 188 854 q 178 836 181 846 q 176 803 176 826 l 176 289 q 199 150 176 197 q 279 103 221 103 q 361 153 339 103 q 383 293 383 203 l 383 865 l 515 865 l 515 294 q 488 116 515 185 q 406 15 460 47 q 278 -17 353 -17 l 278 -17 z "},"Û":{"ha":556,"x_min":42,"x_max":515,"o":"m 278 -17 q 99 63 157 -17 q 42 290 42 142 l 42 865 l 175 865 l 188 865 l 188 854 q 178 836 181 846 q 176 803 176 826 l 176 289 q 199 150 176 197 q 279 103 221 103 q 361 153 339 103 q 383 293 383 203 l 383 865 l 515 865 l 515 294 q 488 116 515 185 q 406 15 460 47 q 278 -17 353 -17 l 278 -17 m 128 901 l 82 971 l 261 1111 l 296 1111 l 471 974 l 424 901 l 279 993 l 128 901 z "},"Ȕ":{"ha":556,"x_min":42,"x_max":515,"o":"m 278 -17 q 99 63 157 -17 q 42 290 42 142 l 42 865 l 175 865 l 188 865 l 188 854 q 178 836 181 846 q 176 803 176 826 l 176 289 q 199 150 176 197 q 279 103 221 103 q 361 153 339 103 q 383 293 383 203 l 383 865 l 515 865 l 515 294 q 488 116 515 185 q 406 15 460 47 q 278 -17 353 -17 l 278 -17 z "},"Ü":{"ha":556,"x_min":42,"x_max":515,"o":"m 278 -17 q 99 63 157 -17 q 42 290 42 142 l 42 865 l 175 865 l 188 865 l 188 854 q 178 836 181 846 q 176 803 176 826 l 176 289 q 199 150 176 197 q 279 103 221 103 q 361 153 339 103 q 383 293 383 203 l 383 865 l 515 865 l 515 294 q 488 116 515 185 q 406 15 460 47 q 278 -17 353 -17 l 278 -17 z "},"Ụ":{"ha":556,"x_min":42,"x_max":515,"o":"m 278 -17 q 99 63 157 -17 q 42 290 42 142 l 42 865 l 175 865 l 188 865 l 188 854 q 178 836 181 846 q 176 803 176 826 l 176 289 q 199 150 176 197 q 279 103 221 103 q 361 153 339 103 q 383 293 383 203 l 383 865 l 515 865 l 515 294 q 488 116 515 185 q 406 15 460 47 q 278 -17 353 -17 l 278 -17 z "},"Ù":{"ha":556,"x_min":42,"x_max":515,"o":"m 278 -17 q 99 63 157 -17 q 42 290 42 142 l 42 865 l 175 865 l 188 865 l 188 854 q 178 836 181 846 q 176 803 176 826 l 176 289 q 199 150 176 197 q 279 103 221 103 q 361 153 339 103 q 383 293 383 203 l 383 865 l 515 865 l 515 294 q 488 116 515 185 q 406 15 460 47 q 278 -17 353 -17 l 278 -17 z "},"Ủ":{"ha":556,"x_min":42,"x_max":515,"o":"m 278 -17 q 99 63 157 -17 q 42 290 42 142 l 42 865 l 175 865 l 188 865 l 188 854 q 178 836 181 846 q 176 803 176 826 l 176 289 q 199 150 176 197 q 279 103 221 103 q 361 153 339 103 q 383 293 383 203 l 383 865 l 515 865 l 515 294 q 488 116 515 185 q 406 15 460 47 q 278 -17 353 -17 l 278 -17 m 401 1115 q 391 1070 401 1089 q 367 1035 381 1051 q 342 1002 353 1019 q 331 963 331 985 l 331 949 l 243 949 l 243 986 q 253 1022 243 1006 q 276 1051 263 1038 q 301 1078 290 1065 q 311 1104 311 1092 q 301 1130 311 1121 q 278 1139 292 1139 q 244 1129 258 1139 q 219 1096 229 1119 l 175 1174 q 227 1214 197 1201 q 288 1226 257 1226 q 348 1213 322 1226 q 388 1174 374 1199 q 401 1115 401 1150 z "},"Ư":{"ha":556,"x_min":38,"x_max":557,"o":"m 250 -17 q 90 63 142 -17 q 38 290 38 142 l 38 865 l 157 865 l 169 865 l 169 854 q 160 836 163 846 q 158 803 158 826 l 158 289 q 178 150 158 197 q 251 103 199 103 q 325 153 306 103 q 344 293 344 203 l 344 865 l 465 865 l 465 294 q 440 116 465 185 q 366 15 414 47 q 250 -17 318 -17 l 250 -17 m 453 771 l 439 865 q 461 877 454 865 q 470 917 468 889 q 472 996 472 946 l 556 996 q 548 869 556 919 q 519 795 540 819 q 453 771 497 771 z "},"Ứ":{"ha":556,"x_min":38,"x_max":557,"o":"m 250 -17 q 90 63 142 -17 q 38 290 38 142 l 38 865 l 157 865 l 169 865 l 169 854 q 160 836 163 846 q 158 803 158 826 l 158 289 q 178 150 158 197 q 251 103 199 103 q 325 153 306 103 q 344 293 344 203 l 344 865 l 465 865 l 465 294 q 440 116 465 185 q 366 15 414 47 q 250 -17 318 -17 l 250 -17 m 453 771 l 439 865 q 461 877 454 865 q 470 917 468 889 q 472 996 472 946 l 556 996 q 548 869 556 919 q 519 795 540 819 q 453 771 497 771 z "},"Ự":{"ha":556,"x_min":38,"x_max":557,"o":"m 250 -17 q 90 63 142 -17 q 38 290 38 142 l 38 865 l 157 865 l 169 865 l 169 854 q 160 836 163 846 q 158 803 158 826 l 158 289 q 178 150 158 197 q 251 103 199 103 q 325 153 306 103 q 344 293 344 203 l 344 865 l 465 865 l 465 294 q 440 116 465 185 q 366 15 414 47 q 250 -17 318 -17 l 250 -17 m 453 771 l 439 865 q 461 877 454 865 q 470 917 468 889 q 472 996 472 946 l 556 996 q 548 869 556 919 q 519 795 540 819 q 453 771 497 771 z "},"Ừ":{"ha":556,"x_min":38,"x_max":557,"o":"m 250 -17 q 90 63 142 -17 q 38 290 38 142 l 38 865 l 157 865 l 169 865 l 169 854 q 160 836 163 846 q 158 803 158 826 l 158 289 q 178 150 158 197 q 251 103 199 103 q 325 153 306 103 q 344 293 344 203 l 344 865 l 465 865 l 465 294 q 440 116 465 185 q 366 15 414 47 q 250 -17 318 -17 l 250 -17 m 453 771 l 439 865 q 461 877 454 865 q 470 917 468 889 q 472 996 472 946 l 556 996 q 548 869 556 919 q 519 795 540 819 q 453 771 497 771 z "},"Ử":{"ha":556,"x_min":38,"x_max":557,"o":"m 250 -17 q 90 63 142 -17 q 38 290 38 142 l 38 865 l 157 865 l 169 865 l 169 854 q 160 836 163 846 q 158 803 158 826 l 158 289 q 178 150 158 197 q 251 103 199 103 q 325 153 306 103 q 344 293 344 203 l 344 865 l 465 865 l 465 294 q 440 116 465 185 q 366 15 414 47 q 250 -17 318 -17 l 250 -17 m 453 771 l 439 865 q 461 877 454 865 q 470 917 468 889 q 472 996 472 946 l 556 996 q 548 869 556 919 q 519 795 540 819 q 453 771 497 771 m 375 1115 q 365 1070 375 1089 q 340 1035 354 1051 q 315 1002 326 1019 q 304 963 304 985 l 304 949 l 217 949 l 217 986 q 226 1022 217 1006 q 250 1051 236 1038 q 274 1078 264 1065 q 285 1104 285 1092 q 275 1130 285 1121 q 251 1139 265 1139 q 217 1129 232 1139 q 193 1096 203 1119 l 149 1174 q 201 1214 171 1201 q 261 1226 231 1226 q 322 1213 296 1226 q 361 1174 347 1199 q 375 1115 375 1150 z "},"Ữ":{"ha":556,"x_min":38,"x_max":557,"o":"m 250 -17 q 90 63 142 -17 q 38 290 38 142 l 38 865 l 157 865 l 169 865 l 169 854 q 160 836 163 846 q 158 803 158 826 l 158 289 q 178 150 158 197 q 251 103 199 103 q 325 153 306 103 q 344 293 344 203 l 344 865 l 465 865 l 465 294 q 440 116 465 185 q 366 15 414 47 q 250 -17 318 -17 l 250 -17 m 453 771 l 439 865 q 461 877 454 865 q 470 917 468 889 q 472 996 472 946 l 556 996 q 548 869 556 919 q 519 795 540 819 q 453 771 497 771 z "},"Ű":{"ha":556,"x_min":42,"x_max":515,"o":"m 278 -17 q 99 63 157 -17 q 42 290 42 142 l 42 865 l 175 865 l 188 865 l 188 854 q 178 836 181 846 q 176 803 176 826 l 176 289 q 199 150 176 197 q 279 103 221 103 q 361 153 339 103 q 383 293 383 203 l 383 865 l 515 865 l 515 294 q 488 116 515 185 q 406 15 460 47 q 278 -17 353 -17 l 278 -17 z "},"Ȗ":{"ha":556,"x_min":42,"x_max":515,"o":"m 278 -17 q 99 63 157 -17 q 42 290 42 142 l 42 865 l 175 865 l 188 865 l 188 854 q 178 836 181 846 q 176 803 176 826 l 176 289 q 199 150 176 197 q 279 103 221 103 q 361 153 339 103 q 383 293 383 203 l 383 865 l 515 865 l 515 294 q 488 116 515 185 q 406 15 460 47 q 278 -17 353 -17 l 278 -17 m 194 958 l 108 997 q 178 1097 135 1064 q 276 1131 222 1131 q 376 1097 332 1131 q 447 997 421 1064 l 361 958 q 326 1025 346 1003 q 276 1047 306 1047 q 243 1037 258 1047 q 216 1007 228 1026 q 194 958 204 988 z "},"Ū":{"ha":556,"x_min":42,"x_max":515,"o":"m 278 -17 q 99 63 157 -17 q 42 290 42 142 l 42 865 l 175 865 l 188 865 l 188 854 q 178 836 181 846 q 176 803 176 826 l 176 289 q 199 150 176 197 q 279 103 221 103 q 361 153 339 103 q 383 293 383 203 l 383 865 l 515 865 l 515 294 q 488 116 515 185 q 406 15 460 47 q 278 -17 353 -17 l 278 -17 z "},"Ṻ":{"ha":556,"x_min":42,"x_max":515,"o":"m 278 -17 q 99 63 157 -17 q 42 290 42 142 l 42 865 l 175 865 l 188 865 l 188 854 q 178 836 181 846 q 176 803 176 826 l 176 289 q 199 150 176 197 q 279 103 221 103 q 361 153 339 103 q 383 293 383 203 l 383 865 l 515 865 l 515 294 q 488 116 515 185 q 406 15 460 47 q 278 -17 353 -17 l 278 -17 z "},"Ų":{"ha":556,"x_min":42,"x_max":515,"o":"m 278 -17 q 99 63 157 -17 q 42 290 42 142 l 42 865 l 175 865 l 188 865 l 188 854 q 178 836 181 846 q 176 803 176 826 l 176 289 q 199 150 176 197 q 279 103 221 103 q 361 153 339 103 q 383 293 383 203 l 383 865 l 515 865 l 515 294 q 488 116 515 185 q 406 15 460 47 q 278 -17 353 -17 l 278 -17 m 401 -194 l 351 -317 q 269 -276 301 -300 q 220 -223 236 -253 q 204 -161 204 -193 q 222 -90 204 -126 q 274 -17 239 -53 q 357 51 308 19 l 404 14 q 362 -35 379 -11 q 335 -80 344 -58 q 326 -119 326 -101 q 345 -165 326 -146 q 401 -194 364 -183 z "},"Ů":{"ha":556,"x_min":42,"x_max":515,"o":"m 278 -17 q 99 63 157 -17 q 42 290 42 142 l 42 865 l 175 865 l 188 865 l 188 854 q 178 836 181 846 q 176 803 176 826 l 176 289 q 199 150 176 197 q 279 103 221 103 q 361 153 339 103 q 383 293 383 203 l 383 865 l 515 865 l 515 294 q 488 116 515 185 q 406 15 460 47 q 278 -17 353 -17 l 278 -17 z "},"Ũ":{"ha":556,"x_min":42,"x_max":515,"o":"m 278 -17 q 99 63 157 -17 q 42 290 42 142 l 42 865 l 175 865 l 188 865 l 188 854 q 178 836 181 846 q 176 803 176 826 l 176 289 q 199 150 176 197 q 279 103 221 103 q 361 153 339 103 q 383 293 383 203 l 383 865 l 515 865 l 515 294 q 488 116 515 185 q 406 15 460 47 q 278 -17 353 -17 l 278 -17 z "},"Ṹ":{"ha":556,"x_min":42,"x_max":515,"o":"m 278 -17 q 99 63 157 -17 q 42 290 42 142 l 42 865 l 175 865 l 188 865 l 188 854 q 178 836 181 846 q 176 803 176 826 l 176 289 q 199 150 176 197 q 279 103 221 103 q 361 153 339 103 q 383 293 383 203 l 383 865 l 515 865 l 515 294 q 488 116 515 185 q 406 15 460 47 q 278 -17 353 -17 l 278 -17 z "},"V":{"ha":556,"x_min":19,"x_max":543,"o":"m 235 -4 l 19 867 l 153 867 l 288 274 l 414 865 l 543 865 l 331 -4 l 235 -4 z "},"W":{"ha":556,"x_min":13,"x_max":550,"o":"m 106 0 l 13 865 l 126 865 l 172 347 l 256 779 l 324 779 l 407 347 l 442 865 l 550 865 l 457 0 l 378 0 l 283 497 l 189 0 l 106 0 z "},"Ẃ":{"ha":556,"x_min":13,"x_max":550,"o":"m 106 0 l 13 865 l 126 865 l 172 347 l 256 779 l 324 779 l 407 347 l 442 865 l 550 865 l 457 0 l 378 0 l 283 497 l 189 0 l 106 0 z "},"Ŵ":{"ha":556,"x_min":13,"x_max":550,"o":"m 106 0 l 13 865 l 126 865 l 172 347 l 256 779 l 324 779 l 407 347 l 442 865 l 550 865 l 457 0 l 378 0 l 283 497 l 189 0 l 106 0 m 138 901 l 92 971 l 271 1111 l 306 1111 l 481 974 l 433 901 l 289 993 l 138 901 z "},"Ẅ":{"ha":556,"x_min":13,"x_max":550,"o":"m 106 0 l 13 865 l 126 865 l 172 347 l 256 779 l 324 779 l 407 347 l 442 865 l 550 865 l 457 0 l 378 0 l 283 497 l 189 0 l 106 0 z "},"Ẁ":{"ha":556,"x_min":13,"x_max":550,"o":"m 106 0 l 13 865 l 126 865 l 172 347 l 256 779 l 324 779 l 407 347 l 442 865 l 550 865 l 457 0 l 378 0 l 283 497 l 189 0 l 106 0 z "},"X":{"ha":556,"x_min":35,"x_max":535,"o":"m 35 0 l 207 442 l 38 867 l 169 867 l 279 582 l 388 867 l 513 867 l 354 443 l 535 0 l 400 0 l 281 297 l 165 0 l 35 0 z "},"Y":{"ha":556,"x_min":21,"x_max":539,"o":"m 221 0 l 221 329 l 21 865 l 157 865 l 290 501 l 408 865 l 539 865 l 354 329 l 354 0 l 221 0 z "},"Ý":{"ha":556,"x_min":21,"x_max":539,"o":"m 221 0 l 221 329 l 21 865 l 157 865 l 290 501 l 408 865 l 539 865 l 354 329 l 354 0 l 221 0 z "},"Ŷ":{"ha":556,"x_min":21,"x_max":539,"o":"m 221 0 l 221 329 l 21 865 l 157 865 l 290 501 l 408 865 l 539 865 l 354 329 l 354 0 l 221 0 m 128 901 l 82 971 l 261 1111 l 296 1111 l 471 974 l 424 901 l 279 993 l 128 901 z "},"Ÿ":{"ha":556,"x_min":21,"x_max":539,"o":"m 221 0 l 221 329 l 21 865 l 157 865 l 290 501 l 408 865 l 539 865 l 354 329 l 354 0 l 221 0 z "},"Ẏ":{"ha":556,"x_min":21,"x_max":539,"o":"m 221 0 l 221 329 l 21 865 l 157 865 l 290 501 l 408 865 l 539 865 l 354 329 l 354 0 l 221 0 z "},"Ỵ":{"ha":556,"x_min":21,"x_max":539,"o":"m 221 0 l 221 329 l 21 865 l 157 865 l 290 501 l 408 865 l 539 865 l 354 329 l 354 0 l 221 0 z "},"Ỳ":{"ha":556,"x_min":21,"x_max":539,"o":"m 221 0 l 221 329 l 21 865 l 157 865 l 290 501 l 408 865 l 539 865 l 354 329 l 354 0 l 221 0 z "},"Ỷ":{"ha":556,"x_min":21,"x_max":539,"o":"m 221 0 l 221 329 l 21 865 l 157 865 l 290 501 l 408 865 l 539 865 l 354 329 l 354 0 l 221 0 m 401 1115 q 391 1070 401 1089 q 367 1035 381 1051 q 342 1002 353 1019 q 331 963 331 985 l 331 949 l 243 949 l 243 986 q 253 1022 243 1006 q 276 1051 263 1038 q 301 1078 290 1065 q 311 1104 311 1092 q 301 1130 311 1121 q 278 1139 292 1139 q 244 1129 258 1139 q 219 1096 229 1119 l 175 1174 q 227 1214 197 1201 q 288 1226 257 1226 q 348 1213 322 1226 q 388 1174 374 1199 q 401 1115 401 1150 z "},"Ȳ":{"ha":556,"x_min":21,"x_max":539,"o":"m 221 0 l 221 329 l 21 865 l 157 865 l 290 501 l 408 865 l 539 865 l 354 329 l 354 0 l 221 0 z "},"Ỹ":{"ha":556,"x_min":21,"x_max":539,"o":"m 221 0 l 221 329 l 21 865 l 157 865 l 290 501 l 408 865 l 539 865 l 354 329 l 354 0 l 221 0 z "},"Z":{"ha":556,"x_min":44,"x_max":528,"o":"m 44 85 l 356 742 l 57 742 l 57 865 l 513 865 l 513 781 l 206 122 l 465 122 q 499 125 489 122 q 517 136 508 128 l 528 136 l 528 122 l 528 0 l 44 0 l 44 85 z "},"Ź":{"ha":556,"x_min":44,"x_max":528,"o":"m 44 85 l 356 742 l 57 742 l 57 865 l 513 865 l 513 781 l 206 122 l 465 122 q 499 125 489 122 q 517 136 508 128 l 528 136 l 528 122 l 528 0 l 44 0 l 44 85 z "},"Ž":{"ha":556,"x_min":44,"x_max":528,"o":"m 44 85 l 356 742 l 57 742 l 57 865 l 513 865 l 513 781 l 206 122 l 465 122 q 499 125 489 122 q 517 136 508 128 l 528 136 l 528 122 l 528 0 l 44 0 l 44 85 z "},"Ż":{"ha":556,"x_min":44,"x_max":528,"o":"m 44 85 l 356 742 l 57 742 l 57 865 l 513 865 l 513 781 l 206 122 l 465 122 q 499 125 489 122 q 517 136 508 128 l 528 136 l 528 122 l 528 0 l 44 0 l 44 85 z "},"Ẓ":{"ha":556,"x_min":44,"x_max":528,"o":"m 44 85 l 356 742 l 57 742 l 57 865 l 513 865 l 513 781 l 206 122 l 465 122 q 499 125 489 122 q 517 136 508 128 l 528 136 l 528 122 l 528 0 l 44 0 l 44 85 z "},"a":{"ha":556,"x_min":39,"x_max":501,"o":"m 219 -15 q 86 38 133 -15 q 39 169 39 90 q 58 270 39 226 q 114 344 78 314 q 203 389 150 374 q 324 404 256 404 q 349 403 335 404 q 381 401 364 403 q 415 396 399 399 l 418 290 q 388 294 404 293 q 354 296 371 296 q 324 296 338 296 q 253 289 282 296 q 207 268 225 282 q 180 234 189 254 q 171 188 171 214 q 176 149 171 165 q 192 121 182 132 q 217 104 203 110 q 247 99 231 99 q 302 112 279 99 q 341 153 325 125 q 365 226 357 182 q 372 331 372 271 q 360 467 372 421 q 324 530 349 513 q 261 547 300 547 q 195 534 225 547 q 135 488 165 521 l 65 572 q 158 639 106 617 q 271 661 211 661 q 365 647 322 661 q 438 600 408 633 q 485 508 468 567 q 501 358 501 449 l 501 0 l 367 0 l 367 68 q 338 28 354 44 q 303 2 322 11 q 264 -11 285 -7 q 219 -15 243 -15 z "},"á":{"ha":556,"x_min":39,"x_max":501,"o":"m 219 -15 q 86 38 133 -15 q 39 169 39 90 q 58 270 39 226 q 114 344 78 314 q 203 389 150 374 q 324 404 256 404 q 349 403 335 404 q 381 401 364 403 q 415 396 399 399 l 418 290 q 388 294 404 293 q 354 296 371 296 q 324 296 338 296 q 253 289 282 296 q 207 268 225 282 q 180 234 189 254 q 171 188 171 214 q 176 149 171 165 q 192 121 182 132 q 217 104 203 110 q 247 99 231 99 q 302 112 279 99 q 341 153 325 125 q 365 226 357 182 q 372 331 372 271 q 360 467 372 421 q 324 530 349 513 q 261 547 300 547 q 195 534 225 547 q 135 488 165 521 l 65 572 q 158 639 106 617 q 271 661 211 661 q 365 647 322 661 q 438 600 408 633 q 485 508 468 567 q 501 358 501 449 l 501 0 l 367 0 l 367 68 q 338 28 354 44 q 303 2 322 11 q 264 -11 285 -7 q 219 -15 243 -15 z "},"ă":{"ha":556,"x_min":39,"x_max":501,"o":"m 219 -15 q 86 38 133 -15 q 39 169 39 90 q 58 270 39 226 q 114 344 78 314 q 203 389 150 374 q 324 404 256 404 q 349 403 335 404 q 381 401 364 403 q 415 396 399 399 l 418 290 q 388 294 404 293 q 354 296 371 296 q 324 296 338 296 q 253 289 282 296 q 207 268 225 282 q 180 234 189 254 q 171 188 171 214 q 176 149 171 165 q 192 121 182 132 q 217 104 203 110 q 247 99 231 99 q 302 112 279 99 q 341 153 325 125 q 365 226 357 182 q 372 331 372 271 q 360 467 372 421 q 324 530 349 513 q 261 547 300 547 q 195 534 225 547 q 135 488 165 521 l 65 572 q 158 639 106 617 q 271 661 211 661 q 365 647 322 661 q 438 600 408 633 q 485 508 468 567 q 501 358 501 449 l 501 0 l 367 0 l 367 68 q 338 28 354 44 q 303 2 322 11 q 264 -11 285 -7 q 219 -15 243 -15 m 357 910 l 443 871 q 373 770 417 804 q 274 736 329 736 q 174 770 219 736 q 104 871 129 804 l 189 908 q 226 843 206 865 q 274 821 246 821 q 308 831 293 821 q 336 862 324 842 q 357 910 349 882 z "},"ắ":{"ha":556,"x_min":39,"x_max":501,"o":"m 219 -15 q 86 38 133 -15 q 39 169 39 90 q 58 270 39 226 q 114 344 78 314 q 203 389 150 374 q 324 404 256 404 q 349 403 335 404 q 381 401 364 403 q 415 396 399 399 l 418 290 q 388 294 404 293 q 354 296 371 296 q 324 296 338 296 q 253 289 282 296 q 207 268 225 282 q 180 234 189 254 q 171 188 171 214 q 176 149 171 165 q 192 121 182 132 q 217 104 203 110 q 247 99 231 99 q 302 112 279 99 q 341 153 325 125 q 365 226 357 182 q 372 331 372 271 q 360 467 372 421 q 324 530 349 513 q 261 547 300 547 q 195 534 225 547 q 135 488 165 521 l 65 572 q 158 639 106 617 q 271 661 211 661 q 365 647 322 661 q 438 600 408 633 q 485 508 468 567 q 501 358 501 449 l 501 0 l 367 0 l 367 68 q 338 28 354 44 q 303 2 322 11 q 264 -11 285 -7 q 219 -15 243 -15 z "},"ặ":{"ha":556,"x_min":39,"x_max":501,"o":"m 219 -15 q 86 38 133 -15 q 39 169 39 90 q 58 270 39 226 q 114 344 78 314 q 203 389 150 374 q 324 404 256 404 q 349 403 335 404 q 381 401 364 403 q 415 396 399 399 l 418 290 q 388 294 404 293 q 354 296 371 296 q 324 296 338 296 q 253 289 282 296 q 207 268 225 282 q 180 234 189 254 q 171 188 171 214 q 176 149 171 165 q 192 121 182 132 q 217 104 203 110 q 247 99 231 99 q 302 112 279 99 q 341 153 325 125 q 365 226 357 182 q 372 331 372 271 q 360 467 372 421 q 324 530 349 513 q 261 547 300 547 q 195 534 225 547 q 135 488 165 521 l 65 572 q 158 639 106 617 q 271 661 211 661 q 365 647 322 661 q 438 600 408 633 q 485 508 468 567 q 501 358 501 449 l 501 0 l 367 0 l 367 68 q 338 28 354 44 q 303 2 322 11 q 264 -11 285 -7 q 219 -15 243 -15 m 357 910 l 443 871 q 373 770 417 804 q 274 736 329 736 q 174 770 219 736 q 104 871 129 804 l 189 908 q 226 843 206 865 q 274 821 246 821 q 308 831 293 821 q 336 862 324 842 q 357 910 349 882 z "},"ằ":{"ha":556,"x_min":39,"x_max":501,"o":"m 219 -15 q 86 38 133 -15 q 39 169 39 90 q 58 270 39 226 q 114 344 78 314 q 203 389 150 374 q 324 404 256 404 q 349 403 335 404 q 381 401 364 403 q 415 396 399 399 l 418 290 q 388 294 404 293 q 354 296 371 296 q 324 296 338 296 q 253 289 282 296 q 207 268 225 282 q 180 234 189 254 q 171 188 171 214 q 176 149 171 165 q 192 121 182 132 q 217 104 203 110 q 247 99 231 99 q 302 112 279 99 q 341 153 325 125 q 365 226 357 182 q 372 331 372 271 q 360 467 372 421 q 324 530 349 513 q 261 547 300 547 q 195 534 225 547 q 135 488 165 521 l 65 572 q 158 639 106 617 q 271 661 211 661 q 365 647 322 661 q 438 600 408 633 q 485 508 468 567 q 501 358 501 449 l 501 0 l 367 0 l 367 68 q 338 28 354 44 q 303 2 322 11 q 264 -11 285 -7 q 219 -15 243 -15 z "},"ẳ":{"ha":556,"x_min":39,"x_max":501,"o":"m 219 -15 q 86 38 133 -15 q 39 169 39 90 q 58 270 39 226 q 114 344 78 314 q 203 389 150 374 q 324 404 256 404 q 349 403 335 404 q 381 401 364 403 q 415 396 399 399 l 418 290 q 388 294 404 293 q 354 296 371 296 q 324 296 338 296 q 253 289 282 296 q 207 268 225 282 q 180 234 189 254 q 171 188 171 214 q 176 149 171 165 q 192 121 182 132 q 217 104 203 110 q 247 99 231 99 q 302 112 279 99 q 341 153 325 125 q 365 226 357 182 q 372 331 372 271 q 360 467 372 421 q 324 530 349 513 q 261 547 300 547 q 195 534 225 547 q 135 488 165 521 l 65 572 q 158 639 106 617 q 271 661 211 661 q 365 647 322 661 q 438 600 408 633 q 485 508 468 567 q 501 358 501 449 l 501 0 l 367 0 l 367 68 q 338 28 354 44 q 303 2 322 11 q 264 -11 285 -7 q 219 -15 243 -15 z "},"ẵ":{"ha":556,"x_min":39,"x_max":501,"o":"m 219 -15 q 86 38 133 -15 q 39 169 39 90 q 58 270 39 226 q 114 344 78 314 q 203 389 150 374 q 324 404 256 404 q 349 403 335 404 q 381 401 364 403 q 415 396 399 399 l 418 290 q 388 294 404 293 q 354 296 371 296 q 324 296 338 296 q 253 289 282 296 q 207 268 225 282 q 180 234 189 254 q 171 188 171 214 q 176 149 171 165 q 192 121 182 132 q 217 104 203 110 q 247 99 231 99 q 302 112 279 99 q 341 153 325 125 q 365 226 357 182 q 372 331 372 271 q 360 467 372 421 q 324 530 349 513 q 261 547 300 547 q 195 534 225 547 q 135 488 165 521 l 65 572 q 158 639 106 617 q 271 661 211 661 q 365 647 322 661 q 438 600 408 633 q 485 508 468 567 q 501 358 501 449 l 501 0 l 367 0 l 367 68 q 338 28 354 44 q 303 2 322 11 q 264 -11 285 -7 q 219 -15 243 -15 z "},"â":{"ha":556,"x_min":39,"x_max":501,"o":"m 219 -15 q 86 38 133 -15 q 39 169 39 90 q 58 270 39 226 q 114 344 78 314 q 203 389 150 374 q 324 404 256 404 q 349 403 335 404 q 381 401 364 403 q 415 396 399 399 l 418 290 q 388 294 404 293 q 354 296 371 296 q 324 296 338 296 q 253 289 282 296 q 207 268 225 282 q 180 234 189 254 q 171 188 171 214 q 176 149 171 165 q 192 121 182 132 q 217 104 203 110 q 247 99 231 99 q 302 112 279 99 q 341 153 325 125 q 365 226 357 182 q 372 331 372 271 q 360 467 372 421 q 324 530 349 513 q 261 547 300 547 q 195 534 225 547 q 135 488 165 521 l 65 572 q 158 639 106 617 q 271 661 211 661 q 365 647 322 661 q 438 600 408 633 q 485 508 468 567 q 501 358 501 449 l 501 0 l 367 0 l 367 68 q 338 28 354 44 q 303 2 322 11 q 264 -11 285 -7 q 219 -15 243 -15 m 161 693 l 96 753 l 256 946 l 293 946 l 453 753 l 388 693 l 274 819 l 161 693 z "},"ấ":{"ha":556,"x_min":39,"x_max":561,"o":"m 219 -15 q 86 38 133 -15 q 39 169 39 90 q 58 270 39 226 q 114 344 78 314 q 203 389 150 374 q 324 404 256 404 q 349 403 335 404 q 381 401 364 403 q 415 396 399 399 l 418 290 q 388 294 404 293 q 354 296 371 296 q 324 296 338 296 q 253 289 282 296 q 207 268 225 282 q 180 234 189 254 q 171 188 171 214 q 176 149 171 165 q 192 121 182 132 q 217 104 203 110 q 247 99 231 99 q 302 112 279 99 q 341 153 325 125 q 365 226 357 182 q 372 331 372 271 q 360 467 372 421 q 324 530 349 513 q 261 547 300 547 q 195 534 225 547 q 135 488 165 521 l 65 572 q 158 639 106 617 q 271 661 211 661 q 365 647 322 661 q 438 600 408 633 q 485 508 468 567 q 501 358 501 449 l 501 0 l 367 0 l 367 68 q 338 28 354 44 q 303 2 322 11 q 264 -11 285 -7 q 219 -15 243 -15 z "},"ậ":{"ha":556,"x_min":39,"x_max":501,"o":"m 219 -15 q 86 38 133 -15 q 39 169 39 90 q 58 270 39 226 q 114 344 78 314 q 203 389 150 374 q 324 404 256 404 q 349 403 335 404 q 381 401 364 403 q 415 396 399 399 l 418 290 q 388 294 404 293 q 354 296 371 296 q 324 296 338 296 q 253 289 282 296 q 207 268 225 282 q 180 234 189 254 q 171 188 171 214 q 176 149 171 165 q 192 121 182 132 q 217 104 203 110 q 247 99 231 99 q 302 112 279 99 q 341 153 325 125 q 365 226 357 182 q 372 331 372 271 q 360 467 372 421 q 324 530 349 513 q 261 547 300 547 q 195 534 225 547 q 135 488 165 521 l 65 572 q 158 639 106 617 q 271 661 211 661 q 365 647 322 661 q 438 600 408 633 q 485 508 468 567 q 501 358 501 449 l 501 0 l 367 0 l 367 68 q 338 28 354 44 q 303 2 322 11 q 264 -11 285 -7 q 219 -15 243 -15 m 161 693 l 96 753 l 256 946 l 293 946 l 453 753 l 388 693 l 274 819 l 161 693 z "},"ầ":{"ha":556,"x_min":39,"x_max":501,"o":"m 219 -15 q 86 38 133 -15 q 39 169 39 90 q 58 270 39 226 q 114 344 78 314 q 203 389 150 374 q 324 404 256 404 q 349 403 335 404 q 381 401 364 403 q 415 396 399 399 l 418 290 q 388 294 404 293 q 354 296 371 296 q 324 296 338 296 q 253 289 282 296 q 207 268 225 282 q 180 234 189 254 q 171 188 171 214 q 176 149 171 165 q 192 121 182 132 q 217 104 203 110 q 247 99 231 99 q 302 112 279 99 q 341 153 325 125 q 365 226 357 182 q 372 331 372 271 q 360 467 372 421 q 324 530 349 513 q 261 547 300 547 q 195 534 225 547 q 135 488 165 521 l 65 572 q 158 639 106 617 q 271 661 211 661 q 365 647 322 661 q 438 600 408 633 q 485 508 468 567 q 501 358 501 449 l 501 0 l 367 0 l 367 68 q 338 28 354 44 q 303 2 322 11 q 264 -11 285 -7 q 219 -15 243 -15 z "},"ẩ":{"ha":556,"x_min":39,"x_max":540,"o":"m 219 -15 q 86 38 133 -15 q 39 169 39 90 q 58 270 39 226 q 114 344 78 314 q 203 389 150 374 q 324 404 256 404 q 349 403 335 404 q 381 401 364 403 q 415 396 399 399 l 418 290 q 388 294 404 293 q 354 296 371 296 q 324 296 338 296 q 253 289 282 296 q 207 268 225 282 q 180 234 189 254 q 171 188 171 214 q 176 149 171 165 q 192 121 182 132 q 217 104 203 110 q 247 99 231 99 q 302 112 279 99 q 341 153 325 125 q 365 226 357 182 q 372 331 372 271 q 360 467 372 421 q 324 530 349 513 q 261 547 300 547 q 195 534 225 547 q 135 488 165 521 l 65 572 q 158 639 106 617 q 271 661 211 661 q 365 647 322 661 q 438 600 408 633 q 485 508 468 567 q 501 358 501 449 l 501 0 l 367 0 l 367 68 q 338 28 354 44 q 303 2 322 11 q 264 -11 285 -7 q 219 -15 243 -15 z "},"ẫ":{"ha":556,"x_min":39,"x_max":501,"o":"m 219 -15 q 86 38 133 -15 q 39 169 39 90 q 58 270 39 226 q 114 344 78 314 q 203 389 150 374 q 324 404 256 404 q 349 403 335 404 q 381 401 364 403 q 415 396 399 399 l 418 290 q 388 294 404 293 q 354 296 371 296 q 324 296 338 296 q 253 289 282 296 q 207 268 225 282 q 180 234 189 254 q 171 188 171 214 q 176 149 171 165 q 192 121 182 132 q 217 104 203 110 q 247 99 231 99 q 302 112 279 99 q 341 153 325 125 q 365 226 357 182 q 372 331 372 271 q 360 467 372 421 q 324 530 349 513 q 261 547 300 547 q 195 534 225 547 q 135 488 165 521 l 65 572 q 158 639 106 617 q 271 661 211 661 q 365 647 322 661 q 438 600 408 633 q 485 508 468 567 q 501 358 501 449 l 501 0 l 367 0 l 367 68 q 338 28 354 44 q 303 2 322 11 q 264 -11 285 -7 q 219 -15 243 -15 z "},"ȁ":{"ha":556,"x_min":39,"x_max":501,"o":"m 219 -15 q 86 38 133 -15 q 39 169 39 90 q 58 270 39 226 q 114 344 78 314 q 203 389 150 374 q 324 404 256 404 q 349 403 335 404 q 381 401 364 403 q 415 396 399 399 l 418 290 q 388 294 404 293 q 354 296 371 296 q 324 296 338 296 q 253 289 282 296 q 207 268 225 282 q 180 234 189 254 q 171 188 171 214 q 176 149 171 165 q 192 121 182 132 q 217 104 203 110 q 247 99 231 99 q 302 112 279 99 q 341 153 325 125 q 365 226 357 182 q 372 331 372 271 q 360 467 372 421 q 324 530 349 513 q 261 547 300 547 q 195 534 225 547 q 135 488 165 521 l 65 572 q 158 639 106 617 q 271 661 211 661 q 365 647 322 661 q 438 600 408 633 q 485 508 468 567 q 501 358 501 449 l 501 0 l 367 0 l 367 68 q 338 28 354 44 q 303 2 322 11 q 264 -11 285 -7 q 219 -15 243 -15 z "},"ä":{"ha":556,"x_min":39,"x_max":501,"o":"m 219 -15 q 86 38 133 -15 q 39 169 39 90 q 58 270 39 226 q 114 344 78 314 q 203 389 150 374 q 324 404 256 404 q 349 403 335 404 q 381 401 364 403 q 415 396 399 399 l 418 290 q 388 294 404 293 q 354 296 371 296 q 324 296 338 296 q 253 289 282 296 q 207 268 225 282 q 180 234 189 254 q 171 188 171 214 q 176 149 171 165 q 192 121 182 132 q 217 104 203 110 q 247 99 231 99 q 302 112 279 99 q 341 153 325 125 q 365 226 357 182 q 372 331 372 271 q 360 467 372 421 q 324 530 349 513 q 261 547 300 547 q 195 534 225 547 q 135 488 165 521 l 65 572 q 158 639 106 617 q 271 661 211 661 q 365 647 322 661 q 438 600 408 633 q 485 508 468 567 q 501 358 501 449 l 501 0 l 367 0 l 367 68 q 338 28 354 44 q 303 2 322 11 q 264 -11 285 -7 q 219 -15 243 -15 z "},"ạ":{"ha":556,"x_min":39,"x_max":501,"o":"m 219 -15 q 86 38 133 -15 q 39 169 39 90 q 58 270 39 226 q 114 344 78 314 q 203 389 150 374 q 324 404 256 404 q 349 403 335 404 q 381 401 364 403 q 415 396 399 399 l 418 290 q 388 294 404 293 q 354 296 371 296 q 324 296 338 296 q 253 289 282 296 q 207 268 225 282 q 180 234 189 254 q 171 188 171 214 q 176 149 171 165 q 192 121 182 132 q 217 104 203 110 q 247 99 231 99 q 302 112 279 99 q 341 153 325 125 q 365 226 357 182 q 372 331 372 271 q 360 467 372 421 q 324 530 349 513 q 261 547 300 547 q 195 534 225 547 q 135 488 165 521 l 65 572 q 158 639 106 617 q 271 661 211 661 q 365 647 322 661 q 438 600 408 633 q 485 508 468 567 q 501 358 501 449 l 501 0 l 367 0 l 367 68 q 338 28 354 44 q 303 2 322 11 q 264 -11 285 -7 q 219 -15 243 -15 z "},"à":{"ha":556,"x_min":39,"x_max":501,"o":"m 219 -15 q 86 38 133 -15 q 39 169 39 90 q 58 270 39 226 q 114 344 78 314 q 203 389 150 374 q 324 404 256 404 q 349 403 335 404 q 381 401 364 403 q 415 396 399 399 l 418 290 q 388 294 404 293 q 354 296 371 296 q 324 296 338 296 q 253 289 282 296 q 207 268 225 282 q 180 234 189 254 q 171 188 171 214 q 176 149 171 165 q 192 121 182 132 q 217 104 203 110 q 247 99 231 99 q 302 112 279 99 q 341 153 325 125 q 365 226 357 182 q 372 331 372 271 q 360 467 372 421 q 324 530 349 513 q 261 547 300 547 q 195 534 225 547 q 135 488 165 521 l 65 572 q 158 639 106 617 q 271 661 211 661 q 365 647 322 661 q 438 600 408 633 q 485 508 468 567 q 501 358 501 449 l 501 0 l 367 0 l 367 68 q 338 28 354 44 q 303 2 322 11 q 264 -11 285 -7 q 219 -15 243 -15 z "},"ả":{"ha":556,"x_min":39,"x_max":501,"o":"m 219 -15 q 86 38 133 -15 q 39 169 39 90 q 58 270 39 226 q 114 344 78 314 q 203 389 150 374 q 324 404 256 404 q 349 403 335 404 q 381 401 364 403 q 415 396 399 399 l 418 290 q 388 294 404 293 q 354 296 371 296 q 324 296 338 296 q 253 289 282 296 q 207 268 225 282 q 180 234 189 254 q 171 188 171 214 q 176 149 171 165 q 192 121 182 132 q 217 104 203 110 q 247 99 231 99 q 302 112 279 99 q 341 153 325 125 q 365 226 357 182 q 372 331 372 271 q 360 467 372 421 q 324 530 349 513 q 261 547 300 547 q 195 534 225 547 q 135 488 165 521 l 65 572 q 158 639 106 617 q 271 661 211 661 q 365 647 322 661 q 438 600 408 633 q 485 508 468 567 q 501 358 501 449 l 501 0 l 367 0 l 367 68 q 338 28 354 44 q 303 2 322 11 q 264 -11 285 -7 q 219 -15 243 -15 m 399 885 q 388 840 399 858 q 364 805 378 821 q 339 772 350 789 q 328 732 328 754 l 328 718 l 240 718 l 240 756 q 250 791 240 775 q 274 821 260 807 q 298 848 288 835 q 308 874 308 861 q 299 899 308 890 q 275 908 289 908 q 241 899 256 908 q 217 865 226 889 l 172 943 q 224 983 194 971 q 285 996 254 996 q 345 982 319 996 q 385 944 371 968 q 399 885 399 919 z "},"ȃ":{"ha":556,"x_min":39,"x_max":501,"o":"m 219 -15 q 86 38 133 -15 q 39 169 39 90 q 58 270 39 226 q 114 344 78 314 q 203 389 150 374 q 324 404 256 404 q 349 403 335 404 q 381 401 364 403 q 415 396 399 399 l 418 290 q 388 294 404 293 q 354 296 371 296 q 324 296 338 296 q 253 289 282 296 q 207 268 225 282 q 180 234 189 254 q 171 188 171 214 q 176 149 171 165 q 192 121 182 132 q 217 104 203 110 q 247 99 231 99 q 302 112 279 99 q 341 153 325 125 q 365 226 357 182 q 372 331 372 271 q 360 467 372 421 q 324 530 349 513 q 261 547 300 547 q 195 534 225 547 q 135 488 165 521 l 65 572 q 158 639 106 617 q 271 661 211 661 q 365 647 322 661 q 438 600 408 633 q 485 508 468 567 q 501 358 501 449 l 501 0 l 367 0 l 367 68 q 338 28 354 44 q 303 2 322 11 q 264 -11 285 -7 q 219 -15 243 -15 m 192 729 l 106 768 q 176 868 132 835 q 274 901 219 901 q 374 868 329 901 q 444 768 418 835 l 358 729 q 323 796 343 774 q 274 818 303 818 q 240 808 256 818 q 213 778 225 797 q 192 729 201 758 z "},"ā":{"ha":556,"x_min":39,"x_max":501,"o":"m 219 -15 q 86 38 133 -15 q 39 169 39 90 q 58 270 39 226 q 114 344 78 314 q 203 389 150 374 q 324 404 256 404 q 349 403 335 404 q 381 401 364 403 q 415 396 399 399 l 418 290 q 388 294 404 293 q 354 296 371 296 q 324 296 338 296 q 253 289 282 296 q 207 268 225 282 q 180 234 189 254 q 171 188 171 214 q 176 149 171 165 q 192 121 182 132 q 217 104 203 110 q 247 99 231 99 q 302 112 279 99 q 341 153 325 125 q 365 226 357 182 q 372 331 372 271 q 360 467 372 421 q 324 530 349 513 q 261 547 300 547 q 195 534 225 547 q 135 488 165 521 l 65 572 q 158 639 106 617 q 271 661 211 661 q 365 647 322 661 q 438 600 408 633 q 485 508 468 567 q 501 358 501 449 l 501 0 l 367 0 l 367 68 q 338 28 354 44 q 303 2 322 11 q 264 -11 285 -7 q 219 -15 243 -15 z "},"ą":{"ha":556,"x_min":39,"x_max":501,"o":"m 219 -15 q 86 38 133 -15 q 39 169 39 90 q 58 270 39 226 q 114 344 78 314 q 203 389 150 374 q 324 404 256 404 q 349 403 335 404 q 381 401 364 403 q 415 396 399 399 l 418 290 q 388 294 404 293 q 354 296 371 296 q 324 296 338 296 q 253 289 282 296 q 207 268 225 282 q 180 234 189 254 q 171 188 171 214 q 176 149 171 165 q 192 121 182 132 q 217 104 203 110 q 247 99 231 99 q 302 112 279 99 q 341 153 325 125 q 365 226 357 182 q 372 331 372 271 q 360 467 372 421 q 324 530 349 513 q 261 547 300 547 q 195 534 225 547 q 135 488 165 521 l 65 572 q 158 639 106 617 q 271 661 211 661 q 365 647 322 661 q 438 600 408 633 q 485 508 468 567 q 501 358 501 449 l 501 0 l 367 0 l 367 68 q 338 28 354 44 q 303 2 322 11 q 264 -11 285 -7 q 219 -15 243 -15 m 438 -208 l 388 -331 q 305 -290 338 -314 q 256 -237 272 -267 q 240 -175 240 -207 q 258 -103 240 -140 q 310 -31 275 -67 q 393 38 344 6 l 440 0 q 398 -49 415 -25 q 372 -94 381 -72 q 363 -133 363 -115 q 381 -178 363 -160 q 438 -208 400 -197 z "},"å":{"ha":556,"x_min":39,"x_max":501,"o":"m 219 -15 q 86 38 133 -15 q 39 169 39 90 q 58 270 39 226 q 114 344 78 314 q 203 389 150 374 q 324 404 256 404 q 349 403 335 404 q 381 401 364 403 q 415 396 399 399 l 418 290 q 388 294 404 293 q 354 296 371 296 q 324 296 338 296 q 253 289 282 296 q 207 268 225 282 q 180 234 189 254 q 171 188 171 214 q 176 149 171 165 q 192 121 182 132 q 217 104 203 110 q 247 99 231 99 q 302 112 279 99 q 341 153 325 125 q 365 226 357 182 q 372 331 372 271 q 360 467 372 421 q 324 530 349 513 q 261 547 300 547 q 195 534 225 547 q 135 488 165 521 l 65 572 q 158 639 106 617 q 271 661 211 661 q 365 647 322 661 q 438 600 408 633 q 485 508 468 567 q 501 358 501 449 l 501 0 l 367 0 l 367 68 q 338 28 354 44 q 303 2 322 11 q 264 -11 285 -7 q 219 -15 243 -15 z "},"ǻ":{"ha":556,"x_min":39,"x_max":501,"o":"m 219 -15 q 86 38 133 -15 q 39 169 39 90 q 58 270 39 226 q 114 344 78 314 q 203 389 150 374 q 324 404 256 404 q 349 403 335 404 q 381 401 364 403 q 415 396 399 399 l 418 290 q 388 294 404 293 q 354 296 371 296 q 324 296 338 296 q 253 289 282 296 q 207 268 225 282 q 180 234 189 254 q 171 188 171 214 q 176 149 171 165 q 192 121 182 132 q 217 104 203 110 q 247 99 231 99 q 302 112 279 99 q 341 153 325 125 q 365 226 357 182 q 372 331 372 271 q 360 467 372 421 q 324 530 349 513 q 261 547 300 547 q 195 534 225 547 q 135 488 165 521 l 65 572 q 158 639 106 617 q 271 661 211 661 q 365 647 322 661 q 438 600 408 633 q 485 508 468 567 q 501 358 501 449 l 501 0 l 367 0 l 367 68 q 338 28 354 44 q 303 2 322 11 q 264 -11 285 -7 q 219 -15 243 -15 z "},"ã":{"ha":556,"x_min":39,"x_max":501,"o":"m 219 -15 q 86 38 133 -15 q 39 169 39 90 q 58 270 39 226 q 114 344 78 314 q 203 389 150 374 q 324 404 256 404 q 349 403 335 404 q 381 401 364 403 q 415 396 399 399 l 418 290 q 388 294 404 293 q 354 296 371 296 q 324 296 338 296 q 253 289 282 296 q 207 268 225 282 q 180 234 189 254 q 171 188 171 214 q 176 149 171 165 q 192 121 182 132 q 217 104 203 110 q 247 99 231 99 q 302 112 279 99 q 341 153 325 125 q 365 226 357 182 q 372 331 372 271 q 360 467 372 421 q 324 530 349 513 q 261 547 300 547 q 195 534 225 547 q 135 488 165 521 l 65 572 q 158 639 106 617 q 271 661 211 661 q 365 647 322 661 q 438 600 408 633 q 485 508 468 567 q 501 358 501 449 l 501 0 l 367 0 l 367 68 q 338 28 354 44 q 303 2 322 11 q 264 -11 285 -7 q 219 -15 243 -15 m 394 928 l 465 888 q 417 808 444 836 q 354 779 390 779 q 302 790 322 779 q 267 817 282 801 q 240 843 251 832 q 213 854 228 854 q 182 839 194 854 q 157 796 169 824 l 81 831 q 130 917 99 886 q 206 947 161 947 q 253 936 233 947 q 288 910 274 925 q 317 885 303 896 q 346 874 331 874 q 374 888 364 874 q 394 928 383 903 z "},"æ":{"ha":556,"x_min":4,"x_max":554,"o":"m 161 -17 q 80 7 115 -17 q 24 74 44 31 q 4 176 4 118 q 19 267 4 228 q 61 335 33 307 q 130 380 89 364 q 224 399 171 396 q 215 483 224 450 q 192 533 207 517 q 156 550 176 550 q 115 536 135 550 q 79 497 94 522 l 24 579 q 87 637 50 618 q 167 656 124 656 q 216 645 192 656 q 259 617 240 635 q 288 581 278 600 q 315 619 299 601 q 353 646 332 636 q 394 656 374 656 q 483 622 449 656 q 533 526 517 589 q 549 371 549 463 l 549 313 l 332 303 l 332 246 q 338 181 332 210 q 356 131 344 151 q 383 100 367 111 q 419 89 399 89 q 450 94 436 89 q 476 112 464 100 q 500 139 489 124 l 554 58 q 491 3 526 22 q 414 -17 456 -17 q 365 -8 389 -17 q 319 19 340 1 q 283 61 297 38 q 251 20 271 38 q 209 -7 232 3 q 161 -17 186 -17 m 169 92 q 206 114 193 92 q 222 181 218 136 q 226 294 226 226 q 162 278 186 293 q 128 237 138 263 q 118 175 118 211 q 123 128 118 147 q 140 101 128 110 q 169 92 151 92 m 332 404 l 450 408 q 443 488 450 457 q 424 535 436 519 q 393 550 411 550 q 361 533 375 550 q 340 483 347 515 q 332 404 332 451 z "},"ǽ":{"ha":556,"x_min":4,"x_max":554,"o":"m 161 -17 q 80 7 115 -17 q 24 74 44 31 q 4 176 4 118 q 19 267 4 228 q 61 335 33 307 q 130 380 89 364 q 224 399 171 396 q 215 483 224 450 q 192 533 207 517 q 156 550 176 550 q 115 536 135 550 q 79 497 94 522 l 24 579 q 87 637 50 618 q 167 656 124 656 q 216 645 192 656 q 259 617 240 635 q 288 581 278 600 q 315 619 299 601 q 353 646 332 636 q 394 656 374 656 q 483 622 449 656 q 533 526 517 589 q 549 371 549 463 l 549 313 l 332 303 l 332 246 q 338 181 332 210 q 356 131 344 151 q 383 100 367 111 q 419 89 399 89 q 450 94 436 89 q 476 112 464 100 q 500 139 489 124 l 554 58 q 491 3 526 22 q 414 -17 456 -17 q 365 -8 389 -17 q 319 19 340 1 q 283 61 297 38 q 251 20 271 38 q 209 -7 232 3 q 161 -17 186 -17 m 169 92 q 206 114 193 92 q 222 181 218 136 q 226 294 226 226 q 162 278 186 293 q 128 237 138 263 q 118 175 118 211 q 123 128 118 147 q 140 101 128 110 q 169 92 151 92 m 332 404 l 450 408 q 443 488 450 457 q 424 535 436 519 q 393 550 411 550 q 361 533 375 550 q 340 483 347 515 q 332 404 332 451 z "},"b":{"ha":556,"x_min":50,"x_max":526,"o":"m 313 -15 q 258 -6 285 -15 q 210 24 232 4 q 174 72 189 43 l 156 0 l 50 0 l 50 929 l 182 929 l 194 929 l 194 917 q 185 899 188 908 q 183 865 183 889 l 183 569 q 210 609 194 592 q 244 638 225 626 q 283 656 263 650 q 322 661 303 661 q 407 644 369 661 q 471 587 444 626 q 512 484 497 547 q 526 329 526 421 q 510 167 526 233 q 463 60 493 100 q 394 2 433 19 q 313 -15 356 -15 l 313 -15 m 286 100 q 330 110 310 100 q 365 143 350 119 q 387 210 379 167 q 394 318 394 253 q 388 424 394 381 q 367 494 381 467 q 333 535 353 522 q 288 549 314 549 q 233 524 257 549 q 197 449 210 499 q 183 322 185 399 q 190 223 183 265 q 209 153 196 181 q 241 113 222 126 q 286 100 260 100 l 286 100 z "},"ʘ":{"ha":556,"x_min":22,"x_max":536,"o":"m 279 -15 q 137 31 194 -15 q 51 176 79 78 q 22 431 22 275 q 51 681 22 582 q 137 827 79 779 q 279 875 194 875 q 422 827 365 875 q 508 681 479 779 q 536 431 536 582 q 508 176 536 275 q 422 31 479 78 q 279 -15 364 -15 m 279 104 q 347 136 319 104 q 388 240 374 168 q 403 432 403 311 q 388 616 403 544 q 347 722 374 688 q 279 756 319 756 q 212 722 240 756 q 169 616 183 688 q 154 432 154 544 q 169 240 154 311 q 212 136 183 168 q 279 104 240 104 m 290 368 q 241 388 261 368 q 221 436 221 408 q 241 485 221 465 q 290 504 261 504 q 339 484 318 504 q 360 436 360 464 q 339 388 360 408 q 290 368 318 368 z "},"c":{"ha":556,"x_min":46,"x_max":518,"o":"m 315 -15 q 206 7 256 -15 q 121 72 157 29 q 65 178 85 115 q 46 319 46 240 q 66 465 46 401 q 123 572 86 528 q 208 638 160 615 q 311 661 256 661 q 435 632 383 661 q 518 551 488 603 l 453 457 l 446 446 l 436 453 q 433 476 435 464 q 417 504 431 488 q 372 532 396 524 q 318 540 349 540 q 267 528 292 540 q 223 489 243 515 q 192 421 203 463 q 181 321 181 379 q 192 224 181 265 q 222 156 203 182 q 266 116 240 129 q 321 103 292 103 q 367 110 344 103 q 409 132 389 117 q 447 172 429 147 l 511 74 q 421 6 472 28 q 315 -15 369 -15 l 315 -15 z "},"ć":{"ha":556,"x_min":46,"x_max":518,"o":"m 315 -15 q 206 7 256 -15 q 121 72 157 29 q 65 178 85 115 q 46 319 46 240 q 66 465 46 401 q 123 572 86 528 q 208 638 160 615 q 311 661 256 661 q 435 632 383 661 q 518 551 488 603 l 453 457 l 446 446 l 436 453 q 433 476 435 464 q 417 504 431 488 q 372 532 396 524 q 318 540 349 540 q 267 528 292 540 q 223 489 243 515 q 192 421 203 463 q 181 321 181 379 q 192 224 181 265 q 222 156 203 182 q 266 116 240 129 q 321 103 292 103 q 367 110 344 103 q 409 132 389 117 q 447 172 429 147 l 511 74 q 421 6 472 28 q 315 -15 369 -15 l 315 -15 z "},"č":{"ha":556,"x_min":46,"x_max":518,"o":"m 315 -15 q 206 7 256 -15 q 121 72 157 29 q 65 178 85 115 q 46 319 46 240 q 66 465 46 401 q 123 572 86 528 q 208 638 160 615 q 311 661 256 661 q 435 632 383 661 q 518 551 488 603 l 453 457 l 446 446 l 436 453 q 433 476 435 464 q 417 504 431 488 q 372 532 396 524 q 318 540 349 540 q 267 528 292 540 q 223 489 243 515 q 192 421 203 463 q 181 321 181 379 q 192 224 181 265 q 222 156 203 182 q 266 116 240 129 q 321 103 292 103 q 367 110 344 103 q 409 132 389 117 q 447 172 429 147 l 511 74 q 421 6 472 28 q 315 -15 369 -15 l 315 -15 m 193 971 l 306 844 l 419 971 l 485 911 l 325 718 l 288 718 l 128 911 l 193 971 z "},"ç":{"ha":556,"x_min":46,"x_max":518,"o":"m 315 -15 q 206 7 256 -15 q 121 72 157 29 q 65 178 85 115 q 46 319 46 240 q 66 465 46 401 q 123 572 86 528 q 208 638 160 615 q 311 661 256 661 q 435 632 383 661 q 518 551 488 603 l 453 457 l 446 446 l 436 453 q 433 476 435 464 q 417 504 431 488 q 372 532 396 524 q 318 540 349 540 q 267 528 292 540 q 223 489 243 515 q 192 421 203 463 q 181 321 181 379 q 192 224 181 265 q 222 156 203 182 q 266 116 240 129 q 321 103 292 103 q 367 110 344 103 q 409 132 389 117 q 447 172 429 147 l 511 74 q 421 6 472 28 q 315 -15 369 -15 l 315 -15 z "},"ḉ":{"ha":556,"x_min":46,"x_max":518,"o":"m 315 -15 q 206 7 256 -15 q 121 72 157 29 q 65 178 85 115 q 46 319 46 240 q 66 465 46 401 q 123 572 86 528 q 208 638 160 615 q 311 661 256 661 q 435 632 383 661 q 518 551 488 603 l 453 457 l 446 446 l 436 453 q 433 476 435 464 q 417 504 431 488 q 372 532 396 524 q 318 540 349 540 q 267 528 292 540 q 223 489 243 515 q 192 421 203 463 q 181 321 181 379 q 192 224 181 265 q 222 156 203 182 q 266 116 240 129 q 321 103 292 103 q 367 110 344 103 q 409 132 389 117 q 447 172 429 147 l 511 74 q 421 6 472 28 q 315 -15 369 -15 l 315 -15 z "},"ĉ":{"ha":556,"x_min":46,"x_max":518,"o":"m 315 -15 q 206 7 256 -15 q 121 72 157 29 q 65 178 85 115 q 46 319 46 240 q 66 465 46 401 q 123 572 86 528 q 208 638 160 615 q 311 661 256 661 q 435 632 383 661 q 518 551 488 603 l 453 457 l 446 446 l 436 453 q 433 476 435 464 q 417 504 431 488 q 372 532 396 524 q 318 540 349 540 q 267 528 292 540 q 223 489 243 515 q 192 421 203 463 q 181 321 181 379 q 192 224 181 265 q 222 156 203 182 q 266 116 240 129 q 321 103 292 103 q 367 110 344 103 q 409 132 389 117 q 447 172 429 147 l 511 74 q 421 6 472 28 q 315 -15 369 -15 l 315 -15 m 196 703 l 131 763 l 290 956 l 328 956 l 488 763 l 422 703 l 308 829 l 196 703 z "},"ċ":{"ha":556,"x_min":46,"x_max":518,"o":"m 315 -15 q 206 7 256 -15 q 121 72 157 29 q 65 178 85 115 q 46 319 46 240 q 66 465 46 401 q 123 572 86 528 q 208 638 160 615 q 311 661 256 661 q 435 632 383 661 q 518 551 488 603 l 453 457 l 446 446 l 436 453 q 433 476 435 464 q 417 504 431 488 q 372 532 396 524 q 318 540 349 540 q 267 528 292 540 q 223 489 243 515 q 192 421 203 463 q 181 321 181 379 q 192 224 181 265 q 222 156 203 182 q 266 116 240 129 q 321 103 292 103 q 367 110 344 103 q 409 132 389 117 q 447 172 429 147 l 511 74 q 421 6 472 28 q 315 -15 369 -15 l 315 -15 z "},"d":{"ha":556,"x_min":36,"x_max":515,"o":"m 244 -15 q 165 3 203 -15 q 99 61 128 21 q 53 167 69 101 q 36 325 36 232 q 52 481 36 417 q 96 585 68 544 q 163 644 124 625 q 246 663 201 663 q 299 653 275 663 q 342 626 324 644 q 372 579 361 608 l 372 929 l 503 929 l 515 929 l 515 917 q 506 899 508 908 q 504 865 503 889 l 503 92 q 505 46 503 68 q 514 0 507 24 l 385 0 q 376 24 379 14 q 373 46 374 35 q 372 72 372 57 q 338 25 358 44 q 294 -5 318 6 q 244 -15 271 -15 l 244 -15 m 269 104 q 313 117 294 104 q 345 158 332 131 q 365 227 358 186 q 371 324 371 268 q 360 450 371 400 q 326 524 349 500 q 269 547 304 547 q 226 535 246 547 q 193 496 206 522 q 174 429 181 469 q 167 333 167 389 q 181 202 167 253 q 218 128 194 151 q 269 104 242 104 l 269 104 z "},"ð":{"ha":556,"x_min":38,"x_max":521,"o":"m 283 -18 q 188 1 232 -18 q 109 61 143 21 q 56 163 75 101 q 38 307 38 224 q 55 454 38 390 q 102 562 72 518 q 171 628 132 606 q 254 651 210 651 q 298 647 278 651 q 335 631 318 642 q 365 604 353 621 q 333 678 351 642 q 290 742 314 714 l 174 703 l 138 794 l 226 825 q 196 855 211 840 q 164 883 181 869 q 125 907 147 897 l 257 940 q 301 906 281 922 q 343 864 321 889 l 461 904 l 496 811 l 411 781 q 458 695 438 740 q 493 597 479 650 q 514 482 507 543 q 521 350 521 421 q 506 186 521 256 q 460 72 490 117 q 385 4 429 26 q 283 -18 342 -18 m 286 100 q 326 112 307 100 q 360 150 346 124 q 382 218 374 176 q 390 319 390 260 q 384 398 390 364 q 368 458 378 432 q 344 500 358 483 q 315 525 331 517 q 283 533 299 533 q 241 521 261 533 q 206 482 221 508 q 181 415 190 456 q 172 319 172 375 q 181 225 172 267 q 206 156 190 183 q 241 114 221 128 q 286 100 261 100 z "},"ď":{"ha":556,"x_min":28,"x_max":546,"o":"m 189 -14 q 126 1 156 -14 q 75 54 97 17 q 40 158 53 92 q 28 324 28 224 q 40 488 28 422 q 72 591 51 553 q 123 646 93 629 q 189 663 153 663 q 254 642 229 663 q 290 575 279 622 l 290 926 l 406 926 l 419 926 l 419 915 q 409 897 411 907 q 407 864 407 888 l 407 94 q 408 48 407 71 q 415 0 408 25 l 301 0 q 294 23 297 13 q 290 45 292 33 q 289 72 289 57 q 263 26 279 46 q 227 -4 246 6 q 189 -14 208 -14 l 189 -14 m 214 101 q 256 126 239 101 q 281 200 272 151 q 289 322 289 249 q 281 453 289 403 q 256 527 272 503 q 217 551 240 551 q 186 540 200 551 q 163 504 172 529 q 148 438 153 479 q 143 336 143 397 q 149 225 143 271 q 164 152 154 179 q 186 113 174 125 q 214 101 199 101 l 214 101 m 485 928 q 529 906 513 928 q 546 847 546 885 q 538 781 546 815 q 515 710 531 747 q 476 631 499 672 l 415 668 q 438 708 428 689 q 453 744 449 726 q 458 778 458 763 q 451 803 458 793 q 435 827 443 813 q 426 867 426 842 q 444 910 428 893 q 485 928 460 928 z "},"đ":{"ha":556,"x_min":36,"x_max":554,"o":"m 244 -15 q 165 3 203 -15 q 99 61 128 21 q 53 167 69 101 q 36 325 36 232 q 52 481 36 417 q 96 585 68 544 q 163 644 124 625 q 246 663 201 663 q 299 653 275 663 q 342 626 324 644 q 372 579 361 608 l 372 929 l 503 929 l 515 929 l 515 917 q 506 899 508 908 q 504 865 503 889 l 503 92 q 505 46 503 68 q 514 0 507 24 l 385 0 q 376 24 379 14 q 373 46 374 35 q 372 72 372 57 q 338 25 358 44 q 294 -5 318 6 q 244 -15 271 -15 l 244 -15 m 269 104 q 313 117 294 104 q 345 158 332 131 q 365 227 358 186 q 371 324 371 268 q 360 450 371 400 q 326 524 349 500 q 269 547 304 547 q 226 535 246 547 q 193 496 206 522 q 174 429 181 469 q 167 333 167 389 q 181 202 167 253 q 218 128 194 151 q 269 104 242 104 l 269 104 m 249 722 l 249 826 l 554 826 l 554 722 l 249 722 z "},"ḍ":{"ha":556,"x_min":36,"x_max":515,"o":"m 244 -15 q 165 3 203 -15 q 99 61 128 21 q 53 167 69 101 q 36 325 36 232 q 52 481 36 417 q 96 585 68 544 q 163 644 124 625 q 246 663 201 663 q 299 653 275 663 q 342 626 324 644 q 372 579 361 608 l 372 929 l 503 929 l 515 929 l 515 917 q 506 899 508 908 q 504 865 503 889 l 503 92 q 505 46 503 68 q 514 0 507 24 l 385 0 q 376 24 379 14 q 373 46 374 35 q 372 72 372 57 q 338 25 358 44 q 294 -5 318 6 q 244 -15 271 -15 l 244 -15 m 269 104 q 313 117 294 104 q 345 158 332 131 q 365 227 358 186 q 371 324 371 268 q 360 450 371 400 q 326 524 349 500 q 269 547 304 547 q 226 535 246 547 q 193 496 206 522 q 174 429 181 469 q 167 333 167 389 q 181 202 167 253 q 218 128 194 151 q 269 104 242 104 l 269 104 z "},"ḏ":{"ha":556,"x_min":36,"x_max":515,"o":"m 244 -15 q 165 3 203 -15 q 99 61 128 21 q 53 167 69 101 q 36 325 36 232 q 52 481 36 417 q 96 585 68 544 q 163 644 124 625 q 246 663 201 663 q 299 653 275 663 q 342 626 324 644 q 372 579 361 608 l 372 929 l 503 929 l 515 929 l 515 917 q 506 899 508 908 q 504 865 503 889 l 503 92 q 505 46 503 68 q 514 0 507 24 l 385 0 q 376 24 379 14 q 373 46 374 35 q 372 72 372 57 q 338 25 358 44 q 294 -5 318 6 q 244 -15 271 -15 l 244 -15 m 269 104 q 313 117 294 104 q 345 158 332 131 q 365 227 358 186 q 371 324 371 268 q 360 450 371 400 q 326 524 349 500 q 269 547 304 547 q 226 535 246 547 q 193 496 206 522 q 174 429 181 469 q 167 333 167 389 q 181 202 167 253 q 218 128 194 151 q 269 104 242 104 l 269 104 z "},"e":{"ha":556,"x_min":42,"x_max":507,"o":"m 300 -15 q 195 6 243 -15 q 113 67 147 26 q 60 171 79 108 q 42 317 42 233 q 60 469 42 404 q 110 577 78 535 q 188 640 143 619 q 286 661 233 661 q 375 642 335 661 q 445 585 415 624 q 491 485 475 546 q 507 340 507 424 q 507 310 507 325 q 506 282 507 294 l 172 282 q 185 198 174 232 q 214 143 196 164 q 256 112 232 122 q 307 101 279 101 q 352 108 331 101 q 392 127 374 114 q 425 161 410 140 l 493 83 q 440 29 471 51 q 375 -4 410 7 q 300 -15 340 -15 m 174 394 l 378 394 q 372 462 378 433 q 353 509 365 490 q 324 537 342 528 q 281 546 306 546 q 242 538 260 546 q 210 510 224 529 q 187 463 196 492 q 174 394 178 435 z "},"é":{"ha":556,"x_min":42,"x_max":507,"o":"m 300 -15 q 195 6 243 -15 q 113 67 147 26 q 60 171 79 108 q 42 317 42 233 q 60 469 42 404 q 110 577 78 535 q 188 640 143 619 q 286 661 233 661 q 375 642 335 661 q 445 585 415 624 q 491 485 475 546 q 507 340 507 424 q 507 310 507 325 q 506 282 507 294 l 172 282 q 185 198 174 232 q 214 143 196 164 q 256 112 232 122 q 307 101 279 101 q 352 108 331 101 q 392 127 374 114 q 425 161 410 140 l 493 83 q 440 29 471 51 q 375 -4 410 7 q 300 -15 340 -15 m 174 394 l 378 394 q 372 462 378 433 q 353 509 365 490 q 324 537 342 528 q 281 546 306 546 q 242 538 260 546 q 210 510 224 529 q 187 463 196 492 q 174 394 178 435 z "},"ĕ":{"ha":556,"x_min":42,"x_max":507,"o":"m 300 -15 q 195 6 243 -15 q 113 67 147 26 q 60 171 79 108 q 42 317 42 233 q 60 469 42 404 q 110 577 78 535 q 188 640 143 619 q 286 661 233 661 q 375 642 335 661 q 445 585 415 624 q 491 485 475 546 q 507 340 507 424 q 507 310 507 325 q 506 282 507 294 l 172 282 q 185 198 174 232 q 214 143 196 164 q 256 112 232 122 q 307 101 279 101 q 352 108 331 101 q 392 127 374 114 q 425 161 410 140 l 493 83 q 440 29 471 51 q 375 -4 410 7 q 300 -15 340 -15 m 174 394 l 378 394 q 372 462 378 433 q 353 509 365 490 q 324 537 342 528 q 281 546 306 546 q 242 538 260 546 q 210 510 224 529 q 187 463 196 492 q 174 394 178 435 m 369 914 l 456 875 q 385 774 429 808 q 286 740 342 740 q 187 774 232 740 q 117 875 142 808 l 201 913 q 238 847 218 869 q 286 825 258 825 q 321 835 306 825 q 349 866 336 846 q 369 914 361 886 z "},"ě":{"ha":556,"x_min":42,"x_max":507,"o":"m 300 -15 q 195 6 243 -15 q 113 67 147 26 q 60 171 79 108 q 42 317 42 233 q 60 469 42 404 q 110 577 78 535 q 188 640 143 619 q 286 661 233 661 q 375 642 335 661 q 445 585 415 624 q 491 485 475 546 q 507 340 507 424 q 507 310 507 325 q 506 282 507 294 l 172 282 q 185 198 174 232 q 214 143 196 164 q 256 112 232 122 q 307 101 279 101 q 352 108 331 101 q 392 127 374 114 q 425 161 410 140 l 493 83 q 440 29 471 51 q 375 -4 410 7 q 300 -15 340 -15 m 174 394 l 378 394 q 372 462 378 433 q 353 509 365 490 q 324 537 342 528 q 281 546 306 546 q 242 538 260 546 q 210 510 224 529 q 187 463 196 492 q 174 394 178 435 m 171 965 l 283 839 l 397 965 l 463 906 l 303 713 l 265 713 l 106 906 l 171 965 z "},"ḝ":{"ha":556,"x_min":42,"x_max":507,"o":"m 300 -15 q 195 6 243 -15 q 113 67 147 26 q 60 171 79 108 q 42 317 42 233 q 60 469 42 404 q 110 577 78 535 q 188 640 143 619 q 286 661 233 661 q 375 642 335 661 q 445 585 415 624 q 491 485 475 546 q 507 340 507 424 q 507 310 507 325 q 506 282 507 294 l 172 282 q 185 198 174 232 q 214 143 196 164 q 256 112 232 122 q 307 101 279 101 q 352 108 331 101 q 392 127 374 114 q 425 161 410 140 l 493 83 q 440 29 471 51 q 375 -4 410 7 q 300 -15 340 -15 m 174 394 l 378 394 q 372 462 378 433 q 353 509 365 490 q 324 537 342 528 q 281 546 306 546 q 242 538 260 546 q 210 510 224 529 q 187 463 196 492 q 174 394 178 435 m 369 914 l 456 875 q 385 774 429 808 q 286 740 342 740 q 187 774 232 740 q 117 875 142 808 l 201 913 q 238 847 218 869 q 286 825 258 825 q 321 835 306 825 q 349 866 336 846 q 369 914 361 886 z "},"ê":{"ha":556,"x_min":42,"x_max":507,"o":"m 300 -15 q 195 6 243 -15 q 113 67 147 26 q 60 171 79 108 q 42 317 42 233 q 60 469 42 404 q 110 577 78 535 q 188 640 143 619 q 286 661 233 661 q 375 642 335 661 q 445 585 415 624 q 491 485 475 546 q 507 340 507 424 q 507 310 507 325 q 506 282 507 294 l 172 282 q 185 198 174 232 q 214 143 196 164 q 256 112 232 122 q 307 101 279 101 q 352 108 331 101 q 392 127 374 114 q 425 161 410 140 l 493 83 q 440 29 471 51 q 375 -4 410 7 q 300 -15 340 -15 m 174 394 l 378 394 q 372 462 378 433 q 353 509 365 490 q 324 537 342 528 q 281 546 306 546 q 242 538 260 546 q 210 510 224 529 q 187 463 196 492 q 174 394 178 435 m 172 697 l 107 757 l 267 950 l 304 950 l 464 757 l 399 697 l 285 824 l 172 697 z "},"ế":{"ha":556,"x_min":42,"x_max":572,"o":"m 300 -15 q 195 6 243 -15 q 113 67 147 26 q 60 171 79 108 q 42 317 42 233 q 60 469 42 404 q 110 577 78 535 q 188 640 143 619 q 286 661 233 661 q 375 642 335 661 q 445 585 415 624 q 491 485 475 546 q 507 340 507 424 q 507 310 507 325 q 506 282 507 294 l 172 282 q 185 198 174 232 q 214 143 196 164 q 256 112 232 122 q 307 101 279 101 q 352 108 331 101 q 392 127 374 114 q 425 161 410 140 l 493 83 q 440 29 471 51 q 375 -4 410 7 q 300 -15 340 -15 m 174 394 l 378 394 q 372 462 378 433 q 353 509 365 490 q 324 537 342 528 q 281 546 306 546 q 242 538 260 546 q 210 510 224 529 q 187 463 196 492 q 174 394 178 435 z "},"ệ":{"ha":556,"x_min":42,"x_max":507,"o":"m 300 -15 q 195 6 243 -15 q 113 67 147 26 q 60 171 79 108 q 42 317 42 233 q 60 469 42 404 q 110 577 78 535 q 188 640 143 619 q 286 661 233 661 q 375 642 335 661 q 445 585 415 624 q 491 485 475 546 q 507 340 507 424 q 507 310 507 325 q 506 282 507 294 l 172 282 q 185 198 174 232 q 214 143 196 164 q 256 112 232 122 q 307 101 279 101 q 352 108 331 101 q 392 127 374 114 q 425 161 410 140 l 493 83 q 440 29 471 51 q 375 -4 410 7 q 300 -15 340 -15 m 174 394 l 378 394 q 372 462 378 433 q 353 509 365 490 q 324 537 342 528 q 281 546 306 546 q 242 538 260 546 q 210 510 224 529 q 187 463 196 492 q 174 394 178 435 m 172 697 l 107 757 l 267 950 l 304 950 l 464 757 l 399 697 l 285 824 l 172 697 z "},"ề":{"ha":556,"x_min":42,"x_max":507,"o":"m 300 -15 q 195 6 243 -15 q 113 67 147 26 q 60 171 79 108 q 42 317 42 233 q 60 469 42 404 q 110 577 78 535 q 188 640 143 619 q 286 661 233 661 q 375 642 335 661 q 445 585 415 624 q 491 485 475 546 q 507 340 507 424 q 507 310 507 325 q 506 282 507 294 l 172 282 q 185 198 174 232 q 214 143 196 164 q 256 112 232 122 q 307 101 279 101 q 352 108 331 101 q 392 127 374 114 q 425 161 410 140 l 493 83 q 440 29 471 51 q 375 -4 410 7 q 300 -15 340 -15 m 174 394 l 378 394 q 372 462 378 433 q 353 509 365 490 q 324 537 342 528 q 281 546 306 546 q 242 538 260 546 q 210 510 224 529 q 187 463 196 492 q 174 394 178 435 z "},"ể":{"ha":556,"x_min":42,"x_max":553,"o":"m 300 -15 q 195 6 243 -15 q 113 67 147 26 q 60 171 79 108 q 42 317 42 233 q 60 469 42 404 q 110 577 78 535 q 188 640 143 619 q 286 661 233 661 q 375 642 335 661 q 445 585 415 624 q 491 485 475 546 q 507 340 507 424 q 507 310 507 325 q 506 282 507 294 l 172 282 q 185 198 174 232 q 214 143 196 164 q 256 112 232 122 q 307 101 279 101 q 352 108 331 101 q 392 127 374 114 q 425 161 410 140 l 493 83 q 440 29 471 51 q 375 -4 410 7 q 300 -15 340 -15 m 174 394 l 378 394 q 372 462 378 433 q 353 509 365 490 q 324 537 342 528 q 281 546 306 546 q 242 538 260 546 q 210 510 224 529 q 187 463 196 492 q 174 394 178 435 z "},"ễ":{"ha":556,"x_min":42,"x_max":507,"o":"m 300 -15 q 195 6 243 -15 q 113 67 147 26 q 60 171 79 108 q 42 317 42 233 q 60 469 42 404 q 110 577 78 535 q 188 640 143 619 q 286 661 233 661 q 375 642 335 661 q 445 585 415 624 q 491 485 475 546 q 507 340 507 424 q 507 310 507 325 q 506 282 507 294 l 172 282 q 185 198 174 232 q 214 143 196 164 q 256 112 232 122 q 307 101 279 101 q 352 108 331 101 q 392 127 374 114 q 425 161 410 140 l 493 83 q 440 29 471 51 q 375 -4 410 7 q 300 -15 340 -15 m 174 394 l 378 394 q 372 462 378 433 q 353 509 365 490 q 324 537 342 528 q 281 546 306 546 q 242 538 260 546 q 210 510 224 529 q 187 463 196 492 q 174 394 178 435 z "},"ȅ":{"ha":556,"x_min":42,"x_max":507,"o":"m 300 -15 q 195 6 243 -15 q 113 67 147 26 q 60 171 79 108 q 42 317 42 233 q 60 469 42 404 q 110 577 78 535 q 188 640 143 619 q 286 661 233 661 q 375 642 335 661 q 445 585 415 624 q 491 485 475 546 q 507 340 507 424 q 507 310 507 325 q 506 282 507 294 l 172 282 q 185 198 174 232 q 214 143 196 164 q 256 112 232 122 q 307 101 279 101 q 352 108 331 101 q 392 127 374 114 q 425 161 410 140 l 493 83 q 440 29 471 51 q 375 -4 410 7 q 300 -15 340 -15 m 174 394 l 378 394 q 372 462 378 433 q 353 509 365 490 q 324 537 342 528 q 281 546 306 546 q 242 538 260 546 q 210 510 224 529 q 187 463 196 492 q 174 394 178 435 z "},"ë":{"ha":556,"x_min":42,"x_max":507,"o":"m 300 -15 q 195 6 243 -15 q 113 67 147 26 q 60 171 79 108 q 42 317 42 233 q 60 469 42 404 q 110 577 78 535 q 188 640 143 619 q 286 661 233 661 q 375 642 335 661 q 445 585 415 624 q 491 485 475 546 q 507 340 507 424 q 507 310 507 325 q 506 282 507 294 l 172 282 q 185 198 174 232 q 214 143 196 164 q 256 112 232 122 q 307 101 279 101 q 352 108 331 101 q 392 127 374 114 q 425 161 410 140 l 493 83 q 440 29 471 51 q 375 -4 410 7 q 300 -15 340 -15 m 174 394 l 378 394 q 372 462 378 433 q 353 509 365 490 q 324 537 342 528 q 281 546 306 546 q 242 538 260 546 q 210 510 224 529 q 187 463 196 492 q 174 394 178 435 z "},"ė":{"ha":556,"x_min":42,"x_max":507,"o":"m 300 -15 q 195 6 243 -15 q 113 67 147 26 q 60 171 79 108 q 42 317 42 233 q 60 469 42 404 q 110 577 78 535 q 188 640 143 619 q 286 661 233 661 q 375 642 335 661 q 445 585 415 624 q 491 485 475 546 q 507 340 507 424 q 507 310 507 325 q 506 282 507 294 l 172 282 q 185 198 174 232 q 214 143 196 164 q 256 112 232 122 q 307 101 279 101 q 352 108 331 101 q 392 127 374 114 q 425 161 410 140 l 493 83 q 440 29 471 51 q 375 -4 410 7 q 300 -15 340 -15 m 174 394 l 378 394 q 372 462 378 433 q 353 509 365 490 q 324 537 342 528 q 281 546 306 546 q 242 538 260 546 q 210 510 224 529 q 187 463 196 492 q 174 394 178 435 z "},"ẹ":{"ha":556,"x_min":42,"x_max":507,"o":"m 300 -15 q 195 6 243 -15 q 113 67 147 26 q 60 171 79 108 q 42 317 42 233 q 60 469 42 404 q 110 577 78 535 q 188 640 143 619 q 286 661 233 661 q 375 642 335 661 q 445 585 415 624 q 491 485 475 546 q 507 340 507 424 q 507 310 507 325 q 506 282 507 294 l 172 282 q 185 198 174 232 q 214 143 196 164 q 256 112 232 122 q 307 101 279 101 q 352 108 331 101 q 392 127 374 114 q 425 161 410 140 l 493 83 q 440 29 471 51 q 375 -4 410 7 q 300 -15 340 -15 m 174 394 l 378 394 q 372 462 378 433 q 353 509 365 490 q 324 537 342 528 q 281 546 306 546 q 242 538 260 546 q 210 510 224 529 q 187 463 196 492 q 174 394 178 435 z "},"è":{"ha":556,"x_min":42,"x_max":507,"o":"m 300 -15 q 195 6 243 -15 q 113 67 147 26 q 60 171 79 108 q 42 317 42 233 q 60 469 42 404 q 110 577 78 535 q 188 640 143 619 q 286 661 233 661 q 375 642 335 661 q 445 585 415 624 q 491 485 475 546 q 507 340 507 424 q 507 310 507 325 q 506 282 507 294 l 172 282 q 185 198 174 232 q 214 143 196 164 q 256 112 232 122 q 307 101 279 101 q 352 108 331 101 q 392 127 374 114 q 425 161 410 140 l 493 83 q 440 29 471 51 q 375 -4 410 7 q 300 -15 340 -15 m 174 394 l 378 394 q 372 462 378 433 q 353 509 365 490 q 324 537 342 528 q 281 546 306 546 q 242 538 260 546 q 210 510 224 529 q 187 463 196 492 q 174 394 178 435 z "},"ẻ":{"ha":556,"x_min":42,"x_max":507,"o":"m 300 -15 q 195 6 243 -15 q 113 67 147 26 q 60 171 79 108 q 42 317 42 233 q 60 469 42 404 q 110 577 78 535 q 188 640 143 619 q 286 661 233 661 q 375 642 335 661 q 445 585 415 624 q 491 485 475 546 q 507 340 507 424 q 507 310 507 325 q 506 282 507 294 l 172 282 q 185 198 174 232 q 214 143 196 164 q 256 112 232 122 q 307 101 279 101 q 352 108 331 101 q 392 127 374 114 q 425 161 410 140 l 493 83 q 440 29 471 51 q 375 -4 410 7 q 300 -15 340 -15 m 174 394 l 378 394 q 372 462 378 433 q 353 509 365 490 q 324 537 342 528 q 281 546 306 546 q 242 538 260 546 q 210 510 224 529 q 187 463 196 492 q 174 394 178 435 m 410 890 q 399 845 410 864 q 375 810 389 826 q 350 777 361 794 q 339 738 339 760 l 339 724 l 251 724 l 251 761 q 261 797 251 781 q 285 826 271 813 q 309 853 299 840 q 319 879 319 867 q 310 905 319 896 q 286 914 300 914 q 252 904 267 914 q 228 871 238 894 l 183 949 q 235 989 206 976 q 296 1001 265 1001 q 356 988 331 1001 q 396 949 382 974 q 410 890 410 925 z "},"ȇ":{"ha":556,"x_min":42,"x_max":507,"o":"m 300 -15 q 195 6 243 -15 q 113 67 147 26 q 60 171 79 108 q 42 317 42 233 q 60 469 42 404 q 110 577 78 535 q 188 640 143 619 q 286 661 233 661 q 375 642 335 661 q 445 585 415 624 q 491 485 475 546 q 507 340 507 424 q 507 310 507 325 q 506 282 507 294 l 172 282 q 185 198 174 232 q 214 143 196 164 q 256 112 232 122 q 307 101 279 101 q 352 108 331 101 q 392 127 374 114 q 425 161 410 140 l 493 83 q 440 29 471 51 q 375 -4 410 7 q 300 -15 340 -15 m 174 394 l 378 394 q 372 462 378 433 q 353 509 365 490 q 324 537 342 528 q 281 546 306 546 q 242 538 260 546 q 210 510 224 529 q 187 463 196 492 q 174 394 178 435 m 204 733 l 118 772 q 188 872 144 839 q 286 906 232 906 q 386 872 342 906 q 457 772 431 839 l 371 733 q 335 800 356 778 q 286 822 315 822 q 253 812 268 822 q 226 782 238 801 q 204 733 214 763 z "},"ē":{"ha":556,"x_min":42,"x_max":507,"o":"m 300 -15 q 195 6 243 -15 q 113 67 147 26 q 60 171 79 108 q 42 317 42 233 q 60 469 42 404 q 110 577 78 535 q 188 640 143 619 q 286 661 233 661 q 375 642 335 661 q 445 585 415 624 q 491 485 475 546 q 507 340 507 424 q 507 310 507 325 q 506 282 507 294 l 172 282 q 185 198 174 232 q 214 143 196 164 q 256 112 232 122 q 307 101 279 101 q 352 108 331 101 q 392 127 374 114 q 425 161 410 140 l 493 83 q 440 29 471 51 q 375 -4 410 7 q 300 -15 340 -15 m 174 394 l 378 394 q 372 462 378 433 q 353 509 365 490 q 324 537 342 528 q 281 546 306 546 q 242 538 260 546 q 210 510 224 529 q 187 463 196 492 q 174 394 178 435 z "},"ḗ":{"ha":556,"x_min":42,"x_max":507,"o":"m 300 -15 q 195 6 243 -15 q 113 67 147 26 q 60 171 79 108 q 42 317 42 233 q 60 469 42 404 q 110 577 78 535 q 188 640 143 619 q 286 661 233 661 q 375 642 335 661 q 445 585 415 624 q 491 485 475 546 q 507 340 507 424 q 507 310 507 325 q 506 282 507 294 l 172 282 q 185 198 174 232 q 214 143 196 164 q 256 112 232 122 q 307 101 279 101 q 352 108 331 101 q 392 127 374 114 q 425 161 410 140 l 493 83 q 440 29 471 51 q 375 -4 410 7 q 300 -15 340 -15 m 174 394 l 378 394 q 372 462 378 433 q 353 509 365 490 q 324 537 342 528 q 281 546 306 546 q 242 538 260 546 q 210 510 224 529 q 187 463 196 492 q 174 394 178 435 z "},"ḕ":{"ha":556,"x_min":42,"x_max":507,"o":"m 300 -15 q 195 6 243 -15 q 113 67 147 26 q 60 171 79 108 q 42 317 42 233 q 60 469 42 404 q 110 577 78 535 q 188 640 143 619 q 286 661 233 661 q 375 642 335 661 q 445 585 415 624 q 491 485 475 546 q 507 340 507 424 q 507 310 507 325 q 506 282 507 294 l 172 282 q 185 198 174 232 q 214 143 196 164 q 256 112 232 122 q 307 101 279 101 q 352 108 331 101 q 392 127 374 114 q 425 161 410 140 l 493 83 q 440 29 471 51 q 375 -4 410 7 q 300 -15 340 -15 m 174 394 l 378 394 q 372 462 378 433 q 353 509 365 490 q 324 537 342 528 q 281 546 306 546 q 242 538 260 546 q 210 510 224 529 q 187 463 196 492 q 174 394 178 435 z "},"ę":{"ha":556,"x_min":42,"x_max":507,"o":"m 300 -15 q 195 6 243 -15 q 113 67 147 26 q 60 171 79 108 q 42 317 42 233 q 60 469 42 404 q 110 577 78 535 q 188 640 143 619 q 286 661 233 661 q 375 642 335 661 q 445 585 415 624 q 491 485 475 546 q 507 340 507 424 q 507 310 507 325 q 506 282 507 294 l 172 282 q 185 198 174 232 q 214 143 196 164 q 256 112 232 122 q 307 101 279 101 q 352 108 331 101 q 392 127 374 114 q 425 161 410 140 l 493 83 q 440 29 471 51 q 375 -4 410 7 q 300 -15 340 -15 m 174 394 l 378 394 q 372 462 378 433 q 353 509 365 490 q 324 537 342 528 q 281 546 306 546 q 242 538 260 546 q 210 510 224 529 q 187 463 196 492 q 174 394 178 435 m 414 -196 l 364 -318 q 281 -278 314 -301 q 233 -224 249 -254 q 217 -162 217 -194 q 234 -91 217 -128 q 286 -18 251 -54 q 369 50 321 18 l 417 13 q 374 -36 392 -12 q 348 -81 357 -60 q 339 -121 339 -103 q 358 -166 339 -147 q 414 -196 376 -185 z "},"ʚ":{"ha":556,"x_min":35,"x_max":519,"o":"m 257 -18 q 135 7 185 -18 q 60 78 85 32 q 35 188 35 125 q 47 258 35 226 q 80 311 58 289 q 131 346 101 333 q 76 407 94 371 q 58 486 58 443 q 83 575 58 536 q 154 636 108 614 q 260 658 200 658 q 402 619 344 658 q 490 506 460 581 q 519 322 519 431 q 489 134 519 210 q 400 20 458 58 q 257 -18 342 -18 m 261 100 q 334 122 306 100 q 376 193 363 144 q 390 322 390 242 q 378 447 390 397 q 340 520 367 496 q 271 544 314 544 q 224 533 242 544 q 197 503 206 521 q 189 464 189 485 q 196 426 189 443 q 219 400 203 410 q 263 390 236 390 q 282 390 274 390 q 303 393 290 390 l 303 278 q 284 280 290 279 q 272 281 278 281 q 254 281 265 281 q 215 274 232 281 q 185 257 197 268 q 169 230 174 246 q 164 194 164 214 q 175 147 164 169 q 208 113 186 125 q 261 100 229 100 z "},"ẽ":{"ha":556,"x_min":42,"x_max":507,"o":"m 300 -15 q 195 6 243 -15 q 113 67 147 26 q 60 171 79 108 q 42 317 42 233 q 60 469 42 404 q 110 577 78 535 q 188 640 143 619 q 286 661 233 661 q 375 642 335 661 q 445 585 415 624 q 491 485 475 546 q 507 340 507 424 q 507 310 507 325 q 506 282 507 294 l 172 282 q 185 198 174 232 q 214 143 196 164 q 256 112 232 122 q 307 101 279 101 q 352 108 331 101 q 392 127 374 114 q 425 161 410 140 l 493 83 q 440 29 471 51 q 375 -4 410 7 q 300 -15 340 -15 m 174 394 l 378 394 q 372 462 378 433 q 353 509 365 490 q 324 537 342 528 q 281 546 306 546 q 242 538 260 546 q 210 510 224 529 q 187 463 196 492 q 174 394 178 435 m 406 932 l 476 892 q 428 812 456 840 q 365 783 401 783 q 313 794 333 783 q 278 821 293 806 q 251 847 263 836 q 224 858 239 858 q 193 843 206 858 q 168 800 181 828 l 92 835 q 141 921 110 890 q 217 951 172 951 q 265 940 244 951 q 299 915 285 929 q 328 889 314 900 q 357 878 342 878 q 385 892 375 878 q 406 932 394 907 z "},"ə":{"ha":556,"x_min":49,"x_max":514,"o":"m 256 661 q 360 640 313 661 q 442 578 408 619 q 495 475 476 538 q 514 329 514 413 q 496 177 514 242 q 445 70 478 113 q 368 6 413 28 q 269 -15 324 -15 q 181 3 221 -15 q 110 61 140 22 q 65 161 81 100 q 49 307 49 222 q 49 336 49 321 q 50 364 49 351 l 383 364 q 371 449 382 414 q 342 504 360 483 q 300 535 324 525 q 249 544 276 544 q 203 538 225 544 q 164 519 182 532 q 131 486 146 506 l 63 564 q 116 617 86 596 q 181 650 146 639 q 256 661 215 661 m 382 251 l 178 251 q 184 185 178 213 q 202 138 190 157 q 232 110 214 119 q 275 101 250 101 q 314 110 296 101 q 346 136 332 118 q 369 183 360 154 q 382 251 378 211 z "},"ƹ":{"ha":556,"x_min":65,"x_max":507,"o":"m 307 -247 q 179 -213 233 -247 q 95 -120 125 -179 q 65 15 65 -61 q 85 138 65 83 q 142 230 106 192 q 228 289 178 268 q 338 310 278 310 l 383 310 l 383 193 q 293 185 329 194 q 235 153 257 175 q 204 98 214 131 q 194 22 194 65 q 211 -60 194 -28 q 256 -108 228 -93 q 317 -122 283 -122 q 380 -113 354 -122 q 426 -83 406 -104 q 442 -57 439 -67 q 443 -37 444 -47 l 450 -28 l 460 -36 l 507 -151 q 419 -224 468 -201 q 307 -247 369 -247 l 307 -247 m 88 529 l 88 640 l 467 640 l 467 515 l 240 515 l 383 310 l 275 274 l 88 529 z "},"f":{"ha":556,"x_min":39,"x_max":539,"o":"m 149 532 l 39 532 l 39 646 l 149 646 l 149 686 q 179 828 149 772 q 259 911 210 885 q 364 938 308 938 q 463 917 415 938 q 539 854 510 896 l 493 754 l 488 742 l 476 747 q 469 769 474 757 q 449 797 465 782 q 415 815 432 810 q 375 821 397 821 q 326 806 347 821 q 292 763 304 792 q 281 686 281 733 l 281 646 l 433 646 l 433 532 l 281 532 l 281 0 l 149 0 l 149 532 z "},"g":{"ha":556,"x_min":31,"x_max":538,"o":"m 268 -244 q 167 -233 211 -244 q 93 -201 124 -222 q 47 -148 63 -179 q 31 -75 31 -117 q 44 -10 31 -39 q 81 41 58 19 q 131 75 103 63 l 196 43 q 167 15 181 29 q 147 -17 154 0 q 140 -56 140 -33 q 150 -90 140 -76 q 178 -114 160 -104 q 221 -128 196 -124 q 275 -132 246 -132 q 343 -122 315 -132 q 385 -93 371 -111 q 399 -51 399 -75 q 390 -12 399 -26 q 358 9 381 3 q 299 15 336 15 q 228 19 263 15 q 163 31 193 22 q 110 56 132 40 q 75 94 88 71 q 63 150 63 117 q 86 226 63 192 q 143 288 110 260 l 207 249 q 188 225 196 235 q 174 206 179 215 q 168 183 168 197 q 184 157 168 168 q 236 140 200 146 q 333 135 272 135 q 417 123 383 135 q 472 88 451 111 q 502 33 493 65 q 511 -37 511 1 q 497 -115 511 -78 q 453 -182 483 -153 q 377 -228 424 -211 q 268 -244 331 -244 m 258 217 q 155 244 199 217 q 87 321 111 271 q 63 439 63 371 q 88 558 63 507 q 156 637 113 608 q 257 665 200 665 q 359 637 315 665 q 428 558 403 608 q 453 439 453 507 q 427 319 453 369 q 358 243 401 269 q 258 217 314 217 m 257 324 q 299 337 282 324 q 326 376 317 350 q 335 439 335 403 q 326 501 335 476 q 299 540 317 526 q 257 553 282 553 q 217 540 235 553 q 190 501 200 526 q 179 439 179 475 q 189 378 179 404 q 216 338 199 351 q 257 324 233 324 m 418 521 l 371 592 q 442 646 403 626 q 528 661 481 665 l 538 557 q 474 554 504 563 q 418 521 443 546 z "},"ğ":{"ha":556,"x_min":31,"x_max":538,"o":"m 268 -244 q 167 -233 211 -244 q 93 -201 124 -222 q 47 -148 63 -179 q 31 -75 31 -117 q 44 -10 31 -39 q 81 41 58 19 q 131 75 103 63 l 196 43 q 167 15 181 29 q 147 -17 154 0 q 140 -56 140 -33 q 150 -90 140 -76 q 178 -114 160 -104 q 221 -128 196 -124 q 275 -132 246 -132 q 343 -122 315 -132 q 385 -93 371 -111 q 399 -51 399 -75 q 390 -12 399 -26 q 358 9 381 3 q 299 15 336 15 q 228 19 263 15 q 163 31 193 22 q 110 56 132 40 q 75 94 88 71 q 63 150 63 117 q 86 226 63 192 q 143 288 110 260 l 207 249 q 188 225 196 235 q 174 206 179 215 q 168 183 168 197 q 184 157 168 168 q 236 140 200 146 q 333 135 272 135 q 417 123 383 135 q 472 88 451 111 q 502 33 493 65 q 511 -37 511 1 q 497 -115 511 -78 q 453 -182 483 -153 q 377 -228 424 -211 q 268 -244 331 -244 m 258 217 q 155 244 199 217 q 87 321 111 271 q 63 439 63 371 q 88 558 63 507 q 156 637 113 608 q 257 665 200 665 q 359 637 315 665 q 428 558 403 608 q 453 439 453 507 q 427 319 453 369 q 358 243 401 269 q 258 217 314 217 m 257 324 q 299 337 282 324 q 326 376 317 350 q 335 439 335 403 q 326 501 335 476 q 299 540 317 526 q 257 553 282 553 q 217 540 235 553 q 190 501 200 526 q 179 439 179 475 q 189 378 179 404 q 216 338 199 351 q 257 324 233 324 m 418 521 l 371 592 q 442 646 403 626 q 528 661 481 665 l 538 557 q 474 554 504 563 q 418 521 443 546 m 288 719 q 198 747 244 719 q 104 835 151 774 l 172 938 q 228 863 196 886 q 290 839 260 839 q 352 860 321 839 q 414 938 383 882 l 467 838 q 412 774 442 800 q 350 733 382 747 q 288 719 318 719 z "},"ǧ":{"ha":556,"x_min":31,"x_max":538,"o":"m 268 -244 q 167 -233 211 -244 q 93 -201 124 -222 q 47 -148 63 -179 q 31 -75 31 -117 q 44 -10 31 -39 q 81 41 58 19 q 131 75 103 63 l 196 43 q 167 15 181 29 q 147 -17 154 0 q 140 -56 140 -33 q 150 -90 140 -76 q 178 -114 160 -104 q 221 -128 196 -124 q 275 -132 246 -132 q 343 -122 315 -132 q 385 -93 371 -111 q 399 -51 399 -75 q 390 -12 399 -26 q 358 9 381 3 q 299 15 336 15 q 228 19 263 15 q 163 31 193 22 q 110 56 132 40 q 75 94 88 71 q 63 150 63 117 q 86 226 63 192 q 143 288 110 260 l 207 249 q 188 225 196 235 q 174 206 179 215 q 168 183 168 197 q 184 157 168 168 q 236 140 200 146 q 333 135 272 135 q 417 123 383 135 q 472 88 451 111 q 502 33 493 65 q 511 -37 511 1 q 497 -115 511 -78 q 453 -182 483 -153 q 377 -228 424 -211 q 268 -244 331 -244 m 258 217 q 155 244 199 217 q 87 321 111 271 q 63 439 63 371 q 88 558 63 507 q 156 637 113 608 q 257 665 200 665 q 359 637 315 665 q 428 558 403 608 q 453 439 453 507 q 427 319 453 369 q 358 243 401 269 q 258 217 314 217 m 257 324 q 299 337 282 324 q 326 376 317 350 q 335 439 335 403 q 326 501 335 476 q 299 540 317 526 q 257 553 282 553 q 217 540 235 553 q 190 501 200 526 q 179 439 179 475 q 189 378 179 404 q 216 338 199 351 q 257 324 233 324 m 418 521 l 371 592 q 442 646 403 626 q 528 661 481 665 l 538 557 q 474 554 504 563 q 418 521 443 546 m 143 965 l 256 839 l 369 965 l 435 906 l 275 713 l 238 713 l 78 906 l 143 965 z "},"ĝ":{"ha":556,"x_min":31,"x_max":538,"o":"m 268 -244 q 167 -233 211 -244 q 93 -201 124 -222 q 47 -148 63 -179 q 31 -75 31 -117 q 44 -10 31 -39 q 81 41 58 19 q 131 75 103 63 l 196 43 q 167 15 181 29 q 147 -17 154 0 q 140 -56 140 -33 q 150 -90 140 -76 q 178 -114 160 -104 q 221 -128 196 -124 q 275 -132 246 -132 q 343 -122 315 -132 q 385 -93 371 -111 q 399 -51 399 -75 q 390 -12 399 -26 q 358 9 381 3 q 299 15 336 15 q 228 19 263 15 q 163 31 193 22 q 110 56 132 40 q 75 94 88 71 q 63 150 63 117 q 86 226 63 192 q 143 288 110 260 l 207 249 q 188 225 196 235 q 174 206 179 215 q 168 183 168 197 q 184 157 168 168 q 236 140 200 146 q 333 135 272 135 q 417 123 383 135 q 472 88 451 111 q 502 33 493 65 q 511 -37 511 1 q 497 -115 511 -78 q 453 -182 483 -153 q 377 -228 424 -211 q 268 -244 331 -244 m 258 217 q 155 244 199 217 q 87 321 111 271 q 63 439 63 371 q 88 558 63 507 q 156 637 113 608 q 257 665 200 665 q 359 637 315 665 q 428 558 403 608 q 453 439 453 507 q 427 319 453 369 q 358 243 401 269 q 258 217 314 217 m 257 324 q 299 337 282 324 q 326 376 317 350 q 335 439 335 403 q 326 501 335 476 q 299 540 317 526 q 257 553 282 553 q 217 540 235 553 q 190 501 200 526 q 179 439 179 475 q 189 378 179 404 q 216 338 199 351 q 257 324 233 324 m 418 521 l 371 592 q 442 646 403 626 q 528 661 481 665 l 538 557 q 474 554 504 563 q 418 521 443 546 m 144 697 l 79 757 l 239 950 l 276 950 l 436 757 l 371 697 l 257 824 l 144 697 z "},"ģ":{"ha":556,"x_min":31,"x_max":538,"o":"m 268 -244 q 167 -233 211 -244 q 93 -201 124 -222 q 47 -148 63 -179 q 31 -75 31 -117 q 44 -10 31 -39 q 81 41 58 19 q 131 75 103 63 l 196 43 q 167 15 181 29 q 147 -17 154 0 q 140 -56 140 -33 q 150 -90 140 -76 q 178 -114 160 -104 q 221 -128 196 -124 q 275 -132 246 -132 q 343 -122 315 -132 q 385 -93 371 -111 q 399 -51 399 -75 q 390 -12 399 -26 q 358 9 381 3 q 299 15 336 15 q 228 19 263 15 q 163 31 193 22 q 110 56 132 40 q 75 94 88 71 q 63 150 63 117 q 86 226 63 192 q 143 288 110 260 l 207 249 q 188 225 196 235 q 174 206 179 215 q 168 183 168 197 q 184 157 168 168 q 236 140 200 146 q 333 135 272 135 q 417 123 383 135 q 472 88 451 111 q 502 33 493 65 q 511 -37 511 1 q 497 -115 511 -78 q 453 -182 483 -153 q 377 -228 424 -211 q 268 -244 331 -244 m 258 217 q 155 244 199 217 q 87 321 111 271 q 63 439 63 371 q 88 558 63 507 q 156 637 113 608 q 257 665 200 665 q 359 637 315 665 q 428 558 403 608 q 453 439 453 507 q 427 319 453 369 q 358 243 401 269 q 258 217 314 217 m 257 324 q 299 337 282 324 q 326 376 317 350 q 335 439 335 403 q 326 501 335 476 q 299 540 317 526 q 257 553 282 553 q 217 540 235 553 q 190 501 200 526 q 179 439 179 475 q 189 378 179 404 q 216 338 199 351 q 257 324 233 324 m 418 521 l 371 592 q 442 646 403 626 q 528 661 481 665 l 538 557 q 474 554 504 563 q 418 521 443 546 m 278 1133 l 353 1074 q 301 1001 319 1038 q 282 940 282 965 q 290 913 282 925 q 308 887 299 900 q 326 858 318 874 q 335 818 335 842 q 308 753 335 776 q 244 729 281 729 q 174 761 201 729 q 146 850 146 793 q 154 917 146 883 q 178 987 163 951 q 219 1059 194 1022 q 278 1133 244 1096 z "},"ġ":{"ha":556,"x_min":31,"x_max":538,"o":"m 268 -244 q 167 -233 211 -244 q 93 -201 124 -222 q 47 -148 63 -179 q 31 -75 31 -117 q 44 -10 31 -39 q 81 41 58 19 q 131 75 103 63 l 196 43 q 167 15 181 29 q 147 -17 154 0 q 140 -56 140 -33 q 150 -90 140 -76 q 178 -114 160 -104 q 221 -128 196 -124 q 275 -132 246 -132 q 343 -122 315 -132 q 385 -93 371 -111 q 399 -51 399 -75 q 390 -12 399 -26 q 358 9 381 3 q 299 15 336 15 q 228 19 263 15 q 163 31 193 22 q 110 56 132 40 q 75 94 88 71 q 63 150 63 117 q 86 226 63 192 q 143 288 110 260 l 207 249 q 188 225 196 235 q 174 206 179 215 q 168 183 168 197 q 184 157 168 168 q 236 140 200 146 q 333 135 272 135 q 417 123 383 135 q 472 88 451 111 q 502 33 493 65 q 511 -37 511 1 q 497 -115 511 -78 q 453 -182 483 -153 q 377 -228 424 -211 q 268 -244 331 -244 m 258 217 q 155 244 199 217 q 87 321 111 271 q 63 439 63 371 q 88 558 63 507 q 156 637 113 608 q 257 665 200 665 q 359 637 315 665 q 428 558 403 608 q 453 439 453 507 q 427 319 453 369 q 358 243 401 269 q 258 217 314 217 m 257 324 q 299 337 282 324 q 326 376 317 350 q 335 439 335 403 q 326 501 335 476 q 299 540 317 526 q 257 553 282 553 q 217 540 235 553 q 190 501 200 526 q 179 439 179 475 q 189 378 179 404 q 216 338 199 351 q 257 324 233 324 m 418 521 l 371 592 q 442 646 403 626 q 528 661 481 665 l 538 557 q 474 554 504 563 q 418 521 443 546 z "},"ḡ":{"ha":556,"x_min":31,"x_max":538,"o":"m 268 -244 q 167 -233 211 -244 q 93 -201 124 -222 q 47 -148 63 -179 q 31 -75 31 -117 q 44 -10 31 -39 q 81 41 58 19 q 131 75 103 63 l 196 43 q 167 15 181 29 q 147 -17 154 0 q 140 -56 140 -33 q 150 -90 140 -76 q 178 -114 160 -104 q 221 -128 196 -124 q 275 -132 246 -132 q 343 -122 315 -132 q 385 -93 371 -111 q 399 -51 399 -75 q 390 -12 399 -26 q 358 9 381 3 q 299 15 336 15 q 228 19 263 15 q 163 31 193 22 q 110 56 132 40 q 75 94 88 71 q 63 150 63 117 q 86 226 63 192 q 143 288 110 260 l 207 249 q 188 225 196 235 q 174 206 179 215 q 168 183 168 197 q 184 157 168 168 q 236 140 200 146 q 333 135 272 135 q 417 123 383 135 q 472 88 451 111 q 502 33 493 65 q 511 -37 511 1 q 497 -115 511 -78 q 453 -182 483 -153 q 377 -228 424 -211 q 268 -244 331 -244 m 258 217 q 155 244 199 217 q 87 321 111 271 q 63 439 63 371 q 88 558 63 507 q 156 637 113 608 q 257 665 200 665 q 359 637 315 665 q 428 558 403 608 q 453 439 453 507 q 427 319 453 369 q 358 243 401 269 q 258 217 314 217 m 257 324 q 299 337 282 324 q 326 376 317 350 q 335 439 335 403 q 326 501 335 476 q 299 540 317 526 q 257 553 282 553 q 217 540 235 553 q 190 501 200 526 q 179 439 179 475 q 189 378 179 404 q 216 338 199 351 q 257 324 233 324 m 418 521 l 371 592 q 442 646 403 626 q 528 661 481 665 l 538 557 q 474 554 504 563 q 418 521 443 546 z "},"h":{"ha":556,"x_min":60,"x_max":504,"o":"m 60 929 l 192 929 l 206 929 l 206 917 q 195 899 197 908 q 193 865 193 889 l 193 558 q 235 616 211 593 q 288 650 260 639 q 346 661 317 661 q 431 635 396 661 q 485 551 467 610 q 504 394 504 492 l 504 0 l 371 0 l 371 392 q 363 483 371 450 q 341 531 356 517 q 304 544 326 544 q 269 537 286 544 q 239 515 253 529 q 215 480 225 501 q 199 431 204 458 q 193 369 193 403 l 193 0 l 60 0 l 60 929 z "},"ħ":{"ha":556,"x_min":-4,"x_max":504,"o":"m 60 929 l 192 929 l 206 929 l 206 917 q 195 899 197 908 q 193 865 193 889 l 193 558 q 235 616 211 593 q 288 650 260 639 q 346 661 317 661 q 431 635 396 661 q 485 551 467 610 q 504 394 504 492 l 504 0 l 371 0 l 371 392 q 363 483 371 450 q 341 531 356 517 q 304 544 326 544 q 269 537 286 544 q 239 515 253 529 q 215 480 225 501 q 199 431 204 458 q 193 369 193 403 l 193 0 l 60 0 l 60 929 m -4 718 l -4 822 l 301 822 l 301 718 l -4 718 z "},"ḫ":{"ha":556,"x_min":60,"x_max":504,"o":"m 60 929 l 192 929 l 206 929 l 206 917 q 195 899 197 908 q 193 865 193 889 l 193 558 q 235 616 211 593 q 288 650 260 639 q 346 661 317 661 q 431 635 396 661 q 485 551 467 610 q 504 394 504 492 l 504 0 l 371 0 l 371 392 q 363 483 371 450 q 341 531 356 517 q 304 544 326 544 q 269 537 286 544 q 239 515 253 529 q 215 480 225 501 q 199 431 204 458 q 193 369 193 403 l 193 0 l 60 0 l 60 929 z "},"ĥ":{"ha":556,"x_min":-64,"x_max":504,"o":"m 60 929 l 192 929 l 206 929 l 206 917 q 195 899 197 908 q 193 865 193 889 l 193 558 q 235 616 211 593 q 288 650 260 639 q 346 661 317 661 q 431 635 396 661 q 485 551 467 610 q 504 394 504 492 l 504 0 l 371 0 l 371 392 q 363 483 371 450 q 341 531 356 517 q 304 544 326 544 q 269 537 286 544 q 239 515 253 529 q 215 480 225 501 q 199 431 204 458 q 193 369 193 403 l 193 0 l 60 0 l 60 929 m -18 965 l -64 1035 l 115 1175 l 150 1175 l 325 1038 l 278 965 l 133 1057 l -18 965 z "},"ḥ":{"ha":556,"x_min":60,"x_max":504,"o":"m 60 929 l 192 929 l 206 929 l 206 917 q 195 899 197 908 q 193 865 193 889 l 193 558 q 235 616 211 593 q 288 650 260 639 q 346 661 317 661 q 431 635 396 661 q 485 551 467 610 q 504 394 504 492 l 504 0 l 371 0 l 371 392 q 363 483 371 450 q 341 531 356 517 q 304 544 326 544 q 269 537 286 544 q 239 515 253 529 q 215 480 225 501 q 199 431 204 458 q 193 369 193 403 l 193 0 l 60 0 l 60 929 z "},"i":{"ha":556,"x_min":89,"x_max":467,"o":"m 89 0 l 89 117 l 217 117 l 217 531 l 96 531 l 96 646 l 350 646 l 350 117 l 467 117 l 467 0 l 89 0 z "},"ı":{"ha":556,"x_min":89,"x_max":467,"o":"m 89 0 l 89 117 l 217 117 l 217 531 l 96 531 l 96 646 l 350 646 l 350 117 l 467 117 l 467 0 l 89 0 z "},"í":{"ha":556,"x_min":89,"x_max":467,"o":"m 89 0 l 89 117 l 217 117 l 217 531 l 96 531 l 96 646 l 350 646 l 350 117 l 467 117 l 467 0 l 89 0 m 278 711 l 204 751 l 297 978 l 404 915 l 278 711 z "},"ĭ":{"ha":556,"x_min":89,"x_max":467,"o":"m 89 0 l 89 117 l 217 117 l 217 531 l 96 531 l 96 646 l 350 646 l 350 117 l 467 117 l 467 0 l 89 0 m 361 918 l 447 879 q 377 778 421 813 q 278 744 333 744 q 178 778 224 744 q 108 879 133 813 l 193 917 q 230 851 210 874 q 278 829 250 829 q 313 840 297 829 q 340 870 328 850 q 361 918 353 890 z "},"î":{"ha":556,"x_min":89,"x_max":467,"o":"m 89 0 l 89 117 l 217 117 l 217 531 l 96 531 l 96 646 l 350 646 l 350 117 l 467 117 l 467 0 l 89 0 m 164 703 l 99 763 l 258 956 l 296 956 l 456 763 l 390 703 l 276 829 l 164 703 z "},"ȉ":{"ha":556,"x_min":67,"x_max":467,"o":"m 89 0 l 89 117 l 217 117 l 217 531 l 96 531 l 96 646 l 350 646 l 350 117 l 467 117 l 467 0 l 89 0 z "},"ï":{"ha":556,"x_min":88,"x_max":467,"o":"m 89 0 l 89 117 l 217 117 l 217 531 l 96 531 l 96 646 l 350 646 l 350 117 l 467 117 l 467 0 l 89 0 m 167 768 q 112 792 135 768 q 89 849 89 817 q 112 907 89 882 q 167 932 135 932 q 224 906 201 932 q 246 849 246 881 q 223 792 246 817 q 167 768 200 768 m 375 768 q 320 792 343 768 q 297 849 297 815 q 320 908 297 883 q 375 932 343 932 q 431 906 410 932 q 453 849 453 881 q 430 792 453 817 q 375 768 407 768 z "},"ḯ":{"ha":556,"x_min":89,"x_max":467,"o":"m 89 0 l 89 117 l 217 117 l 217 531 l 96 531 l 96 646 l 350 646 l 350 117 l 467 117 l 467 0 l 89 0 z "},"ị":{"ha":556,"x_min":89,"x_max":467,"o":"m 89 0 l 89 117 l 217 117 l 217 531 l 96 531 l 96 646 l 350 646 l 350 117 l 467 117 l 467 0 l 89 0 z "},"ì":{"ha":556,"x_min":89,"x_max":467,"o":"m 89 0 l 89 117 l 217 117 l 217 531 l 96 531 l 96 646 l 350 646 l 350 117 l 467 117 l 467 0 l 89 0 z "},"ỉ":{"ha":556,"x_min":89,"x_max":467,"o":"m 89 0 l 89 117 l 217 117 l 217 531 l 96 531 l 96 646 l 350 646 l 350 117 l 467 117 l 467 0 l 89 0 m 401 894 q 391 849 401 868 q 367 815 381 831 q 342 781 353 799 q 331 742 331 764 l 331 728 l 243 728 l 243 765 q 253 801 243 785 q 276 831 263 817 q 301 858 290 844 q 311 883 311 871 q 301 909 311 900 q 278 918 292 918 q 244 908 258 918 q 219 875 229 899 l 175 953 q 227 993 197 981 q 288 1006 257 1006 q 348 992 322 1006 q 388 953 374 978 q 401 894 401 929 z "},"ȋ":{"ha":556,"x_min":89,"x_max":467,"o":"m 89 0 l 89 117 l 217 117 l 217 531 l 96 531 l 96 646 l 350 646 l 350 117 l 467 117 l 467 0 l 89 0 m 196 738 l 110 776 q 180 876 136 843 q 278 910 224 910 q 378 876 333 910 q 449 776 422 843 l 363 738 q 327 804 347 782 q 278 826 307 826 q 244 816 260 826 q 217 786 229 806 q 196 738 206 767 z "},"ī":{"ha":556,"x_min":89,"x_max":467,"o":"m 89 0 l 89 117 l 217 117 l 217 531 l 96 531 l 96 646 l 350 646 l 350 117 l 467 117 l 467 0 l 89 0 z "},"į":{"ha":556,"x_min":89,"x_max":467,"o":"m 89 0 l 89 117 l 217 117 l 217 531 l 96 531 l 96 646 l 350 646 l 350 117 l 467 117 l 467 0 l 89 0 m 464 -208 l 414 -331 q 331 -290 364 -314 q 283 -237 299 -267 q 267 -175 267 -207 q 284 -103 267 -140 q 336 -31 301 -67 q 419 38 371 6 l 467 0 q 424 -49 442 -25 q 398 -94 407 -72 q 389 -133 389 -115 q 408 -178 389 -160 q 464 -208 426 -197 z "},"ĩ":{"ha":556,"x_min":89,"x_max":467,"o":"m 89 0 l 89 117 l 217 117 l 217 531 l 96 531 l 96 646 l 350 646 l 350 117 l 467 117 l 467 0 l 89 0 m 379 938 l 449 901 q 403 824 429 853 q 347 796 378 796 q 307 806 324 796 q 276 831 290 817 q 251 855 263 844 q 226 865 239 865 q 201 851 213 865 q 183 814 190 836 l 114 847 q 157 926 128 896 q 217 956 186 956 q 257 945 239 956 q 290 921 275 935 q 316 897 304 907 q 339 888 328 888 q 360 900 351 888 q 379 938 369 913 z "},"j":{"ha":556,"x_min":36,"x_max":442,"o":"m 213 -243 q 115 -223 160 -243 q 36 -162 71 -203 l 101 -54 l 108 -43 l 118 -49 q 124 -71 121 -60 q 142 -99 128 -82 q 173 -116 156 -110 q 211 -122 190 -122 q 258 -106 240 -122 q 285 -58 276 -90 q 294 25 294 -25 l 294 529 l 111 529 l 111 646 l 428 646 l 428 36 q 398 -128 428 -67 q 319 -216 368 -189 q 213 -243 271 -243 l 213 -243 z "},"ȷ":{"ha":556,"x_min":36,"x_max":428,"o":"m 213 -243 q 115 -223 160 -243 q 36 -162 71 -203 l 101 -54 l 108 -43 l 118 -49 q 124 -71 121 -60 q 142 -99 128 -82 q 173 -116 156 -110 q 211 -122 190 -122 q 258 -106 240 -122 q 285 -58 276 -90 q 294 25 294 -25 l 294 529 l 111 529 l 111 646 l 428 646 l 428 36 q 398 -128 428 -67 q 319 -216 368 -189 q 213 -243 271 -243 l 213 -243 z "},"ĵ":{"ha":556,"x_min":36,"x_max":535,"o":"m 213 -243 q 115 -223 160 -243 q 36 -162 71 -203 l 101 -54 l 108 -43 l 118 -49 q 124 -71 121 -60 q 142 -99 128 -82 q 173 -116 156 -110 q 211 -122 190 -122 q 258 -106 240 -122 q 285 -58 276 -90 q 294 25 294 -25 l 294 529 l 111 529 l 111 646 l 428 646 l 428 36 q 398 -128 428 -67 q 319 -216 368 -189 q 213 -243 271 -243 l 213 -243 m 243 703 l 178 763 l 338 956 l 375 956 l 535 763 l 469 703 l 356 829 l 243 703 z "},"k":{"ha":556,"x_min":54,"x_max":544,"o":"m 228 281 l 189 231 l 189 0 l 54 0 l 54 929 l 188 929 l 200 929 l 200 917 q 191 899 193 908 q 189 865 189 889 l 189 393 l 385 651 q 403 648 393 650 q 424 644 414 646 q 445 642 435 643 q 464 642 456 642 l 519 642 l 318 375 l 544 0 l 399 -6 l 228 281 z "},"ķ":{"ha":556,"x_min":54,"x_max":544,"o":"m 228 281 l 189 231 l 189 0 l 54 0 l 54 929 l 188 929 l 200 929 l 200 917 q 191 899 193 908 q 189 865 189 889 l 189 393 l 385 651 q 403 648 393 650 q 424 644 414 646 q 445 642 435 643 q 464 642 456 642 l 519 642 l 318 375 l 544 0 l 399 -6 l 228 281 m 264 -399 l 196 -344 q 242 -280 225 -312 q 260 -224 260 -247 q 248 -192 260 -207 q 224 -159 236 -176 q 213 -115 213 -142 q 237 -56 213 -76 q 293 -35 261 -35 q 358 -63 333 -35 q 382 -143 382 -92 q 369 -225 382 -183 q 329 -310 356 -267 q 264 -399 303 -353 z "},"ĸ":{"ha":556,"x_min":54,"x_max":544,"o":"m 228 281 l 189 231 l 189 0 l 54 0 l 54 646 l 188 646 l 200 646 l 200 635 q 191 617 193 626 q 189 583 189 607 l 189 393 l 385 651 q 403 648 393 650 q 424 644 414 646 q 445 642 435 643 q 464 642 456 642 l 519 642 l 318 375 l 544 0 l 399 -6 l 228 281 z "},"l":{"ha":556,"x_min":68,"x_max":489,"o":"m 68 0 l 68 117 l 213 117 l 213 811 l 75 811 l 75 929 l 346 929 l 346 117 l 489 117 l 489 0 l 68 0 z "},"ĺ":{"ha":556,"x_min":68,"x_max":489,"o":"m 68 0 l 68 117 l 213 117 l 213 811 l 75 811 l 75 929 l 346 929 l 346 117 l 489 117 l 489 0 l 68 0 z "},"ľ":{"ha":556,"x_min":68,"x_max":544,"o":"m 68 0 l 68 117 l 213 117 l 213 811 l 75 811 l 75 929 l 346 929 l 346 117 l 489 117 l 489 0 l 68 0 m 433 608 l 363 665 q 397 708 382 688 q 420 749 411 729 q 429 782 429 768 q 422 802 428 793 q 409 820 417 811 q 395 841 401 829 q 389 868 389 853 q 410 927 389 904 q 463 950 431 950 q 519 924 494 950 q 544 847 544 897 q 532 774 544 811 q 495 696 519 736 q 433 608 471 656 z "},"ļ":{"ha":556,"x_min":68,"x_max":489,"o":"m 68 0 l 68 117 l 213 117 l 213 811 l 75 811 l 75 929 l 346 929 l 346 117 l 489 117 l 489 0 l 68 0 m 264 -399 l 196 -344 q 242 -280 225 -312 q 260 -224 260 -247 q 248 -192 260 -207 q 224 -159 236 -176 q 213 -115 213 -142 q 237 -56 213 -76 q 293 -35 261 -35 q 358 -63 333 -35 q 382 -143 382 -92 q 369 -225 382 -183 q 329 -310 356 -267 q 264 -399 303 -353 z "},"ŀ":{"ha":556,"x_min":64,"x_max":529,"o":"m 64 0 l 64 117 l 179 117 l 179 815 l 71 815 l 71 932 l 313 932 l 313 117 l 472 117 l 472 0 l 64 0 m 439 372 q 374 399 400 372 q 347 464 347 425 q 374 528 347 501 q 439 556 401 556 q 502 528 475 556 q 529 464 529 501 q 503 399 529 426 q 439 372 476 372 z "},"ḷ":{"ha":556,"x_min":68,"x_max":489,"o":"m 68 0 l 68 117 l 213 117 l 213 811 l 75 811 l 75 929 l 346 929 l 346 117 l 489 117 l 489 0 l 68 0 z "},"ǉ":{"ha":556,"x_min":25,"x_max":519,"o":"m 289 -244 q 213 -227 249 -244 q 153 -182 178 -210 l 214 -61 q 221 -69 219 -64 q 224 -79 222 -74 q 231 -92 225 -85 q 251 -110 236 -100 q 270 -117 260 -114 q 292 -121 281 -121 q 335 -107 317 -121 q 365 -60 354 -93 q 375 26 375 -28 l 375 529 l 263 529 l 263 646 l 504 646 l 504 32 q 488 -97 504 -44 q 443 -182 472 -150 q 374 -229 414 -214 q 289 -244 335 -244 m 25 0 l 25 117 l 81 117 l 81 815 l 32 815 l 32 932 l 208 932 l 208 117 l 314 117 l 314 0 l 25 0 m 433 760 q 374 785 399 760 q 349 844 349 810 q 373 905 349 881 q 433 929 397 929 q 494 903 468 929 q 519 844 519 878 q 494 785 519 810 q 433 760 468 760 z "},"ḻ":{"ha":556,"x_min":68,"x_max":489,"o":"m 68 0 l 68 117 l 213 117 l 213 811 l 75 811 l 75 929 l 346 929 l 346 117 l 489 117 l 489 0 l 68 0 z "},"ł":{"ha":556,"x_min":75,"x_max":483,"o":"m 75 0 l 75 117 l 213 117 l 213 351 l 135 317 l 135 461 l 213 494 l 213 811 l 82 811 l 82 929 l 346 929 l 346 550 l 435 588 l 435 443 l 346 403 l 346 117 l 483 117 l 483 0 l 75 0 z "},"m":{"ha":556,"x_min":33,"x_max":532,"o":"m 33 0 l 33 646 l 142 646 l 142 593 q 167 631 153 615 q 197 653 181 646 q 229 661 213 661 q 265 652 249 661 q 295 624 282 643 q 315 578 308 606 q 342 623 326 604 q 378 651 357 642 q 424 661 399 661 q 472 649 451 661 q 506 614 492 638 q 526 557 519 590 q 531 481 532 524 l 531 0 l 417 0 l 417 453 q 414 517 417 494 q 405 547 411 539 q 389 556 399 556 q 361 539 374 556 q 342 493 349 522 q 335 424 335 464 l 335 0 l 229 0 l 229 446 q 222 535 229 513 q 196 557 215 557 q 178 549 186 557 q 163 524 169 540 q 151 485 156 508 q 147 429 147 461 l 147 0 l 33 0 z "},"ṃ":{"ha":556,"x_min":33,"x_max":532,"o":"m 33 0 l 33 646 l 142 646 l 142 593 q 167 631 153 615 q 197 653 181 646 q 229 661 213 661 q 265 652 249 661 q 295 624 282 643 q 315 578 308 606 q 342 623 326 604 q 378 651 357 642 q 424 661 399 661 q 472 649 451 661 q 506 614 492 638 q 526 557 519 590 q 531 481 532 524 l 531 0 l 417 0 l 417 453 q 414 517 417 494 q 405 547 411 539 q 389 556 399 556 q 361 539 374 556 q 342 493 349 522 q 335 424 335 464 l 335 0 l 229 0 l 229 446 q 222 535 229 513 q 196 557 215 557 q 178 549 186 557 q 163 524 169 540 q 151 485 156 508 q 147 429 147 461 l 147 0 l 33 0 z "},"n":{"ha":556,"x_min":60,"x_max":504,"o":"m 60 0 l 60 646 l 193 646 l 193 556 q 232 611 210 588 q 281 648 254 635 q 340 661 308 661 q 424 638 388 661 q 483 557 461 614 q 504 400 504 500 l 504 0 l 371 0 l 371 397 q 363 483 371 451 q 340 530 356 515 q 301 544 325 544 q 263 533 282 544 q 227 501 243 522 q 202 451 211 481 q 193 383 193 421 l 193 0 l 60 0 z "},"ń":{"ha":556,"x_min":60,"x_max":504,"o":"m 60 0 l 60 646 l 193 646 l 193 556 q 232 611 210 588 q 281 648 254 635 q 340 661 308 661 q 424 638 388 661 q 483 557 461 614 q 504 400 504 500 l 504 0 l 371 0 l 371 397 q 363 483 371 451 q 340 530 356 515 q 301 544 325 544 q 263 533 282 544 q 227 501 243 522 q 202 451 211 481 q 193 383 193 421 l 193 0 l 60 0 z "},"ň":{"ha":556,"x_min":60,"x_max":504,"o":"m 60 0 l 60 646 l 193 646 l 193 556 q 232 611 210 588 q 281 648 254 635 q 340 661 308 661 q 424 638 388 661 q 483 557 461 614 q 504 400 504 500 l 504 0 l 371 0 l 371 397 q 363 483 371 451 q 340 530 356 515 q 301 544 325 544 q 263 533 282 544 q 227 501 243 522 q 202 451 211 481 q 193 383 193 421 l 193 0 l 60 0 m 176 965 l 289 839 l 403 965 l 468 906 l 308 713 l 271 713 l 111 906 l 176 965 z "},"ņ":{"ha":556,"x_min":60,"x_max":504,"o":"m 60 0 l 60 646 l 193 646 l 193 556 q 232 611 210 588 q 281 648 254 635 q 340 661 308 661 q 424 638 388 661 q 483 557 461 614 q 504 400 504 500 l 504 0 l 371 0 l 371 397 q 363 483 371 451 q 340 530 356 515 q 301 544 325 544 q 263 533 282 544 q 227 501 243 522 q 202 451 211 481 q 193 383 193 421 l 193 0 l 60 0 m 275 -399 l 207 -344 q 253 -280 236 -312 q 271 -224 271 -247 q 259 -192 271 -207 q 235 -159 247 -176 q 224 -115 224 -142 q 248 -56 224 -76 q 304 -35 272 -35 q 369 -63 344 -35 q 393 -143 393 -92 q 380 -225 393 -183 q 340 -310 367 -267 q 275 -399 314 -353 z "},"ṅ":{"ha":556,"x_min":60,"x_max":504,"o":"m 60 0 l 60 646 l 193 646 l 193 556 q 232 611 210 588 q 281 648 254 635 q 340 661 308 661 q 424 638 388 661 q 483 557 461 614 q 504 400 504 500 l 504 0 l 371 0 l 371 397 q 363 483 371 451 q 340 530 356 515 q 301 544 325 544 q 263 533 282 544 q 227 501 243 522 q 202 451 211 481 q 193 383 193 421 l 193 0 l 60 0 z "},"ṇ":{"ha":556,"x_min":60,"x_max":504,"o":"m 60 0 l 60 646 l 193 646 l 193 556 q 232 611 210 588 q 281 648 254 635 q 340 661 308 661 q 424 638 388 661 q 483 557 461 614 q 504 400 504 500 l 504 0 l 371 0 l 371 397 q 363 483 371 451 q 340 530 356 515 q 301 544 325 544 q 263 533 282 544 q 227 501 243 522 q 202 451 211 481 q 193 383 193 421 l 193 0 l 60 0 z "},"ŋ":{"ha":556,"x_min":58,"x_max":504,"o":"m 296 -247 q 229 -234 265 -247 q 165 -194 193 -221 l 214 -78 q 224 -87 221 -81 q 232 -102 226 -94 q 250 -117 238 -110 q 286 -124 263 -124 q 338 -103 318 -124 q 366 -42 357 -83 q 375 61 375 -1 l 375 388 q 369 460 375 431 q 353 508 363 490 q 329 533 343 525 q 300 540 315 540 q 265 533 281 540 q 235 511 249 525 q 211 476 221 497 q 196 429 201 456 q 190 371 190 403 l 190 0 l 58 0 l 58 646 l 190 646 l 190 556 q 219 600 203 581 q 254 633 235 619 q 295 653 274 646 q 339 661 317 661 q 403 647 374 661 q 456 602 433 633 q 492 519 479 571 q 504 390 504 467 l 504 75 q 488 -73 504 -11 q 444 -173 472 -135 q 378 -229 417 -211 q 296 -247 340 -247 z "},"ṉ":{"ha":556,"x_min":60,"x_max":504,"o":"m 60 0 l 60 646 l 193 646 l 193 556 q 232 611 210 588 q 281 648 254 635 q 340 661 308 661 q 424 638 388 661 q 483 557 461 614 q 504 400 504 500 l 504 0 l 371 0 l 371 397 q 363 483 371 451 q 340 530 356 515 q 301 544 325 544 q 263 533 282 544 q 227 501 243 522 q 202 451 211 481 q 193 383 193 421 l 193 0 l 60 0 z "},"ñ":{"ha":556,"x_min":60,"x_max":504,"o":"m 60 0 l 60 646 l 193 646 l 193 556 q 232 611 210 588 q 281 648 254 635 q 340 661 308 661 q 424 638 388 661 q 483 557 461 614 q 504 400 504 500 l 504 0 l 371 0 l 371 397 q 363 483 371 451 q 340 530 356 515 q 301 544 325 544 q 263 533 282 544 q 227 501 243 522 q 202 451 211 481 q 193 383 193 421 l 193 0 l 60 0 m 413 932 l 483 892 q 435 812 463 840 q 372 783 408 783 q 320 794 340 783 q 285 821 300 806 q 258 847 269 836 q 231 858 246 858 q 200 843 213 858 q 175 800 188 828 l 99 835 q 148 921 117 890 q 224 951 179 951 q 272 940 251 951 q 306 915 292 929 q 335 889 321 900 q 364 878 349 878 q 392 892 382 878 q 413 932 401 907 z "},"o":{"ha":556,"x_min":31,"x_max":525,"o":"m 278 -12 q 151 24 207 -12 q 63 135 94 61 q 31 321 31 210 q 63 508 31 433 q 151 622 94 583 q 278 661 207 661 q 405 622 349 661 q 493 508 461 583 q 525 321 525 433 q 493 136 525 211 q 405 24 461 61 q 278 -12 349 -12 m 278 104 q 339 129 314 104 q 378 203 364 154 q 392 322 392 251 q 378 444 392 396 q 339 518 364 493 q 278 543 314 543 q 219 518 244 543 q 178 444 193 493 q 164 322 164 396 q 178 203 164 251 q 217 129 192 154 q 278 104 243 104 z "},"ó":{"ha":556,"x_min":31,"x_max":525,"o":"m 278 -12 q 151 24 207 -12 q 63 135 94 61 q 31 321 31 210 q 63 508 31 433 q 151 622 94 583 q 278 661 207 661 q 405 622 349 661 q 493 508 461 583 q 525 321 525 433 q 493 136 525 211 q 405 24 461 61 q 278 -12 349 -12 m 278 104 q 339 129 314 104 q 378 203 364 154 q 392 322 392 251 q 378 444 392 396 q 339 518 364 493 q 278 543 314 543 q 219 518 244 543 q 178 444 193 493 q 164 322 164 396 q 178 203 164 251 q 217 129 192 154 q 278 104 243 104 z "},"ŏ":{"ha":556,"x_min":31,"x_max":525,"o":"m 278 -12 q 151 24 207 -12 q 63 135 94 61 q 31 321 31 210 q 63 508 31 433 q 151 622 94 583 q 278 661 207 661 q 405 622 349 661 q 493 508 461 583 q 525 321 525 433 q 493 136 525 211 q 405 24 461 61 q 278 -12 349 -12 m 278 104 q 339 129 314 104 q 378 203 364 154 q 392 322 392 251 q 378 444 392 396 q 339 518 364 493 q 278 543 314 543 q 219 518 244 543 q 178 444 193 493 q 164 322 164 396 q 178 203 164 251 q 217 129 192 154 q 278 104 243 104 m 361 914 l 447 875 q 377 774 421 808 q 278 740 333 740 q 178 774 224 740 q 108 875 133 808 l 193 913 q 230 847 210 869 q 278 825 250 825 q 313 835 297 825 q 340 866 328 846 q 361 914 353 886 z "},"ô":{"ha":556,"x_min":31,"x_max":525,"o":"m 278 -12 q 151 24 207 -12 q 63 135 94 61 q 31 321 31 210 q 63 508 31 433 q 151 622 94 583 q 278 661 207 661 q 405 622 349 661 q 493 508 461 583 q 525 321 525 433 q 493 136 525 211 q 405 24 461 61 q 278 -12 349 -12 m 278 104 q 339 129 314 104 q 378 203 364 154 q 392 322 392 251 q 378 444 392 396 q 339 518 364 493 q 278 543 314 543 q 219 518 244 543 q 178 444 193 493 q 164 322 164 396 q 178 203 164 251 q 217 129 192 154 q 278 104 243 104 m 165 697 l 100 757 l 260 950 l 297 950 l 457 757 l 392 697 l 278 824 l 165 697 z "},"ố":{"ha":556,"x_min":31,"x_max":565,"o":"m 278 -12 q 151 24 207 -12 q 63 135 94 61 q 31 321 31 210 q 63 508 31 433 q 151 622 94 583 q 278 661 207 661 q 405 622 349 661 q 493 508 461 583 q 525 321 525 433 q 493 136 525 211 q 405 24 461 61 q 278 -12 349 -12 m 278 104 q 339 129 314 104 q 378 203 364 154 q 392 322 392 251 q 378 444 392 396 q 339 518 364 493 q 278 543 314 543 q 219 518 244 543 q 178 444 193 493 q 164 322 164 396 q 178 203 164 251 q 217 129 192 154 q 278 104 243 104 z "},"ộ":{"ha":556,"x_min":31,"x_max":525,"o":"m 278 -12 q 151 24 207 -12 q 63 135 94 61 q 31 321 31 210 q 63 508 31 433 q 151 622 94 583 q 278 661 207 661 q 405 622 349 661 q 493 508 461 583 q 525 321 525 433 q 493 136 525 211 q 405 24 461 61 q 278 -12 349 -12 m 278 104 q 339 129 314 104 q 378 203 364 154 q 392 322 392 251 q 378 444 392 396 q 339 518 364 493 q 278 543 314 543 q 219 518 244 543 q 178 444 193 493 q 164 322 164 396 q 178 203 164 251 q 217 129 192 154 q 278 104 243 104 m 165 697 l 100 757 l 260 950 l 297 950 l 457 757 l 392 697 l 278 824 l 165 697 z "},"ồ":{"ha":556,"x_min":31,"x_max":525,"o":"m 278 -12 q 151 24 207 -12 q 63 135 94 61 q 31 321 31 210 q 63 508 31 433 q 151 622 94 583 q 278 661 207 661 q 405 622 349 661 q 493 508 461 583 q 525 321 525 433 q 493 136 525 211 q 405 24 461 61 q 278 -12 349 -12 m 278 104 q 339 129 314 104 q 378 203 364 154 q 392 322 392 251 q 378 444 392 396 q 339 518 364 493 q 278 543 314 543 q 219 518 244 543 q 178 444 193 493 q 164 322 164 396 q 178 203 164 251 q 217 129 192 154 q 278 104 243 104 z "},"ổ":{"ha":556,"x_min":31,"x_max":544,"o":"m 278 -12 q 151 24 207 -12 q 63 135 94 61 q 31 321 31 210 q 63 508 31 433 q 151 622 94 583 q 278 661 207 661 q 405 622 349 661 q 493 508 461 583 q 525 321 525 433 q 493 136 525 211 q 405 24 461 61 q 278 -12 349 -12 m 278 104 q 339 129 314 104 q 378 203 364 154 q 392 322 392 251 q 378 444 392 396 q 339 518 364 493 q 278 543 314 543 q 219 518 244 543 q 178 444 193 493 q 164 322 164 396 q 178 203 164 251 q 217 129 192 154 q 278 104 243 104 z "},"ỗ":{"ha":556,"x_min":31,"x_max":525,"o":"m 278 -12 q 151 24 207 -12 q 63 135 94 61 q 31 321 31 210 q 63 508 31 433 q 151 622 94 583 q 278 661 207 661 q 405 622 349 661 q 493 508 461 583 q 525 321 525 433 q 493 136 525 211 q 405 24 461 61 q 278 -12 349 -12 m 278 104 q 339 129 314 104 q 378 203 364 154 q 392 322 392 251 q 378 444 392 396 q 339 518 364 493 q 278 543 314 543 q 219 518 244 543 q 178 444 193 493 q 164 322 164 396 q 178 203 164 251 q 217 129 192 154 q 278 104 243 104 z "},"ȍ":{"ha":556,"x_min":31,"x_max":525,"o":"m 278 -12 q 151 24 207 -12 q 63 135 94 61 q 31 321 31 210 q 63 508 31 433 q 151 622 94 583 q 278 661 207 661 q 405 622 349 661 q 493 508 461 583 q 525 321 525 433 q 493 136 525 211 q 405 24 461 61 q 278 -12 349 -12 m 278 104 q 339 129 314 104 q 378 203 364 154 q 392 322 392 251 q 378 444 392 396 q 339 518 364 493 q 278 543 314 543 q 219 518 244 543 q 178 444 193 493 q 164 322 164 396 q 178 203 164 251 q 217 129 192 154 q 278 104 243 104 z "},"ö":{"ha":556,"x_min":31,"x_max":525,"o":"m 278 -12 q 151 24 207 -12 q 63 135 94 61 q 31 321 31 210 q 63 508 31 433 q 151 622 94 583 q 278 661 207 661 q 405 622 349 661 q 493 508 461 583 q 525 321 525 433 q 493 136 525 211 q 405 24 461 61 q 278 -12 349 -12 m 278 104 q 339 129 314 104 q 378 203 364 154 q 392 322 392 251 q 378 444 392 396 q 339 518 364 493 q 278 543 314 543 q 219 518 244 543 q 178 444 193 493 q 164 322 164 396 q 178 203 164 251 q 217 129 192 154 q 278 104 243 104 z "},"ȫ":{"ha":556,"x_min":31,"x_max":525,"o":"m 278 -12 q 151 24 207 -12 q 63 135 94 61 q 31 321 31 210 q 63 508 31 433 q 151 622 94 583 q 278 661 207 661 q 405 622 349 661 q 493 508 461 583 q 525 321 525 433 q 493 136 525 211 q 405 24 461 61 q 278 -12 349 -12 m 278 104 q 339 129 314 104 q 378 203 364 154 q 392 322 392 251 q 378 444 392 396 q 339 518 364 493 q 278 543 314 543 q 219 518 244 543 q 178 444 193 493 q 164 322 164 396 q 178 203 164 251 q 217 129 192 154 q 278 104 243 104 z "},"ȱ":{"ha":556,"x_min":31,"x_max":525,"o":"m 278 -12 q 151 24 207 -12 q 63 135 94 61 q 31 321 31 210 q 63 508 31 433 q 151 622 94 583 q 278 661 207 661 q 405 622 349 661 q 493 508 461 583 q 525 321 525 433 q 493 136 525 211 q 405 24 461 61 q 278 -12 349 -12 m 278 104 q 339 129 314 104 q 378 203 364 154 q 392 322 392 251 q 378 444 392 396 q 339 518 364 493 q 278 543 314 543 q 219 518 244 543 q 178 444 193 493 q 164 322 164 396 q 178 203 164 251 q 217 129 192 154 q 278 104 243 104 z "},"ọ":{"ha":556,"x_min":31,"x_max":525,"o":"m 278 -12 q 151 24 207 -12 q 63 135 94 61 q 31 321 31 210 q 63 508 31 433 q 151 622 94 583 q 278 661 207 661 q 405 622 349 661 q 493 508 461 583 q 525 321 525 433 q 493 136 525 211 q 405 24 461 61 q 278 -12 349 -12 m 278 104 q 339 129 314 104 q 378 203 364 154 q 392 322 392 251 q 378 444 392 396 q 339 518 364 493 q 278 543 314 543 q 219 518 244 543 q 178 444 193 493 q 164 322 164 396 q 178 203 164 251 q 217 129 192 154 q 278 104 243 104 z "},"ò":{"ha":556,"x_min":31,"x_max":525,"o":"m 278 -12 q 151 24 207 -12 q 63 135 94 61 q 31 321 31 210 q 63 508 31 433 q 151 622 94 583 q 278 661 207 661 q 405 622 349 661 q 493 508 461 583 q 525 321 525 433 q 493 136 525 211 q 405 24 461 61 q 278 -12 349 -12 m 278 104 q 339 129 314 104 q 378 203 364 154 q 392 322 392 251 q 378 444 392 396 q 339 518 364 493 q 278 543 314 543 q 219 518 244 543 q 178 444 193 493 q 164 322 164 396 q 178 203 164 251 q 217 129 192 154 q 278 104 243 104 z "},"ỏ":{"ha":556,"x_min":31,"x_max":525,"o":"m 278 -12 q 151 24 207 -12 q 63 135 94 61 q 31 321 31 210 q 63 508 31 433 q 151 622 94 583 q 278 661 207 661 q 405 622 349 661 q 493 508 461 583 q 525 321 525 433 q 493 136 525 211 q 405 24 461 61 q 278 -12 349 -12 m 278 104 q 339 129 314 104 q 378 203 364 154 q 392 322 392 251 q 378 444 392 396 q 339 518 364 493 q 278 543 314 543 q 219 518 244 543 q 178 444 193 493 q 164 322 164 396 q 178 203 164 251 q 217 129 192 154 q 278 104 243 104 m 403 890 q 392 845 403 864 q 368 810 382 826 q 343 777 354 794 q 332 738 332 760 l 332 724 l 244 724 l 244 761 q 254 797 244 781 q 278 826 264 813 q 302 853 292 840 q 313 879 313 867 q 303 905 313 896 q 279 914 293 914 q 245 904 260 914 q 221 871 231 894 l 176 949 q 228 989 199 976 q 289 1001 258 1001 q 349 988 324 1001 q 389 949 375 974 q 403 890 403 925 z "},"ơ":{"ha":556,"x_min":31,"x_max":525,"o":"m 278 -12 q 151 24 207 -12 q 63 135 94 61 q 31 321 31 210 q 63 508 31 433 q 151 622 94 583 q 278 661 207 661 q 405 622 349 661 q 493 508 461 583 q 525 321 525 433 q 493 136 525 211 q 405 24 461 61 q 278 -12 349 -12 m 278 104 q 339 129 314 104 q 378 203 364 154 q 392 322 392 251 q 378 444 392 396 q 339 518 364 493 q 278 543 314 543 q 219 518 244 543 q 178 444 193 493 q 164 322 164 396 q 178 203 164 251 q 217 129 192 154 q 278 104 243 104 m 515 738 q 503 608 515 654 q 464 542 490 561 q 394 524 438 524 l 388 611 q 411 639 404 611 q 418 738 418 667 l 515 738 z "},"ớ":{"ha":556,"x_min":31,"x_max":525,"o":"m 278 -12 q 151 24 207 -12 q 63 135 94 61 q 31 321 31 210 q 63 508 31 433 q 151 622 94 583 q 278 661 207 661 q 405 622 349 661 q 493 508 461 583 q 525 321 525 433 q 493 136 525 211 q 405 24 461 61 q 278 -12 349 -12 m 278 104 q 339 129 314 104 q 378 203 364 154 q 392 322 392 251 q 378 444 392 396 q 339 518 364 493 q 278 543 314 543 q 219 518 244 543 q 178 444 193 493 q 164 322 164 396 q 178 203 164 251 q 217 129 192 154 q 278 104 243 104 m 515 738 q 503 608 515 654 q 464 542 490 561 q 394 524 438 524 l 388 611 q 411 639 404 611 q 418 738 418 667 l 515 738 z "},"ợ":{"ha":556,"x_min":31,"x_max":525,"o":"m 278 -12 q 151 24 207 -12 q 63 135 94 61 q 31 321 31 210 q 63 508 31 433 q 151 622 94 583 q 278 661 207 661 q 405 622 349 661 q 493 508 461 583 q 525 321 525 433 q 493 136 525 211 q 405 24 461 61 q 278 -12 349 -12 m 278 104 q 339 129 314 104 q 378 203 364 154 q 392 322 392 251 q 378 444 392 396 q 339 518 364 493 q 278 543 314 543 q 219 518 244 543 q 178 444 193 493 q 164 322 164 396 q 178 203 164 251 q 217 129 192 154 q 278 104 243 104 m 515 738 q 503 608 515 654 q 464 542 490 561 q 394 524 438 524 l 388 611 q 411 639 404 611 q 418 738 418 667 l 515 738 z "},"ờ":{"ha":556,"x_min":31,"x_max":525,"o":"m 278 -12 q 151 24 207 -12 q 63 135 94 61 q 31 321 31 210 q 63 508 31 433 q 151 622 94 583 q 278 661 207 661 q 405 622 349 661 q 493 508 461 583 q 525 321 525 433 q 493 136 525 211 q 405 24 461 61 q 278 -12 349 -12 m 278 104 q 339 129 314 104 q 378 203 364 154 q 392 322 392 251 q 378 444 392 396 q 339 518 364 493 q 278 543 314 543 q 219 518 244 543 q 178 444 193 493 q 164 322 164 396 q 178 203 164 251 q 217 129 192 154 q 278 104 243 104 m 515 738 q 503 608 515 654 q 464 542 490 561 q 394 524 438 524 l 388 611 q 411 639 404 611 q 418 738 418 667 l 515 738 z "},"ở":{"ha":556,"x_min":31,"x_max":525,"o":"m 278 -12 q 151 24 207 -12 q 63 135 94 61 q 31 321 31 210 q 63 508 31 433 q 151 622 94 583 q 278 661 207 661 q 405 622 349 661 q 493 508 461 583 q 525 321 525 433 q 493 136 525 211 q 405 24 461 61 q 278 -12 349 -12 m 278 104 q 339 129 314 104 q 378 203 364 154 q 392 322 392 251 q 378 444 392 396 q 339 518 364 493 q 278 543 314 543 q 219 518 244 543 q 178 444 193 493 q 164 322 164 396 q 178 203 164 251 q 217 129 192 154 q 278 104 243 104 m 515 738 q 503 608 515 654 q 464 542 490 561 q 394 524 438 524 l 388 611 q 411 639 404 611 q 418 738 418 667 l 515 738 m 403 890 q 392 845 403 864 q 368 810 382 826 q 343 777 354 794 q 332 738 332 760 l 332 724 l 244 724 l 244 761 q 254 797 244 781 q 278 826 264 813 q 302 853 292 840 q 313 879 313 867 q 303 905 313 896 q 279 914 293 914 q 245 904 260 914 q 221 871 231 894 l 176 949 q 228 989 199 976 q 289 1001 258 1001 q 349 988 324 1001 q 389 949 375 974 q 403 890 403 925 z "},"ỡ":{"ha":556,"x_min":31,"x_max":525,"o":"m 278 -12 q 151 24 207 -12 q 63 135 94 61 q 31 321 31 210 q 63 508 31 433 q 151 622 94 583 q 278 661 207 661 q 405 622 349 661 q 493 508 461 583 q 525 321 525 433 q 493 136 525 211 q 405 24 461 61 q 278 -12 349 -12 m 278 104 q 339 129 314 104 q 378 203 364 154 q 392 322 392 251 q 378 444 392 396 q 339 518 364 493 q 278 543 314 543 q 219 518 244 543 q 178 444 193 493 q 164 322 164 396 q 178 203 164 251 q 217 129 192 154 q 278 104 243 104 m 515 738 q 503 608 515 654 q 464 542 490 561 q 394 524 438 524 l 388 611 q 411 639 404 611 q 418 738 418 667 l 515 738 m 399 932 l 469 892 q 422 812 449 840 q 358 783 394 783 q 306 794 326 783 q 271 821 286 806 q 244 847 256 836 q 217 858 232 858 q 186 843 199 858 q 161 800 174 828 l 85 835 q 134 921 103 890 q 210 951 165 951 q 258 940 238 951 q 292 915 278 929 q 321 889 307 900 q 350 878 335 878 q 378 892 368 878 q 399 932 388 907 z "},"ő":{"ha":556,"x_min":31,"x_max":525,"o":"m 278 -12 q 151 24 207 -12 q 63 135 94 61 q 31 321 31 210 q 63 508 31 433 q 151 622 94 583 q 278 661 207 661 q 405 622 349 661 q 493 508 461 583 q 525 321 525 433 q 493 136 525 211 q 405 24 461 61 q 278 -12 349 -12 m 278 104 q 339 129 314 104 q 378 203 364 154 q 392 322 392 251 q 378 444 392 396 q 339 518 364 493 q 278 543 314 543 q 219 518 244 543 q 178 444 193 493 q 164 322 164 396 q 178 203 164 251 q 217 129 192 154 q 278 104 243 104 z "},"ȏ":{"ha":556,"x_min":31,"x_max":525,"o":"m 278 -12 q 151 24 207 -12 q 63 135 94 61 q 31 321 31 210 q 63 508 31 433 q 151 622 94 583 q 278 661 207 661 q 405 622 349 661 q 493 508 461 583 q 525 321 525 433 q 493 136 525 211 q 405 24 461 61 q 278 -12 349 -12 m 278 104 q 339 129 314 104 q 378 203 364 154 q 392 322 392 251 q 378 444 392 396 q 339 518 364 493 q 278 543 314 543 q 219 518 244 543 q 178 444 193 493 q 164 322 164 396 q 178 203 164 251 q 217 129 192 154 q 278 104 243 104 m 196 733 l 110 772 q 180 872 136 839 q 278 906 224 906 q 378 872 333 906 q 449 772 422 839 l 363 733 q 327 800 347 778 q 278 822 307 822 q 244 812 260 822 q 217 782 229 801 q 196 733 206 763 z "},"ō":{"ha":556,"x_min":31,"x_max":525,"o":"m 278 -12 q 151 24 207 -12 q 63 135 94 61 q 31 321 31 210 q 63 508 31 433 q 151 622 94 583 q 278 661 207 661 q 405 622 349 661 q 493 508 461 583 q 525 321 525 433 q 493 136 525 211 q 405 24 461 61 q 278 -12 349 -12 m 278 104 q 339 129 314 104 q 378 203 364 154 q 392 322 392 251 q 378 444 392 396 q 339 518 364 493 q 278 543 314 543 q 219 518 244 543 q 178 444 193 493 q 164 322 164 396 q 178 203 164 251 q 217 129 192 154 q 278 104 243 104 z "},"ṓ":{"ha":556,"x_min":31,"x_max":525,"o":"m 278 -12 q 151 24 207 -12 q 63 135 94 61 q 31 321 31 210 q 63 508 31 433 q 151 622 94 583 q 278 661 207 661 q 405 622 349 661 q 493 508 461 583 q 525 321 525 433 q 493 136 525 211 q 405 24 461 61 q 278 -12 349 -12 m 278 104 q 339 129 314 104 q 378 203 364 154 q 392 322 392 251 q 378 444 392 396 q 339 518 364 493 q 278 543 314 543 q 219 518 244 543 q 178 444 193 493 q 164 322 164 396 q 178 203 164 251 q 217 129 192 154 q 278 104 243 104 z "},"ṑ":{"ha":556,"x_min":31,"x_max":525,"o":"m 278 -12 q 151 24 207 -12 q 63 135 94 61 q 31 321 31 210 q 63 508 31 433 q 151 622 94 583 q 278 661 207 661 q 405 622 349 661 q 493 508 461 583 q 525 321 525 433 q 493 136 525 211 q 405 24 461 61 q 278 -12 349 -12 m 278 104 q 339 129 314 104 q 378 203 364 154 q 392 322 392 251 q 378 444 392 396 q 339 518 364 493 q 278 543 314 543 q 219 518 244 543 q 178 444 193 493 q 164 322 164 396 q 178 203 164 251 q 217 129 192 154 q 278 104 243 104 z "},"ǫ":{"ha":556,"x_min":31,"x_max":525,"o":"m 278 -12 q 151 24 207 -12 q 63 135 94 61 q 31 321 31 210 q 63 508 31 433 q 151 622 94 583 q 278 661 207 661 q 405 622 349 661 q 493 508 461 583 q 525 321 525 433 q 493 136 525 211 q 405 24 461 61 q 278 -12 349 -12 m 278 104 q 339 129 314 104 q 378 203 364 154 q 392 322 392 251 q 378 444 392 396 q 339 518 364 493 q 278 543 314 543 q 219 518 244 543 q 178 444 193 493 q 164 322 164 396 q 178 203 164 251 q 217 129 192 154 q 278 104 243 104 m 403 -182 l 353 -304 q 270 -264 303 -287 q 222 -210 238 -240 q 206 -149 206 -181 q 223 -77 206 -114 q 275 -4 240 -40 q 358 64 310 32 l 406 26 q 363 -22 381 1 q 337 -67 346 -46 q 328 -107 328 -89 q 347 -152 328 -133 q 403 -182 365 -171 z "},"ø":{"ha":556,"x_min":31,"x_max":525,"o":"m 157 -83 l 64 -39 l 393 722 l 489 676 l 157 -83 m 278 -12 q 151 24 207 -12 q 63 135 94 61 q 31 321 31 210 q 63 508 31 433 q 151 622 94 583 q 278 661 207 661 q 405 622 349 661 q 493 508 461 583 q 525 321 525 433 q 493 136 525 211 q 405 24 461 61 q 278 -12 349 -12 m 278 104 q 339 129 314 104 q 378 203 364 154 q 392 322 392 251 q 378 444 392 396 q 339 518 364 493 q 278 543 314 543 q 219 518 244 543 q 178 444 193 493 q 164 322 164 396 q 178 203 164 251 q 217 129 192 154 q 278 104 243 104 z "},"ǿ":{"ha":556,"x_min":31,"x_max":525,"o":"m 157 -83 l 64 -39 l 393 722 l 489 676 l 157 -83 m 278 -12 q 151 24 207 -12 q 63 135 94 61 q 31 321 31 210 q 63 508 31 433 q 151 622 94 583 q 278 661 207 661 q 405 622 349 661 q 493 508 461 583 q 525 321 525 433 q 493 136 525 211 q 405 24 461 61 q 278 -12 349 -12 m 278 104 q 339 129 314 104 q 378 203 364 154 q 392 322 392 251 q 378 444 392 396 q 339 518 364 493 q 278 543 314 543 q 219 518 244 543 q 178 444 193 493 q 164 322 164 396 q 178 203 164 251 q 217 129 192 154 q 278 104 243 104 z "},"õ":{"ha":556,"x_min":31,"x_max":525,"o":"m 278 -12 q 151 24 207 -12 q 63 135 94 61 q 31 321 31 210 q 63 508 31 433 q 151 622 94 583 q 278 661 207 661 q 405 622 349 661 q 493 508 461 583 q 525 321 525 433 q 493 136 525 211 q 405 24 461 61 q 278 -12 349 -12 m 278 104 q 339 129 314 104 q 378 203 364 154 q 392 322 392 251 q 378 444 392 396 q 339 518 364 493 q 278 543 314 543 q 219 518 244 543 q 178 444 193 493 q 164 322 164 396 q 178 203 164 251 q 217 129 192 154 q 278 104 243 104 m 399 932 l 469 892 q 422 812 449 840 q 358 783 394 783 q 306 794 326 783 q 271 821 286 806 q 244 847 256 836 q 217 858 232 858 q 186 843 199 858 q 161 800 174 828 l 85 835 q 134 921 103 890 q 210 951 165 951 q 258 940 238 951 q 292 915 278 929 q 321 889 307 900 q 350 878 335 878 q 378 892 368 878 q 399 932 388 907 z "},"ṍ":{"ha":556,"x_min":31,"x_max":525,"o":"m 278 -12 q 151 24 207 -12 q 63 135 94 61 q 31 321 31 210 q 63 508 31 433 q 151 622 94 583 q 278 661 207 661 q 405 622 349 661 q 493 508 461 583 q 525 321 525 433 q 493 136 525 211 q 405 24 461 61 q 278 -12 349 -12 m 278 104 q 339 129 314 104 q 378 203 364 154 q 392 322 392 251 q 378 444 392 396 q 339 518 364 493 q 278 543 314 543 q 219 518 244 543 q 178 444 193 493 q 164 322 164 396 q 178 203 164 251 q 217 129 192 154 q 278 104 243 104 m 399 932 l 469 892 q 422 812 449 840 q 358 783 394 783 q 306 794 326 783 q 271 821 286 806 q 244 847 256 836 q 217 858 232 858 q 186 843 199 858 q 161 800 174 828 l 85 835 q 134 921 103 890 q 210 951 165 951 q 258 940 238 951 q 292 915 278 929 q 321 889 307 900 q 350 878 335 878 q 378 892 368 878 q 399 932 388 907 z "},"ṏ":{"ha":556,"x_min":31,"x_max":525,"o":"m 278 -12 q 151 24 207 -12 q 63 135 94 61 q 31 321 31 210 q 63 508 31 433 q 151 622 94 583 q 278 661 207 661 q 405 622 349 661 q 493 508 461 583 q 525 321 525 433 q 493 136 525 211 q 405 24 461 61 q 278 -12 349 -12 m 278 104 q 339 129 314 104 q 378 203 364 154 q 392 322 392 251 q 378 444 392 396 q 339 518 364 493 q 278 543 314 543 q 219 518 244 543 q 178 444 193 493 q 164 322 164 396 q 178 203 164 251 q 217 129 192 154 q 278 104 243 104 m 399 932 l 469 892 q 422 812 449 840 q 358 783 394 783 q 306 794 326 783 q 271 821 286 806 q 244 847 256 836 q 217 858 232 858 q 186 843 199 858 q 161 800 174 828 l 85 835 q 134 921 103 890 q 210 951 165 951 q 258 940 238 951 q 292 915 278 929 q 321 889 307 900 q 350 878 335 878 q 378 892 368 878 q 399 932 388 907 z "},"ȭ":{"ha":556,"x_min":31,"x_max":525,"o":"m 278 -12 q 151 24 207 -12 q 63 135 94 61 q 31 321 31 210 q 63 508 31 433 q 151 622 94 583 q 278 661 207 661 q 405 622 349 661 q 493 508 461 583 q 525 321 525 433 q 493 136 525 211 q 405 24 461 61 q 278 -12 349 -12 m 278 104 q 339 129 314 104 q 378 203 364 154 q 392 322 392 251 q 378 444 392 396 q 339 518 364 493 q 278 543 314 543 q 219 518 244 543 q 178 444 193 493 q 164 322 164 396 q 178 203 164 251 q 217 129 192 154 q 278 104 243 104 m 399 932 l 469 892 q 422 812 449 840 q 358 783 394 783 q 306 794 326 783 q 271 821 286 806 q 244 847 256 836 q 217 858 232 858 q 186 843 199 858 q 161 800 174 828 l 85 835 q 134 921 103 890 q 210 951 165 951 q 258 940 238 951 q 292 915 278 929 q 321 889 307 900 q 350 878 335 878 q 378 892 368 878 q 399 932 388 907 z "},"œ":{"ha":556,"x_min":7,"x_max":549,"o":"m 404 -17 q 340 -5 371 -17 q 285 32 308 7 q 235 -4 261 7 q 178 -15 210 -15 q 116 -1 146 -15 q 61 51 86 14 q 22 153 36 88 q 7 321 7 218 q 31 519 7 446 q 96 624 56 592 q 185 657 136 657 q 242 644 217 657 q 286 603 267 631 q 331 643 304 629 q 388 657 358 657 q 474 628 439 657 q 529 542 510 600 q 549 393 549 483 l 549 296 l 318 296 q 331 165 319 210 q 363 105 343 121 q 411 89 383 89 q 460 101 439 89 q 500 140 482 113 l 546 57 q 483 1 517 19 q 404 -17 449 -17 m 188 93 q 203 97 196 93 q 217 106 211 100 q 226 119 224 111 q 229 138 229 128 q 228 149 229 143 q 226 168 228 156 q 221 221 224 196 q 217 273 218 246 q 215 332 215 300 q 219 418 215 385 q 226 471 222 451 q 229 496 229 490 q 226 515 229 506 q 218 531 224 524 q 205 542 213 538 q 186 547 197 547 q 151 527 167 547 q 125 460 135 507 q 115 336 115 414 q 122 198 115 251 q 145 119 129 144 q 188 93 161 93 m 321 397 l 453 397 q 446 485 451 453 q 427 534 440 518 q 389 550 414 550 q 351 531 367 550 q 328 478 336 513 q 321 397 321 444 z "},"p":{"ha":556,"x_min":50,"x_max":528,"o":"m 51 -232 l 50 647 l 182 647 l 182 558 q 219 615 199 593 q 267 649 240 638 q 325 661 294 661 q 403 643 367 661 q 468 585 440 625 q 512 481 496 546 q 528 322 528 417 q 512 166 528 231 q 468 61 496 101 q 403 2 440 21 q 322 -17 365 -17 q 267 -8 293 -17 q 221 19 242 1 q 185 63 200 38 l 185 -232 l 51 -232 m 288 99 q 331 108 311 99 q 365 143 350 118 q 388 212 379 168 q 396 325 396 256 q 384 451 396 403 q 349 522 372 500 q 293 546 326 544 q 248 532 268 546 q 213 488 228 518 q 191 413 199 458 q 183 306 183 368 q 189 226 185 260 q 202 167 193 192 q 224 128 211 143 q 252 106 236 113 q 288 99 268 99 z "},"þ":{"ha":556,"x_min":50,"x_max":528,"o":"m 50 929 l 181 929 l 194 929 l 194 917 q 184 899 186 908 q 182 865 182 889 l 182 558 q 219 615 199 593 q 267 649 240 638 q 325 661 294 661 q 403 643 367 661 q 468 585 440 625 q 512 481 496 546 q 528 322 528 417 q 512 166 528 231 q 468 61 496 101 q 403 2 440 21 q 322 -17 365 -17 q 267 -8 293 -17 q 221 19 242 1 q 185 63 200 38 l 185 -232 l 51 -232 l 50 929 m 288 99 q 331 108 311 99 q 365 143 350 118 q 388 212 379 168 q 396 325 396 256 q 384 451 396 403 q 349 522 372 500 q 293 546 326 544 q 248 532 268 546 q 213 488 228 518 q 191 413 199 458 q 183 306 183 368 q 189 226 185 260 q 202 167 193 192 q 224 128 211 143 q 252 106 236 113 q 288 99 268 99 l 288 99 z "},"q":{"ha":556,"x_min":31,"x_max":507,"o":"m 374 -232 l 374 67 q 342 19 361 38 q 299 -7 324 1 q 247 -15 275 -15 q 153 8 194 -14 q 85 74 113 31 q 44 179 58 117 q 31 321 31 242 q 45 475 31 411 q 89 581 60 539 q 159 642 118 622 q 251 661 200 661 q 294 656 275 661 q 328 639 313 650 q 356 612 344 628 q 378 574 368 596 l 378 646 l 507 646 l 507 -232 l 374 -232 m 274 100 q 315 113 296 100 q 347 152 333 125 q 367 224 360 179 q 374 332 374 268 q 367 435 374 393 q 346 501 360 476 q 314 538 332 526 q 274 549 296 549 q 229 538 250 549 q 194 501 208 526 q 171 432 179 475 q 163 326 163 389 q 170 222 163 265 q 192 152 178 179 q 227 113 207 125 q 274 100 247 100 z "},"r":{"ha":556,"x_min":88,"x_max":524,"o":"m 88 646 l 224 646 l 222 478 l 208 493 q 230 565 214 533 q 269 617 246 596 q 321 650 293 639 q 378 661 349 661 q 460 642 425 661 q 524 585 496 622 l 468 471 l 464 460 l 453 464 q 445 488 449 475 q 425 515 442 500 q 394 534 411 528 q 358 540 378 540 q 308 531 333 540 q 264 497 283 521 q 233 435 244 474 q 222 340 222 397 l 222 -1 l 88 -1 l 88 646 z "},"ŕ":{"ha":556,"x_min":88,"x_max":524,"o":"m 88 646 l 224 646 l 222 478 l 208 493 q 230 565 214 533 q 269 617 246 596 q 321 650 293 639 q 378 661 349 661 q 460 642 425 661 q 524 585 496 622 l 468 471 l 464 460 l 453 464 q 445 488 449 475 q 425 515 442 500 q 394 534 411 528 q 358 540 378 540 q 308 531 333 540 q 264 497 283 521 q 233 435 244 474 q 222 340 222 397 l 222 -1 l 88 -1 l 88 646 z "},"ř":{"ha":556,"x_min":88,"x_max":524,"o":"m 88 646 l 224 646 l 222 478 l 208 493 q 230 565 214 533 q 269 617 246 596 q 321 650 293 639 q 378 661 349 661 q 460 642 425 661 q 524 585 496 622 l 468 471 l 464 460 l 453 464 q 445 488 449 475 q 425 515 442 500 q 394 534 411 528 q 358 540 378 540 q 308 531 333 540 q 264 497 283 521 q 233 435 244 474 q 222 340 222 397 l 222 -1 l 88 -1 l 88 646 m 200 965 l 313 839 l 426 965 l 492 906 l 332 713 l 294 713 l 135 906 l 200 965 z "}}}
